<?xml version="1.0" encoding="utf-8"?><!--Generator: Adobe Illustrator 20.1.0, SVG Export Plug-In . SVG Version: 6.00 Build 0)--><svg version="1.1" id="Layer_1" xmlns="http://www.w3.org/2000/svg" xmlns:xlink="http://www.w3.org/1999/xlink" x="0px" y="0px" viewBox="0 0 729.9 364.5" style="enable-background:new 0 0 729.9 364.5;" xml:space="preserve"><style type="text/css">.st0{fill:#2979FF;} .st1{fill:#FFFFFF;}</style><g><path class="st0" d="M195.4,87.3c-9.7-9.8-24.8-14.7-45.4-14.7c-13,0-25.5,3.2-37.7,9.5c-12.2,6.3-22.1,14.7-29.8,25h-0.8l0.1-0.3
		c-10.3,14-31,24.6-50.4,24.8L0,283.2c26.3,0,49.1-18.5,54.4-44.3l13.8-66.8c1.8-8.5,4.7-16.6,8.5-24.4c3.8-7.8,8.4-14.3,13.7-19.6
		c5.6-5.6,11.8-10.2,18.8-14.1c7-3.8,15-5.8,24-5.8c8.2,0,14.5,1.2,18.8,3.6c4.4,2.4,7.5,5.2,9.3,8.5c1.8,3.3,2.8,6.6,3,9.9
		c0.1,3.3,0.2,5.8,0.2,7.3c0,2.9-0.3,6-1,9.1c-0.7,3.2-1.4,6.5-2.2,9.9l-26.2,126.5h0c26.3,0,49.1-18.5,54.5-44.3l18.1-86.6
		c0.8-3.7,1.3-7.9,1.6-12.7c0.3-4.8,0.4-9,0.4-12.7C209.8,110.3,205,97.1,195.4,87.3z"/><path class="st1" d="M81.8,106.8L103.9,0h0C77.6,0,54.9,18.5,49.5,44.3l-18.1,87.4C50.8,131.5,71.4,120.9,81.8,106.8z"/><path class="st1" d="M402.2,223.7c-0.8,3.7-1.7,7.3-2.6,10.7c-0.9,3.4-1.4,6.6-1.4,9.5c0,2.9,0.7,5.2,2,6.7
		c1.3,1.6,3.8,2.4,7.5,2.4c2.6,0,5.3-0.3,7.9-1c2.6-0.7,5.3-1.1,7.9-1.4l-3.4,15.4c-2.3,10.5-10.5,18.7-21,20.9c-0.1,0-0.1,0-0.2,0
		c-5.8,1.2-11.8,1.8-17.8,1.8c-7.7,0-14-2.4-19-7.1c-5-4.8-7.8-11.1-8.3-19c-9,9-19.6,15.6-31.7,19.8c-12.2,4.2-24.6,6.3-37.3,6.3
		c-8.5,0-16.5-1.2-24.2-3.6c-7.7-2.4-14.5-5.8-20.4-10.3c-6-4.5-10.6-10.2-14.1-17.1c-3.4-6.9-5.2-14.8-5.2-23.8
		c0-12.7,2.4-23.3,7.1-31.9c4.8-8.6,11.1-15.7,19-21.2c7.9-5.6,17.1-9.7,27.4-12.3c10.3-2.6,21.2-4.4,32.5-5.2
		c15.3-1.1,30.4-2.2,45.2-3.6c8.2-0.5,14.2-3.2,18-8.1c3.8-4.9,5.8-11.2,5.8-18.8c0-9.8-3.4-16.3-10.3-19.6c-6.9-3.3-14.9-5-24.2-5
		c-12.7,0-23.6,2.2-32.7,6.5c-2.6,1.2-5,2.8-7.1,4.8c-14.1,12.8-32,20.8-51.1,20.8h-3.1c2.4-12.7,6.5-23.3,12.3-31.9
		c5.8-8.6,13-15.6,21.4-21c8.5-5.4,18-9.3,28.8-11.5c10.7-2.2,22.1-3.4,34.3-3.4c18.5,0,33,1.8,43.4,5.4c10.4,3.6,18.1,7.9,23,12.9
		c4.9,5,7.9,10.3,8.9,15.7c1.1,5.4,1.6,10,1.6,13.7c0,9-1.3,19.3-4,30.9L402.2,223.7z M266.2,226.9c0,5,1.1,9.2,3.4,12.5
		c2.2,3.3,5.1,5.9,8.5,7.9c3.4,2,7.3,3.4,11.5,4.4c4.2,0.9,8.5,1.4,12.7,1.4c11.1,0,20.4-1.8,28-5.6c7.5-3.7,13.7-8.7,18.6-15.1
		c4.9-6.3,8.7-13.8,11.5-22.4c2.8-8.6,5-17.8,6.5-27.6l-0.8-0.8c-3.2,3.2-7.4,5.4-12.7,6.7c-5.3,1.3-10.5,2.3-15.5,2.8
		c-6.3,0.5-13.7,1.1-22,1.6c-8.3,0.5-16.1,1.9-23.4,4.2c-7.3,2.3-13.5,5.7-18.6,10.3C268.7,211.9,266.2,218.4,266.2,226.9z"/><path class="st1" d="M520,78.1L520,78.1l-43.2,208.2c-1.6,7.4-3.2,14.4-4.8,21c-1.6,6.6-3.8,13.1-6.7,19.4
		c-5.3,13.7-12.3,23.5-21,29.2c-8.7,5.7-20.4,8.5-34.9,8.5c-9.3,0-17.6-0.8-25-2.4l7.9-36.1c1.6,1.3,3.7,2.1,6.3,2.4
		c2.6,0.3,5.7,0.4,9.1,0.4c4.5,0,8.1-1.2,10.7-3.6c2.6-2.4,4.8-5.4,6.3-8.9c1.6-3.6,2.8-7.6,3.6-12.1c0.8-4.5,1.6-8.7,2.4-12.7
		l34.9-169.1C471,96.6,493.7,78.1,520,78.1z M534.8,0h1.1l-8.7,42.8h-44.8v0C487.4,17.9,509.3,0,534.8,0z"/><path class="st1" d="M717.2,219.8c-7.1,24.1-19.2,41.6-36.1,52.6c-16.9,11-37.8,16.5-62.7,16.5c-13,0-24.9-2.1-35.9-6.1
		c-11-4.1-20.4-10-28.4-17.8c-7.9-7.8-14.1-17.2-18.6-28.2c-4.5-11-6.7-23.5-6.7-37.5c0-15.9,2.5-31.3,7.5-46.4
		c5-15.1,12.4-28.6,22-40.5c9.7-11.9,21.6-21.5,35.7-28.8c14.1-7.3,30.3-10.9,48.6-10.9c18.2,0,33.1,3,44.4,9.1
		c11.4,6.1,20.2,13.8,26.6,23c6.3,9.3,10.6,19.4,12.9,30.5c2.2,11.1,3.4,21.7,3.4,31.7c0,5-0.3,9.7-0.8,13.9
		c-0.5,4.2-1.1,8.1-1.6,11.5H574.8c-0.3,1.3-0.5,2.5-0.6,3.6c-0.1,1.1-0.2,2.1-0.2,3.2v6.3c0,14.3,3.8,25.8,11.3,34.5
		c7.5,8.7,20,13.1,37.5,13.1c12.2,0,22.6-2.8,31.3-8.3c1.5-0.9,2.8-1.9,4.1-3c16.4-13.6,36.6-22,57.9-22H717.2z M684.2,162.6
		c0.3-1.3,0.4-2.4,0.4-3.4c0-0.9,0-1.9,0-3v-6.3c0-12.2-3.8-22.1-11.5-29.9c-7.7-7.8-18.2-11.7-31.7-11.7
		c-16.9,0-30.4,5.1-40.5,15.3c-10.1,10.2-17.3,23.2-21.8,39.1H684.2z"/></g></svg>