<?xml version="1.0" encoding="utf-8"?>
<!-- Generator: Adobe Illustrator 20.1.0, SVG Export Plug-In . SVG Version: 6.00 Build 0)  -->
<svg version="1.1" id="Layer_1" xmlns="http://www.w3.org/2000/svg" xmlns:xlink="http://www.w3.org/1999/xlink" x="0px" y="0px"
	 viewBox="0 0 1920 1080" style="enable-background:new 0 0 1920 1080;" xml:space="preserve">
<style type="text/css">
	.st0{opacity:0.5;}
	.st1{fill:none;stroke:#643C9E;stroke-width:2;stroke-miterlimit:10;}
</style>
<g class="st0">
	<path class="st1" d="M1139.8,1098.3c136.2-174.8,273.9-355.6,434.6-464.2C2053.2,310.7,2589,382.6,2589,382.6"/>
	<path class="st1" d="M1128.4,1099.3c137.2-177.8,275.5-363,438.1-474.1c476.7-325.9,1013.6-257.7,1013.6-257.7"/>
	<path class="st1" d="M1115.6,1102c138.6-181.3,277.9-371.8,442.9-485.9c474.7-328.3,1012.6-263.9,1012.6-263.9"/>
	<path class="st1" d="M1103.8,1103.9c139.7-184.5,279.8-379.9,446.8-496.8C2023.4,276.4,2562.4,337,2562.4,337"/>
	<path class="st1" d="M1092.5,1105.3c140.7-187.5,281.3-387.7,450.3-507.3c470.7-333.1,1010.7-276.2,1010.7-276.2"/>
	<path class="st1" d="M1082.3,1105.3c141.3-190.1,282.1-394.2,452.6-516.3c468.7-335.5,1009.7-282.4,1009.7-282.4"/>
	<path class="st1" d="M1072.5,1105.3c141.8-192.7,282.6-400.9,454.5-525.4C1993.7,242,2535.8,291.4,2535.8,291.4"/>
	<path class="st1" d="M1061,1107.5c142.9-195.8,284.2-409.2,458.1-536.6c464.6-340.3,1007.8-294.7,1007.8-294.7"/>
	<path class="st1" d="M1051.3,1107.5c143.4-198.3,284.7-415.8,460-545.6C1973.8,219.1,2518.1,261,2518.1,261"/>
	<path class="st1" d="M1041.5,1107.5c143.9-200.7,285.2-422.4,461.9-554.7C1964,207.7,2509.3,245.7,2509.3,245.7"/>
	<path class="st1" d="M1031.9,1107.5c144.3-203.2,285.6-428.8,463.6-563.7C1954,196.3,2500.4,230.6,2500.4,230.6"/>
	<path class="st1" d="M1022.4,1107.5c144.7-205.6,285.8-435.3,465.2-572.7c456.6-349.9,1004-319.4,1004-319.4"/>
	<path class="st1" d="M1013.1,1107.5c145.2-207.9,286-441.8,466.6-581.7c454.5-352.4,1003-325.6,1003-325.6"/>
	<path class="st1" d="M1003.7,1107.5c145.6-210.3,286.2-448.3,468-590.8c452.5-354.8,1002-331.7,1002-331.7"/>
	<path class="st1" d="M994.5,1107.5c146-212.6,286.2-454.7,469.3-599.8c450.5-357.2,1001.1-337.9,1001.1-337.9"/>
	<path class="st1" d="M985.4,1107.5c146.3-214.9,286.2-461.1,470.5-608.8C1904.5,139,2456,154.5,2456,154.5"/>
	<path class="st1" d="M976.5,1107.5c146.7-217.2,286.1-467.6,471.6-618c446.5-362,999.1-350.2,999.1-350.2"/>
	<path class="st1" d="M969,1105.3c146.5-219,285.1-472.2,471.2-624.8c444.5-364.4,998.2-356.4,998.2-356.4"/>
	<path class="st1" d="M960.1,1105.3c146.8-221.2,284.9-478.7,472.2-633.9c442.4-366.8,997.2-362.6,997.2-362.6"/>
	<path class="st1" d="M952.4,1103.9c146.8-223.1,284.1-483.8,472-641.4c440.4-369.2,996.2-368.7,996.2-368.7"/>
	<path class="st1" d="M943.7,1103.9c147.1-225.3,283.7-490.2,472.8-650.5c438.4-371.6,995.3-374.9,995.3-374.9"/>
	<path class="st1" d="M934.2,1105.3c147.7-227.8,283.8-497.6,474.4-660.9c436.4-374,994.3-381.1,994.3-381.1"/>
	<path class="st1" d="M925.6,1105.3c148-230,283.4-503.9,475.1-670C1835.1,58.9,2394,48.1,2394,48.1"/>
	<path class="st1" d="M918.1,1103.9c147.9-231.8,282.3-509.1,474.7-677.6c432.4-378.8,992.4-393.4,992.4-393.4"/>
	<path class="st1" d="M909.9,1103.9C1058,870,1191.5,588.6,1384.8,417.3C1815.2,36,2376.3,17.7,2376.3,17.7"/>
	<path class="st1" d="M902.8,1102c147.9-235.7,280.3-520.1,474.1-693.8C1805.3,24.6,2367.4,2.5,2367.4,2.5"/>
	<path class="st1" d="M895.5,1100.8c147.8-237.5,279.1-525.4,473.5-701.5c426.3-386.1,989.5-411.9,989.5-411.9"/>
	<path class="st1" d="M887.1,1100.8c148.1-239.7,278.6-531.6,474-710.6C1785.5,1.7,2349.7-27.9,2349.7-27.9"/>
	<path class="st1" d="M879.3,1100.8c148.3-241.7,277.6-537.8,474-719.6c422.3-391,987.5-424.3,987.5-424.3"/>
	<path class="st1" d="M872.2,1099.3c148.1-243.6,276.2-543,473.2-727.3C1765.7-21.2,2332-58.3,2332-58.3"/>
	<path class="st1" d="M865.2,1098.3c148.1-245.4,274.8-548.2,472.3-735.2c418.2-395.7,985.6-436.5,985.6-436.5"/>
	<path class="st1" d="M857.5,1098.3c148.3-247.4,273.6-554.4,472.1-744.3c416.2-398.1,984.6-442.7,984.6-442.7"/>
</g>
</svg>
