<!--?xml version="1.0" encoding="utf-8"?-->
<!-- Generator: Adobe Illustrator 20.1.0, SVG Export Plug-In . SVG Version: 6.00 Build 0)  -->
<svg version="1.1" id="Layer_1" xmlns="http://www.w3.org/2000/svg" xmlns:xlink="http://www.w3.org/1999/xlink" x="0px" y="0px" viewBox="0 0 1920 1080" xml:space="preserve">
<style type="text/css">
	.st0{opacity:0.5;}
	.st1{fill:none;stroke:#22103d;stroke-width:2;stroke-miterlimit:10;}
</style>
<g class="st0">
	<path class="st1 elNevuvV_0" d="M1139.8,1098.3c136.2-174.8,273.9-355.6,434.6-464.2C2053.2,310.7,2589,382.6,2589,382.6"></path>
	<path class="st1 elNevuvV_1" d="M1128.4,1099.3c137.2-177.8,275.5-363,438.1-474.1c476.7-325.9,1013.6-257.7,1013.6-257.7"></path>
	<path class="st1 elNevuvV_2" d="M1115.6,1102c138.6-181.3,277.9-371.8,442.9-485.9c474.7-328.3,1012.6-263.9,1012.6-263.9"></path>
	<path class="st1 elNevuvV_3" d="M1103.8,1103.9c139.7-184.5,279.8-379.9,446.8-496.8C2023.4,276.4,2562.4,337,2562.4,337"></path>
	<path class="st1 elNevuvV_4" d="M1092.5,1105.3c140.7-187.5,281.3-387.7,450.3-507.3c470.7-333.1,1010.7-276.2,1010.7-276.2"></path>
	<path class="st1 elNevuvV_5" d="M1082.3,1105.3c141.3-190.1,282.1-394.2,452.6-516.3c468.7-335.5,1009.7-282.4,1009.7-282.4"></path>
	<path class="st1 elNevuvV_6" d="M1072.5,1105.3c141.8-192.7,282.6-400.9,454.5-525.4C1993.7,242,2535.8,291.4,2535.8,291.4"></path>
	<path class="st1 elNevuvV_7" d="M1061,1107.5c142.9-195.8,284.2-409.2,458.1-536.6c464.6-340.3,1007.8-294.7,1007.8-294.7"></path>
	<path class="st1 elNevuvV_8" d="M1051.3,1107.5c143.4-198.3,284.7-415.8,460-545.6C1973.8,219.1,2518.1,261,2518.1,261"></path>
	<path class="st1 elNevuvV_9" d="M1041.5,1107.5c143.9-200.7,285.2-422.4,461.9-554.7C1964,207.7,2509.3,245.7,2509.3,245.7"></path>
	<path class="st1 elNevuvV_10" d="M1031.9,1107.5c144.3-203.2,285.6-428.8,463.6-563.7C1954,196.3,2500.4,230.6,2500.4,230.6"></path>
	<path class="st1 elNevuvV_11" d="M1022.4,1107.5c144.7-205.6,285.8-435.3,465.2-572.7c456.6-349.9,1004-319.4,1004-319.4"></path>
	<path class="st1 elNevuvV_12" d="M1013.1,1107.5c145.2-207.9,286-441.8,466.6-581.7c454.5-352.4,1003-325.6,1003-325.6"></path>
	<path class="st1 elNevuvV_13" d="M1003.7,1107.5c145.6-210.3,286.2-448.3,468-590.8c452.5-354.8,1002-331.7,1002-331.7"></path>
	<path class="st1 elNevuvV_14" d="M994.5,1107.5c146-212.6,286.2-454.7,469.3-599.8c450.5-357.2,1001.1-337.9,1001.1-337.9"></path>
	<path class="st1 elNevuvV_15" d="M985.4,1107.5c146.3-214.9,286.2-461.1,470.5-608.8C1904.5,139,2456,154.5,2456,154.5"></path>
	<path class="st1 elNevuvV_16" d="M976.5,1107.5c146.7-217.2,286.1-467.6,471.6-618c446.5-362,999.1-350.2,999.1-350.2"></path>
	<path class="st1 elNevuvV_17" d="M969,1105.3c146.5-219,285.1-472.2,471.2-624.8c444.5-364.4,998.2-356.4,998.2-356.4"></path>
	<path class="st1 elNevuvV_18" d="M960.1,1105.3c146.8-221.2,284.9-478.7,472.2-633.9c442.4-366.8,997.2-362.6,997.2-362.6"></path>
	<path class="st1 elNevuvV_19" d="M952.4,1103.9c146.8-223.1,284.1-483.8,472-641.4c440.4-369.2,996.2-368.7,996.2-368.7"></path>
	<path class="st1 elNevuvV_20" d="M943.7,1103.9c147.1-225.3,283.7-490.2,472.8-650.5c438.4-371.6,995.3-374.9,995.3-374.9"></path>
	<path class="st1 elNevuvV_21" d="M934.2,1105.3c147.7-227.8,283.8-497.6,474.4-660.9c436.4-374,994.3-381.1,994.3-381.1"></path>
	<path class="st1 elNevuvV_22" d="M925.6,1105.3c148-230,283.4-503.9,475.1-670C1835.1,58.9,2394,48.1,2394,48.1"></path>
	<path class="st1 elNevuvV_23" d="M918.1,1103.9c147.9-231.8,282.3-509.1,474.7-677.6c432.4-378.8,992.4-393.4,992.4-393.4"></path>
	<path class="st1 elNevuvV_24" d="M909.9,1103.9C1058,870,1191.5,588.6,1384.8,417.3C1815.2,36,2376.3,17.7,2376.3,17.7"></path>
	<path class="st1 elNevuvV_25" d="M902.8,1102c147.9-235.7,280.3-520.1,474.1-693.8C1805.3,24.6,2367.4,2.5,2367.4,2.5"></path>
	<path class="st1 elNevuvV_26" d="M895.5,1100.8c147.8-237.5,279.1-525.4,473.5-701.5c426.3-386.1,989.5-411.9,989.5-411.9"></path>
	<path class="st1 elNevuvV_27" d="M887.1,1100.8c148.1-239.7,278.6-531.6,474-710.6C1785.5,1.7,2349.7-27.9,2349.7-27.9"></path>
	<path class="st1 elNevuvV_28" d="M879.3,1100.8c148.3-241.7,277.6-537.8,474-719.6c422.3-391,987.5-424.3,987.5-424.3"></path>
	<path class="st1 elNevuvV_29" d="M872.2,1099.3c148.1-243.6,276.2-543,473.2-727.3C1765.7-21.2,2332-58.3,2332-58.3"></path>
	<path class="st1 elNevuvV_30" d="M865.2,1098.3c148.1-245.4,274.8-548.2,472.3-735.2c418.2-395.7,985.6-436.5,985.6-436.5"></path>
	<path class="st1 elNevuvV_31" d="M857.5,1098.3c148.3-247.4,273.6-554.4,472.1-744.3c416.2-398.1,984.6-442.7,984.6-442.7"></path>
</g>
<style>.elNevuvV_0{stroke-dasharray:1704 1706;stroke-dashoffset:1705;animation:elNevuvV_draw 5333ms linear 0ms forwards;}.elNevuvV_1{stroke-dasharray:1715 1717;stroke-dashoffset:1716;animation:elNevuvV_draw 5333ms linear 86ms forwards;}.elNevuvV_2{stroke-dasharray:1727 1729;stroke-dashoffset:1728;animation:elNevuvV_draw 5333ms linear 172ms forwards;}.elNevuvV_3{stroke-dasharray:1738 1740;stroke-dashoffset:1739;animation:elNevuvV_draw 5333ms linear 258ms forwards;}.elNevuvV_4{stroke-dasharray:1749 1751;stroke-dashoffset:1750;animation:elNevuvV_draw 5333ms linear 344ms forwards;}.elNevuvV_5{stroke-dasharray:1758 1760;stroke-dashoffset:1759;animation:elNevuvV_draw 5333ms linear 430ms forwards;}.elNevuvV_6{stroke-dasharray:1767 1769;stroke-dashoffset:1768;animation:elNevuvV_draw 5333ms linear 516ms forwards;}.elNevuvV_7{stroke-dasharray:1778 1780;stroke-dashoffset:1779;animation:elNevuvV_draw 5333ms linear 602ms forwards;}.elNevuvV_8{stroke-dasharray:1787 1789;stroke-dashoffset:1788;animation:elNevuvV_draw 5333ms linear 688ms forwards;}.elNevuvV_9{stroke-dasharray:1796 1798;stroke-dashoffset:1797;animation:elNevuvV_draw 5333ms linear 774ms forwards;}.elNevuvV_10{stroke-dasharray:1805 1807;stroke-dashoffset:1806;animation:elNevuvV_draw 5333ms linear 860ms forwards;}.elNevuvV_11{stroke-dasharray:1814 1816;stroke-dashoffset:1815;animation:elNevuvV_draw 5333ms linear 946ms forwards;}.elNevuvV_12{stroke-dasharray:1823 1825;stroke-dashoffset:1824;animation:elNevuvV_draw 5333ms linear 1032ms forwards;}.elNevuvV_13{stroke-dasharray:1832 1834;stroke-dashoffset:1833;animation:elNevuvV_draw 5333ms linear 1118ms forwards;}.elNevuvV_14{stroke-dasharray:1841 1843;stroke-dashoffset:1842;animation:elNevuvV_draw 5333ms linear 1204ms forwards;}.elNevuvV_15{stroke-dasharray:1850 1852;stroke-dashoffset:1851;animation:elNevuvV_draw 5333ms linear 1290ms forwards;}.elNevuvV_16{stroke-dasharray:1859 1861;stroke-dashoffset:1860;animation:elNevuvV_draw 5333ms linear 1376ms forwards;}.elNevuvV_17{stroke-dasharray:1865 1867;stroke-dashoffset:1866;animation:elNevuvV_draw 5333ms linear 1462ms forwards;}.elNevuvV_18{stroke-dasharray:1874 1876;stroke-dashoffset:1875;animation:elNevuvV_draw 5333ms linear 1548ms forwards;}.elNevuvV_19{stroke-dasharray:1881 1883;stroke-dashoffset:1882;animation:elNevuvV_draw 5333ms linear 1634ms forwards;}.elNevuvV_20{stroke-dasharray:1890 1892;stroke-dashoffset:1891;animation:elNevuvV_draw 5333ms linear 1720ms forwards;}.elNevuvV_21{stroke-dasharray:1901 1903;stroke-dashoffset:1902;animation:elNevuvV_draw 5333ms linear 1806ms forwards;}.elNevuvV_22{stroke-dasharray:1910 1912;stroke-dashoffset:1911;animation:elNevuvV_draw 5333ms linear 1892ms forwards;}.elNevuvV_23{stroke-dasharray:1917 1919;stroke-dashoffset:1918;animation:elNevuvV_draw 5333ms linear 1978ms forwards;}.elNevuvV_24{stroke-dasharray:1926 1928;stroke-dashoffset:1927;animation:elNevuvV_draw 5333ms linear 2064ms forwards;}.elNevuvV_25{stroke-dasharray:1933 1935;stroke-dashoffset:1934;animation:elNevuvV_draw 5333ms linear 2150ms forwards;}.elNevuvV_26{stroke-dasharray:1940 1942;stroke-dashoffset:1941;animation:elNevuvV_draw 5333ms linear 2236ms forwards;}.elNevuvV_27{stroke-dasharray:1950 1952;stroke-dashoffset:1951;animation:elNevuvV_draw 5333ms linear 2322ms forwards;}.elNevuvV_28{stroke-dasharray:1959 1961;stroke-dashoffset:1960;animation:elNevuvV_draw 5333ms linear 2408ms forwards;}.elNevuvV_29{stroke-dasharray:1966 1968;stroke-dashoffset:1967;animation:elNevuvV_draw 5333ms linear 2494ms forwards;}.elNevuvV_30{stroke-dasharray:1974 1976;stroke-dashoffset:1975;animation:elNevuvV_draw 5333ms linear 2580ms forwards;}.elNevuvV_31{stroke-dasharray:1983 1985;stroke-dashoffset:1984;animation:elNevuvV_draw 5333ms linear 2666ms forwards;}@keyframes elNevuvV_draw{100%{stroke-dashoffset:0;}}@keyframes elNevuvV_fade{0%{stroke-opacity:1;}96.72131147540983%{stroke-opacity:1;}100%{stroke-opacity:0;}}</style></svg>
