<?xml version="1.0" encoding="utf-8"?><!--Generator: Adobe Illustrator 20.1.0, SVG Export Plug-In . SVG Version: 6.00 Build 0)--><svg version="1.1" id="Layer_1" xmlns="http://www.w3.org/2000/svg" xmlns:xlink="http://www.w3.org/1999/xlink" x="0px" y="0px" viewBox="0 0 1920 1080" style="enable-background:new 0 0 1920 1080;" xml:space="preserve"><style type="text/css">.st0{fill:none;stroke:#ccc;stroke-miterlimit:10;}</style><g><g><path class="st0" d="M701.3-107.1c206.1,93.8,364.1-22.6,582.3,76.7C1474.3,56.3,1654,311.9,1857,404.3
			c320,145.6,634.2,48.2,634.2,48.2"/><path class="st0" d="M700.9-106.9c205.5,94.9,365.5-20.1,582,80.1c189.9,88.1,367.9,343.9,570.3,437.3
			c319,147.2,634.2,52,634.2,52"/><path class="st0" d="M700.4-106.7c204.9,95.9,367-17.6,581.8,83.5c189.1,89.4,365.3,345.4,567.2,439.9
			c318.1,148.9,634.3,55.8,634.3,55.8"/><path class="st0" d="M700-106.4c204.3,97,368.4-15.2,581.6,86.9c188.2,90.7,362.8,346.9,564,442.5
			c317.1,150.5,634.3,59.6,634.3,59.6"/><path class="st0" d="M699.5-106.2c203.7,98,369.9-12.7,581.4,90.4c187.3,92,360.3,348.5,560.9,445
			c316.1,152.2,634.4,63.4,634.4,63.4"/><path class="st0" d="M699.1-106c203,99.1,371.3-10.2,581.1,93.8c186.5,93.3,357.7,350,557.7,447.6
			c315.2,153.8,634.4,67.2,634.4,67.2"/><path class="st0" d="M698.6-105.7c202.4,100.2,373-8.2,580.9,97.2c185.8,94.2,355.2,351.5,554.6,450.2
			c314.2,155.5,634.5,71,634.5,71"/><path class="st0" d="M698.2-105.5C900-4.3,1072.7-111.3,1278.9-4.9c185,95.5,352.7,353,551.4,452.8
			c313.2,157.1,634.5,74.8,634.5,74.8"/><path class="st0" d="M697.7-105.3c201.2,102.3,376-3.4,580.5,104c184.2,96.7,350.1,354.6,548.3,455.3
			c312.3,158.8,634.5,78.6,634.5,78.6"/><path class="st0" d="M697.3-105C897.8-1.7,1074.7-106,1277.5,2.4c183.4,98,347.6,356.1,545.1,457.9
			c311.3,160.4,634.6,82.4,634.6,82.4"/><path class="st0" d="M696.8-104.8c199.9,104.4,378.9,1.5,580,110.8c182.5,99.2,345,357.6,542,460.5
			c310.3,162.1,634.6,86.2,634.6,86.2"/><path class="st0" d="M696.4-104.6c199.3,105.5,380.4,3.9,579.8,114.3c181.7,100.5,342.5,359.1,538.8,463.1
			c309.4,163.7,634.7,90,634.7,90"/><path class="st0" d="M695.9-104.3c198.7,106.5,381.9,6.4,579.6,117.7c180.9,101.8,340,360.7,535.7,465.6
			c308.4,165.4,634.7,93.8,634.7,93.8"/><path class="st0" d="M695.5-104.1C893.5,3.5,1078.8-95.3,1274.8,17c180,103.1,337.4,362.2,532.5,468.2
			c307.4,167,634.8,97.6,634.8,97.6"/><path class="st0" d="M695-103.9C892.4,4.8,1079.9-92.6,1274.1,20.6C1453.3,125,1609,384.4,1803.5,491.4
			c306.5,168.7,634.8,101.4,634.8,101.4"/><path class="st0" d="M694.6-103.6C891.4,6.1,1080.9-89.9,1273.5,24.3c178.3,105.7,332.4,365.3,526.2,473.3
			c305.5,170.3,634.9,105.1,634.9,105.1"/><path class="st0" d="M694.1-103.4C890.3,7.4,1081.9-87.1,1272.8,27.9c177.5,107,329.8,366.8,523.1,475.9
			c304.5,172,634.9,108.9,634.9,108.9"/><path class="st0" d="M693.7-103.2C889.2,8.7,1082.9-84.4,1272.1,31.6c176.6,108.3,327.3,368.3,519.9,478.5
			C2095.6,683.7,2427,622.8,2427,622.8"/><path class="st0" d="M693.2-102.9C888.2,10,1083.9-81.7,1271.5,35.2c175.8,109.6,324.7,369.8,516.8,481.1
			c302.6,175.3,635,116.5,635,116.5"/><path class="st0" d="M692.8-102.7c194.3,114,392.1,23.7,578,141.6c174.9,110.9,322.2,371.4,513.6,483.6
			c301.6,176.9,635,120.3,635,120.3"/><path class="st0" d="M692.3-102.5c193.7,115,393.6,26.2,577.8,145c174.1,112.2,319.7,372.9,510.5,486.2
			c300.7,178.6,635.1,124.1,635.1,124.1"/><path class="st0" d="M691.9-102.2c193.1,116.1,395,28.7,577.6,148.4c173.2,113.6,317.1,374.4,507.3,488.8
			c299.7,180.2,635.1,127.9,635.1,127.9"/><path class="st0" d="M691.4-102c192.4,117.2,396.4,31.2,577.3,151.8c172.3,114.9,314.6,375.9,504.2,491.4
			c298.7,181.9,635.2,131.7,635.2,131.7"/><path class="st0" d="M691-101.8C882.8,16.5,1088.9-68,1268.1,53.5c171.4,116.2,312.1,377.5,501,493.9
			c297.8,183.5,635.2,135.5,635.2,135.5"/><path class="st0" d="M690.5-101.5c191.2,119.3,399.3,36.2,576.9,158.6c170.6,117.6,309.5,379,497.9,496.5
			c296.8,185.2,635.3,139.3,635.3,139.3"/><path class="st0" d="M690.1-101.3c190.6,120.3,400.7,38.8,576.7,162.1c169.7,118.9,307,380.5,494.7,499.1
			C2057.3,746.6,2396.8,703,2396.8,703"/><path class="st0" d="M689.6-101.1c190,121.4,402.2,41.3,576.4,165.5c168.8,120.3,304.5,382,491.6,501.6
			C2052.5,754.5,2393,713,2393,713"/><path class="st0" d="M689.2-100.8c189.3,122.5,403.4,44.1,576.2,168.9c167.7,121.9,301.9,383.6,488.4,504.2
			C2047.7,762.4,2389.2,723,2389.2,723"/><path class="st0" d="M688.7-100.6c188.7,123.5,404.8,46.6,576,172.3c166.8,123.2,299.4,385.1,485.3,506.8
			C2042.9,770.3,2385.5,733,2385.5,733"/><path class="st0" d="M688.3-100.4c188.1,124.6,406.3,49,575.8,175.7c166,124.5,296.8,386.6,482.1,509.4
			c292,193.4,635.5,158.3,635.5,158.3"/><path class="st0" d="M687.8-100.1C875.3,25.5,1095.6-48.6,1263.4,79c165.1,125.8,294.3,388.1,479,511.9
			C2033.4,786,2377.9,753,2377.9,753"/><path class="st0" d="M687.4-99.9c186.8,126.7,409.2,54,575.3,182.5c164.3,127.1,291.8,389.7,475.8,514.5
			c290,196.7,635.6,165.9,635.6,165.9"/></g></g></svg>