<?xml version="1.0" encoding="utf-8"?><!--Generator: Adobe Illustrator 20.1.0, SVG Export Plug-In . SVG Version: 6.00 Build 0)--><svg version="1.1" id="Layer_1" xmlns="http://www.w3.org/2000/svg" xmlns:xlink="http://www.w3.org/1999/xlink" x="0px" y="0px" viewBox="0 0 1920 1080" style="enable-background:new 0 0 1920 1080;" xml:space="preserve"><style type="text/css">.st0{fill:url(#SVGID_1_);stroke:url(#SVGID_2_);stroke-miterlimit:10;} .st1{fill:url(#SVGID_3_);stroke:url(#SVGID_4_);stroke-miterlimit:10;} .st2{fill:url(#SVGID_5_);stroke:url(#SVGID_6_);stroke-miterlimit:10;} .st3{fill:url(#SVGID_7_);stroke:url(#SVGID_8_);stroke-miterlimit:10;} .st4{fill:url(#SVGID_9_);stroke:url(#SVGID_10_);stroke-miterlimit:10;} .st5{fill:url(#SVGID_11_);stroke:url(#SVGID_12_);stroke-miterlimit:10;} .st6{fill:url(#SVGID_13_);stroke:url(#SVGID_14_);stroke-miterlimit:10;} .st7{fill:url(#SVGID_15_);stroke:url(#SVGID_16_);stroke-miterlimit:10;} .st8{fill:url(#SVGID_17_);stroke:url(#SVGID_18_);stroke-miterlimit:10;} .st9{fill:url(#SVGID_19_);stroke:url(#SVGID_20_);stroke-miterlimit:10;} .st10{fill:url(#SVGID_21_);stroke:url(#SVGID_22_);stroke-miterlimit:10;}</style><g><g><g><linearGradient id="SVGID_1_" gradientUnits="userSpaceOnUse" x1="-1.2348" y1="241.4948" x2="1919.8425" y2="241.4948" gradientTransform="matrix(1 0 0 -1 0 1080)"><stop offset="0" style="stop-color:#929497"/><stop offset="0.2546" style="stop-color:#E5E6E7"/><stop offset="0.6296" style="stop-color:#6D6E71"/><stop offset="0.9907" style="stop-color:#BBBDBF"/></linearGradient><linearGradient id="SVGID_2_" gradientUnits="userSpaceOnUse" x1="-1.9329" y1="838.4069" x2="1920.5209" y2="838.4069"><stop offset="0" style="stop-color:#FFFFFF"/><stop offset="1" style="stop-color:#808080"/></linearGradient><path class="st0" d="M592.4,1484.4c-54.6,0-111.5-6-171.7-17.8c-76.1-15.1-121.5-31-188.6-85.9c-36.9-30.2-87.7-76.7-103.7-132.2
				c-37.1-129.7,26.2-246.1,87.3-358.6c67.2-123.6,130.7-240.3,71.7-372.7C234.2,397.7,145.2,298-1.2,193.9l0.9-1.3
				c67.7,48.1,122.3,94.8,167,142.6c53.4,57.2,93.4,116.4,122.4,181.3c26.7,59.7,30.4,122.4,11.2,191.5
				c-17.1,61.7-50.5,123.1-82.9,182.6C156.3,1002.9,93,1118.9,130.1,1248c15.8,55.1,66.5,101.3,103.1,131.3
				c66.8,54.6,111.9,70.5,187.9,85.6c104.4,20.7,198.8,23.4,288.4,8.2c73.3-12.4,140-42.4,193-87c76.2-64,136.3-147.7,186.8-221.1
				c59.1-86.1,129.8-153.2,191.2-207.5c168.6-149.2,365.6-279.4,638.6-422.3l0.8,1.4c-272.9,142.8-469.8,273-638.3,422
				c-61.3,54.2-132,121.2-190.9,207.3c-50.4,73.5-110.7,157.3-187,221.4c-53.2,44.7-120.2,74.9-193.8,87.3
				C671.6,1481.2,632.6,1484.4,592.4,1484.4z"/></g><g><linearGradient id="SVGID_3_" gradientUnits="userSpaceOnUse" x1="-23.2616" y1="228.9148" x2="1924.7798" y2="228.9148" gradientTransform="matrix(1 0 0 -1 0 1080)"><stop offset="0" style="stop-color:#929497"/><stop offset="0.2546" style="stop-color:#E5E6E7"/><stop offset="0.6296" style="stop-color:#6D6E71"/><stop offset="0.9907" style="stop-color:#BBBDBF"/></linearGradient><linearGradient id="SVGID_4_" gradientUnits="userSpaceOnUse" x1="-23.9538" y1="850.9907" x2="1925.3856" y2="850.9907"><stop offset="0" style="stop-color:#FFFFFF"/><stop offset="1" style="stop-color:#808080"/></linearGradient><path class="st1" d="M643,1471.8c-67.2,0-136.1-9.2-209.1-27.7c-69.2-17.7-113.3-35.7-176.8-90.7c-33.5-29-57.1-54.2-74.2-79.5
				c-11.5-17-19.8-33.9-24.9-50.3c-19.7-65-17.1-131.2,8.4-208.2c14.9-45.6,35.7-90.4,55.8-133.8c16-34.6,32.7-70.4,45.8-105.6
				c26.9-72.7,47.9-159.6,0.1-253.1C197,383.9,75.1,294.3-23.3,231.7l0.9-1.3C76,293.1,198.2,382.8,269.4,522.2
				c48,94.1,27,181.3,0,254.4c-13.1,35.2-29.7,71.1-45.8,105.7c-20.1,43.3-40.8,88.1-55.7,133.6c-25.3,76.7-28.1,142.5-8.4,207.3
				c4.9,16.3,13.3,33,24.7,49.9c17,25.1,40.4,50.2,73.9,79.1c63.2,54.8,107.2,72.7,176.1,90.3c95.3,24.3,183.9,32.5,270.7,25.1
				c58.4-5,133.2-16.4,194.9-60.9c23.5-16.9,45-36.9,65.7-61.2c48.2-56.7,88.7-120.5,118.6-169.7c48.9-80.6,107.5-153.6,179.1-223.3
				c92.9-90.3,190.5-163.6,298.3-224c111.2-62.3,229.9-109,363-142.9l0.4,1.5c-258.6,65.9-474.7,185.7-660.5,366.5
				c-71.5,69.6-130,142.5-178.8,223c-29.9,49.3-70.4,113.2-118.8,169.9c-20.7,24.3-42.2,44.4-66,61.4
				c-62,44.6-137.1,56.1-195.7,61.1C684.4,1470.8,663.7,1471.8,643,1471.8z"/></g><g><linearGradient id="SVGID_5_" gradientUnits="userSpaceOnUse" x1="-44.9086" y1="213.3916" x2="1929.9066" y2="213.3916" gradientTransform="matrix(1 0 0 -1 0 1080)"><stop offset="0" style="stop-color:#929497"/><stop offset="0.2546" style="stop-color:#E5E6E7"/><stop offset="0.6296" style="stop-color:#6D6E71"/><stop offset="0.9907" style="stop-color:#BBBDBF"/></linearGradient><linearGradient id="SVGID_6_" gradientUnits="userSpaceOnUse" x1="-45.5803" y1="866.5157" x2="1930.4353" y2="866.5157"><stop offset="0" style="stop-color:#FFFFFF"/><stop offset="1" style="stop-color:#808080"/></linearGradient><path class="st2" d="M744.6,1465c-15.1,0-30-0.7-44.3-1.5c-74.9-4.7-163.6-13.3-253.3-42.1c-71.2-22.8-111.4-46-165-95.4
				c-31.3-28.8-53.5-53.7-70.1-78.6c-11-16.5-19.2-32.9-24.3-48.8c-20.3-62.9-20.4-126.7-0.4-200.8c11.2-41.6,26.7-82.3,41.6-121.8
				c13.7-36.2,27.8-73.5,38.1-110.1c19.4-69.2,32.4-151.5-18-237.3c-73.6-125-195.7-204.1-293.8-259l0.8-1.4
				c98.4,55,220.6,134.2,294.4,259.6c50.7,86.3,37.7,169,18.2,238.5c-10.3,36.7-24.4,74.2-38.2,110.3
				c-14.9,39.4-30.3,80.1-41.5,121.6c-19.9,73.9-19.7,137.4,0.4,199.9c5.1,15.7,13.2,32,24.1,48.4c16.4,24.7,38.5,49.6,69.8,78.3
				c53.5,49.3,93.4,72.3,164.4,95c89.6,28.7,178.1,37.3,252.9,42c62.8,3.9,135.2,2.8,196.7-34.7c25.1-15.3,47.4-35.3,68.1-61.5
				c49.1-62,88.4-132,113.7-179.2c50.9-95.1,105.5-173.3,166.9-239.1c184.5-197.6,401.8-296.6,683.9-311.4l0.1,1.6
				c-281.7,14.8-498.6,113.6-682.8,310.8c-61.3,65.7-115.8,143.7-166.6,238.7c-25.3,47.3-64.8,117.3-113.9,179.3
				c-20.8,26.3-43.2,46.5-68.5,61.9C850.1,1457.7,795.8,1465,744.6,1465z"/></g><g><linearGradient id="SVGID_7_" gradientUnits="userSpaceOnUse" x1="-67.1123" y1="190.368" x2="1934.9058" y2="190.368" gradientTransform="matrix(1 0 0 -1 0 1080)"><stop offset="0" style="stop-color:#929497"/><stop offset="0.2546" style="stop-color:#E5E6E7"/><stop offset="0.6296" style="stop-color:#6D6E71"/><stop offset="0.9907" style="stop-color:#BBBDBF"/></linearGradient><linearGradient id="SVGID_8_" gradientUnits="userSpaceOnUse" x1="-56.4219" y1="889.4822" x2="1935.4943" y2="889.4822"><stop offset="0" style="stop-color:#FFFFFF"/><stop offset="1" style="stop-color:#808080"/></linearGradient><path class="st3" d="M1511.3,732c-106.4,42.3-199,111.2-283,210.6c-69,81.7-119,179.1-154.8,254.8
				c-37.2,78.5-71.9,138.4-108.9,188.6c-20.9,28.2-44,48.5-70.4,61.8c-53.2,27.1-115.5,19-170.4,12c-9.8-1.2-19-2.5-28.2-3.4
				c-80.6-8.8-157.6-28.1-235.2-58.9c-64.2-25.4-102.7-50.6-152.8-99.9c-29.1-28.6-49.9-53.2-65.7-77.5
				c-10.5-16.2-18.3-31.6-23.6-46.9c-20.8-60.8-23.7-122-9.2-192.5c7.7-37.1,18.1-73.5,28.3-108.6c11.5-39.9,22.4-77.5,29.4-116
				c12.1-66,17.1-144-36.5-222.6C157.2,426,45.7,360.6-55.9,311.1v1.8C45.3,362.3,156.3,427.5,229,534.2
				c53.3,78.1,48.1,155.8,36.2,221.4c-7,38.5-17.8,76-29.3,115.9c-10.2,35.1-20.7,71.5-28.3,108.7c-14.6,70.9-11.7,132.4,9.3,193.4
				c5.3,15.5,13.1,30.9,23.7,47.3c15.9,24.4,36.8,49.1,65.9,77.8c50.2,49.4,89,74.6,153.3,100.2c77.8,30.9,154.8,50.1,235.6,59.1
				c9.2,1,18.4,2.2,28.2,3.4c25.9,3.3,53.5,6.8,80.9,6.8c31,0,62-4.6,90.5-19c26.8-13.5,49.9-33.9,71-62.4
				c37.1-50.2,71.8-110.2,109.1-188.8c35.7-75.7,85.6-173,154.6-254.4c176.9-209.1,394.3-287.9,705.1-255.3l0.2-1.6
				C1770.1,669.3,1631.6,684.2,1511.3,732z"/></g><g><linearGradient id="SVGID_9_" gradientUnits="userSpaceOnUse" x1="-89.0427" y1="161.3154" x2="1940.1067" y2="161.3154" gradientTransform="matrix(1 0 0 -1 0 1080)"><stop offset="0" style="stop-color:#929497"/><stop offset="0.2546" style="stop-color:#E5E6E7"/><stop offset="0.6296" style="stop-color:#6D6E71"/><stop offset="0.9907" style="stop-color:#BBBDBF"/></linearGradient><linearGradient id="SVGID_10_" gradientUnits="userSpaceOnUse" x1="-56.232" y1="918.5582" x2="1940.8574" y2="918.5582"><stop offset="0" style="stop-color:#FFFFFF"/><stop offset="1" style="stop-color:#808080"/></linearGradient><path class="st4" d="M1486.4,734c-107.1,34.6-197.2,101.1-275.4,203.7c-61,79.8-103.9,177.4-142.6,270.6
				c-34.5,82.5-67.5,145.4-104.1,198c-21.1,30.4-44.9,50.8-72.8,62.2c-52,21.6-111.4,5.7-163.7-8.4c-12.9-3.4-25.1-6.6-36.7-9.3
				c-77.1-17.3-148.2-42.1-217.3-75.9c-57.4-28-94.4-55.4-141.1-104.6c-26.9-28.3-46.4-52.7-61.6-76.6c-10.2-16-17.8-31-23.1-45.5
				c-21.4-58.1-27.2-118.7-18-185.2c4.4-31.7,10.4-62.8,16.3-92.8c8.4-42.8,16.3-83.4,19.5-124.6c6.8-88.2-9.6-150-54.7-206.7
				C141.2,451.1,39.8,397.2-55.7,357v1.7c95,40.1,196,93.8,265.5,181.1c44.9,56.4,61.1,117.8,54.4,205.6
				c-3.1,41.1-11.1,81.6-19.5,124.4c-5.9,30-12,61-16.3,92.9c-9.3,66.7-3.3,127.6,18.1,186c5.4,14.6,13,29.6,23.3,45.8
				c15.3,24,34.8,48.5,61.8,76.9c46.8,49.4,83.9,76.8,141.6,104.9c69.3,33.8,140.5,58.6,217.7,76c11.7,2.7,23.8,5.9,36.7,9.3
				c34,9.1,70.8,18.9,106.8,18.9c19.7,0,39.3-2.9,57.9-10.7c28.2-11.6,52.2-32.1,73.5-62.8c36.6-52.7,69.7-115.7,104.2-198.2
				c38.7-93,81.6-190.6,142.4-270.2c165.1-216.3,389.5-277.9,727.5-199.9l0.4-1.6C1758.3,695.1,1609.9,694.1,1486.4,734z"/></g><g><linearGradient id="SVGID_11_" gradientUnits="userSpaceOnUse" x1="-110.9668" y1="131.9305" x2="1945.2856" y2="131.9305" gradientTransform="matrix(1 0 0 -1 0 1080)"><stop offset="0" style="stop-color:#929497"/><stop offset="0.2546" style="stop-color:#E5E6E7"/><stop offset="0.6296" style="stop-color:#6D6E71"/><stop offset="0.9907" style="stop-color:#BBBDBF"/></linearGradient><linearGradient id="SVGID_12_" gradientUnits="userSpaceOnUse" x1="-56.2321" y1="947.9667" x2="1946.0057" y2="947.9667"><stop offset="0" style="stop-color:#FFFFFF"/><stop offset="1" style="stop-color:#808080"/></linearGradient><path class="st5" d="M1461.6,736c-57.6,14.4-108,38.5-154.1,73.7c-41.7,31.8-78.9,72-113.8,123c-55.3,80.6-91.6,180-130.1,285.3
				l-0.4,1c-31.8,86.8-63.3,152.7-99.2,207.4c-21.4,32.7-46,53.1-75.2,62.6c-53,17.3-111.8-7-163.8-28.6
				c-13.6-5.6-26.5-10.9-38.5-15.2c-72.8-25.7-138-56.1-199.6-92.8c-50.9-30.4-86-60-129.4-109.4c-24.3-27.7-43.2-52.5-57.5-75.9
				c-9.7-15.8-17.1-30.1-22.5-44c-22.3-56.9-31.1-115.1-26.9-177.9c1.7-24.8,4.1-49,6.4-72.4c4.7-47.5,9.1-92.3,7.5-137.6
				c-2.9-82.6-24.8-139.7-72.9-190.8C124.8,473.8,35.6,431.8-55.7,399.7v1.7c91,32,179.8,74,246.1,144.2
				c47.9,50.8,69.6,107.6,72.5,189.8c1.6,45.2-2.8,89.9-7.5,137.4c-2.3,23.5-4.7,47.8-6.4,72.5c-4.3,63,4.6,121.5,27,178.6
				c5.5,14,12.9,28.4,22.7,44.2c14.4,23.5,33.3,48.2,57.7,76c43.5,49.6,78.7,79.3,129.8,109.7c61.6,36.7,126.9,67.1,199.9,92.9
				c12.1,4.3,24.9,9.6,38.5,15.2c39.8,16.4,83.5,34.6,125.8,34.6c13.2,0,26.3-1.8,39.1-6c29.6-9.5,54.5-30.2,76-63.2
				c35.9-54.9,67.5-120.9,99.3-207.7l0.4-1c38.5-105.2,74.7-204.5,129.9-284.9c152.5-222.3,383.8-266.7,749.9-144.3l0.5-1.5
				C1746.4,721.3,1588.1,704.3,1461.6,736z"/></g><g><linearGradient id="SVGID_13_" gradientUnits="userSpaceOnUse" x1="-132.8849" y1="103.59" x2="1950.4636" y2="103.59" gradientTransform="matrix(1 0 0 -1 0 1080)"><stop offset="0" style="stop-color:#929497"/><stop offset="0.2546" style="stop-color:#E5E6E7"/><stop offset="0.6296" style="stop-color:#6D6E71"/><stop offset="0.9907" style="stop-color:#BBBDBF"/></linearGradient><linearGradient id="SVGID_14_" gradientUnits="userSpaceOnUse" x1="-56.422" y1="976.3311" x2="1951.2656" y2="976.3311"><stop offset="0" style="stop-color:#FFFFFF"/><stop offset="1" style="stop-color:#808080"/></linearGradient><path class="st6" d="M1436.9,738.1c-110.7,20.1-193.6,80.3-260.6,189.6c-46.8,76.1-76.4,170-107.9,269.4
				c-3.4,10.9-6.9,21.8-10.4,32.8c-29.2,91.2-59.2,160.2-94.4,216.8c-21.6,34.9-47,55.5-77.6,62.9c-55.4,13.6-117.8-21.8-168.1-50.2
				c-12.8-7.2-25-14.1-36.1-19.7c-67.5-33.8-126.9-69.7-181.8-109.7c-44.5-32.5-77.6-64.5-117.7-114.1c-22.1-27.4-39.7-51.9-53.5-75
				c-9.3-15.5-16.5-29.3-22-42.4c-23.5-56.1-35.2-111.8-35.7-170.5c-0.1-15-0.1-29.8-0.1-44.1c0.1-55,0.2-106.9-8-158.6
				c-12.1-76-40.2-129.9-91.2-174.9c-65.1-57.4-147.4-89.3-227.7-111.7v1.7c80.1,22.1,162,53.9,226.8,111
				c50.7,44.7,78.7,98.4,90.7,173.9c8.2,51.6,8.1,103.4,8,158.4c0,14.3-0.1,29.1,0.1,44.1c0.5,58.9,12.2,114.9,35.8,171.2
				c5.5,13.2,12.7,27.2,22.1,42.7c13.9,23.1,31.4,47.7,53.6,75.2c40.3,49.8,73.3,81.8,118,114.4c55,40,114.5,76,182,109.8
				c11.1,5.6,23.2,12.4,36,19.7c42.8,24.2,94.5,53.5,143.3,53.5c8.7,0,17.5-0.9,26-3c31-7.5,56.7-28.3,78.5-63.6
				c35.1-56.8,65.1-125.8,94.5-217.2c3.5-10.9,6.9-21.9,10.4-32.8c31.4-99.2,61-192.9,107.8-269c66.8-108.8,149.3-168.9,259.6-188.8
				c129.1-23.5,296.8,9.3,512.7,100.1l0.7-1.5C1734.3,747.4,1566.3,714.6,1436.9,738.1z"/></g><g><linearGradient id="SVGID_15_" gradientUnits="userSpaceOnUse" x1="-154.798" y1="76.4362" x2="1955.6067" y2="76.4362" gradientTransform="matrix(1 0 0 -1 0 1080)"><stop offset="0" style="stop-color:#929497"/><stop offset="0.2546" style="stop-color:#E5E6E7"/><stop offset="0.6296" style="stop-color:#6D6E71"/><stop offset="0.9907" style="stop-color:#BBBDBF"/></linearGradient><linearGradient id="SVGID_16_" gradientUnits="userSpaceOnUse" x1="-56.4221" y1="1003.5076" x2="1956.2249" y2="1003.5076"><stop offset="0" style="stop-color:#FFFFFF"/><stop offset="1" style="stop-color:#808080"/></linearGradient><path class="st7" d="M1412.3,740.2c-112,12.9-192.5,70.9-253.4,182.5c-40.3,73.9-64.8,164.8-90.7,261.1
				c-5,18.6-10.2,37.8-15.5,56.8c-26.8,96-55.2,167.9-89.4,226.2c-21.9,37.3-48,58-79.9,63.2c-59.1,10-124-37.1-176.1-74.9
				c-10.6-7.7-20.7-15-29.9-21.2c-60.8-40.8-114.4-82.2-164.1-126.6c-38.4-34.3-69-68.7-106.1-118.9c-19.9-27.1-36.2-51.4-49.5-74.2
				c-9-15.5-15.9-28.6-21.5-41c-25.2-56-39.7-109.5-44.5-163.2c-6.4-71.4-11.8-133-30-195.4c-20.5-70.4-54.2-119.4-109.5-158.9
				c-60.9-43.6-134.8-67-208.2-82v1.6c73.1,15,146.7,38.4,207.3,81.7c54.9,39.3,88.4,88.1,108.8,158.1
				c18.1,62.3,23.6,123.8,29.9,195.1c4.7,53.9,19.4,107.6,44.6,163.8c5.6,12.5,12.4,25.6,21.6,41.2c13.3,22.9,29.5,47.2,49.6,74.3
				c37,50.2,67.8,84.8,106.2,119.2c49.7,44.4,103.4,85.9,164.3,126.7c9.1,6.2,19.2,13.4,29.8,21.2c47.5,34.5,105.6,76.5,160.5,76.5
				c5.6,0,11.2-0.5,16.8-1.4c32.4-5.3,59-26.3,81.1-64c34.4-58.6,62.9-130.5,89.6-226.6c5.3-19,10.4-38.3,15.5-56.8
				c25.9-96.2,50.3-187,90.6-260.7c90.5-165.8,255.6-299.4,794.6-33.2l0.8-1.4C1722.2,773.6,1544.4,725,1412.3,740.2z"/></g><g><linearGradient id="SVGID_17_" gradientUnits="userSpaceOnUse" x1="-176.7068" y1="51.2289" x2="1960.7542" y2="51.2289" gradientTransform="matrix(1 0 0 -1 0 1080)"><stop offset="0" style="stop-color:#929497"/><stop offset="0.2546" style="stop-color:#E5E6E7"/><stop offset="0.6296" style="stop-color:#6D6E71"/><stop offset="0.9907" style="stop-color:#BBBDBF"/></linearGradient><linearGradient id="SVGID_18_" gradientUnits="userSpaceOnUse" x1="-56.2321" y1="1028.7366" x2="1961.3403" y2="1028.7366"><stop offset="0" style="stop-color:#FFFFFF"/><stop offset="1" style="stop-color:#808080"/></linearGradient><path class="st8" d="M1561.2,764.6c-101.7-27.2-183.5-30-250.4-8.8c-73.6,23.4-127.4,74.8-169.3,162
				c-34.9,72.6-55.1,162-76.3,256.7c-5.7,25.2-11.5,51.2-17.7,76.9c-24.5,102.2-50.6,174.8-84.6,235.6
				c-22.1,39.7-49.1,60.5-82.3,63.6c-64.9,6.3-139.1-60.5-188.2-104.6c-7-6.3-13.7-12.2-19.7-17.6
				c-51.9-45.2-101.1-93.4-146.2-143.6c-32.2-35.7-60.4-72.7-94.4-123.7c-17.8-26.7-32.6-50.6-45.4-73.4
				c-6-10.6-13.9-24.8-20.9-39.5C338,990.4,321,940.9,312.6,892.4c-10.4-59.8-24-124-51.9-188.1c-28-64.3-68.6-109.8-127.7-143.1
				c-57.2-32.1-122.1-47.9-188.7-56.5v1.6c66.4,8.6,131,24.3,187.8,56.3C190.8,595.8,231.2,641,259,705
				c27.9,64,41.4,128.1,51.8,187.8c8.4,48.6,25.4,98.3,53.5,156.3c7.1,14.7,14.9,29,21,39.6c12.8,22.8,27.6,46.8,45.4,73.5
				c34,51.1,62.2,88.1,94.5,123.9c45.2,50.1,94.5,98.5,146.4,143.6c6.1,5.3,12.7,11.2,19.7,17.6c47.1,42.3,117.2,105.5,180.6,105.5
				c2.9,0,5.9-0.1,8.8-0.4c33.3-3.1,61.4-24.9,83.5-64.5c34.1-61,60.2-133.9,84.8-236.1c6.2-25.7,12-51.7,17.7-76.9
				c21.3-94.6,41.4-183.9,76.2-256.3c41.8-86.7,95.2-138,168.3-161.1c66.6-21.1,148.1-18.2,249.5,8.8
				c110.3,29.4,240.9,86.6,399.1,174.6l0.8-1.4C1802.4,851.2,1671.7,794.1,1561.2,764.6z"/></g><g><linearGradient id="SVGID_19_" gradientUnits="userSpaceOnUse" x1="-198.6813" y1="27.5881" x2="1965.8994" y2="27.5881" gradientTransform="matrix(1 0 0 -1 0 1080)"><stop offset="0" style="stop-color:#929497"/><stop offset="0.2546" style="stop-color:#E5E6E7"/><stop offset="0.6296" style="stop-color:#6D6E71"/><stop offset="0.9907" style="stop-color:#BBBDBF"/></linearGradient><linearGradient id="SVGID_20_" gradientUnits="userSpaceOnUse" x1="-56.2321" y1="1052.3973" x2="1966.479" y2="1052.3973"><stop offset="0" style="stop-color:#FFFFFF"/><stop offset="1" style="stop-color:#808080"/></linearGradient><path class="st9" d="M1533,776.1c-107.2-34.4-191.6-40.5-258-19.2c-67.5,21.8-115.5,71.3-151,155.9
				c-30.2,71.9-46.5,160.5-63.7,254.4c-5.7,31-11.6,63.1-18,94.9c-14.7,72.1-37.1,165-79.8,245.1c-22.1,41.5-50.6,62.9-84.7,64
				c-0.9,0-1.7,0-2.6,0c-73.5,0-157.6-93.3-203-143.6l-4.2-4.7c-43.9-48.6-85.9-101.1-128.5-160.5c-26.4-36.8-51.2-75.3-82.6-128.5
				c-15.3-25.7-28.8-49.5-41.3-72.5l-1.3-2.4c-6.4-11.7-12.9-23.7-19.1-35.7c-28-54.1-49.3-100.2-62.2-148.6
				c-18.5-69.5-42.1-126.9-73.9-180.8c-35.2-59.1-82.9-100.6-145.9-127.1C60.8,544.8,3.1,535.4-55.7,532v1.6
				c58.7,3.3,116.1,12.7,168.4,34.7c62.7,26.4,110.1,67.8,145.2,126.5c31.8,53.7,55.2,111,73.8,180.4c13,48.5,34.3,94.7,62.3,148.9
				c6.2,12,12.8,24,19.1,35.7l1.3,2.4c12.5,23.1,26,46.8,41.3,72.6c31.5,53.3,56.3,91.7,82.7,128.6
				c42.6,59.4,84.6,111.9,128.6,160.5l4.2,4.7c45.6,50.6,130,144.2,204.2,144.2c0.9,0,1.7,0,2.6,0c34.7-0.9,63.7-22.8,86.1-64.8
				c42.7-80.2,65.1-173.4,79.9-245.5c6.5-31.7,12.3-63.9,18-94.9c17.2-93.8,33.5-182.4,63.6-254.2c35.3-84,83-133.3,150-154.9
				c66-21.4,150.1-15.1,256.9,19.2c117,37.4,258.4,107.3,432.5,213.6l0.9-1.4C1791.8,883.5,1650.1,813.6,1533,776.1z"/></g><g><linearGradient id="SVGID_21_" gradientUnits="userSpaceOnUse" x1="-220.7409" y1="5.561" x2="1971.0208" y2="5.561" gradientTransform="matrix(1 0 0 -1 0 1080)"><stop offset="0" style="stop-color:#929497"/><stop offset="0.2546" style="stop-color:#E5E6E7"/><stop offset="0.6296" style="stop-color:#6D6E71"/><stop offset="0.9907" style="stop-color:#BBBDBF"/></linearGradient><linearGradient id="SVGID_22_" gradientUnits="userSpaceOnUse" x1="-56.3271" y1="1074.439" x2="1971.6099" y2="1074.439"><stop offset="0" style="stop-color:#FFFFFF"/><stop offset="1" style="stop-color:#808080"/></linearGradient><path class="st10" d="M1223.4,764.1c-54.4,24.4-92.3,72.5-119.4,151.5c-24.1,70.2-36.6,155.3-49.7,245.5
				c-18.6,127.6-37.8,259.5-92.2,366.4c-20.4,40.2-46.8,61.8-78.3,64.2c-78.7,6-171.9-106.6-220.5-174.2
				c-74.5-104-134.3-219.4-192.2-331.1c-8.8-17.1-17.8-34.3-26.7-51.4c-9.4-18-19.7-36.3-29.6-53.9c-22.4-39.9-45.7-81.2-61.2-123.9
				c-23.2-63.3-53.6-118.5-95.9-173.5C178,579.9,65.3,553.6-55.8,555.5v1.6c120.8-1.9,233.1,24.3,312.4,127.6
				c42.2,54.9,72.5,109.8,95.6,173.1c15.7,42.8,38.9,84.1,61.4,124.1c9.9,17.7,20.1,35.9,29.6,53.9c8.9,17.1,17.8,34.2,26.7,51.3
				c57.8,111.7,117.6,227.2,192.3,331.3c47.5,66.2,137.6,175.2,215.7,175.2c2.1,0,4.2-0.1,6.2-0.2c32.1-2.5,58.9-24.3,79.6-65
				c54.5-107.1,73.8-239.2,92.4-366.9c13.1-90.1,25.5-175.2,49.6-245.2c27-78.5,64.7-126.4,118.6-150.6
				c132.4-59.4,369.4,28.3,746,276.2l0.9-1.3C1594,792.3,1356.5,704.4,1223.4,764.1z"/></g></g></g></svg>