<?xml version="1.0" encoding="utf-8"?><!--Generator: Adobe Illustrator 20.1.0, SVG Export Plug-In . SVG Version: 6.00 Build 0)--><svg version="1.1" id="Layer_1" xmlns="http://www.w3.org/2000/svg" xmlns:xlink="http://www.w3.org/1999/xlink" x="0px" y="0px" viewBox="0 0 1920 1080" style="enable-background:new 0 0 1920 1080;" xml:space="preserve"><style type="text/css">.st0{fill:none;stroke:#aaa;stroke-miterlimit:10;}</style><g><path class="st0" d="M1379,1256.1c-135.4-53.1-250.3-226-444.1-302c-193.8-75.9-396.5,10.8-598.3-68.3
		C156,815.1,9.5,578.6-8.9,389.9"/><path class="st0" d="M1378.4,1259.9c-136.2-55-246.2-229.9-440.1-306.6c-194.5-77.1-400.9,16.7-608.1-62.9
		C145,819.2-0.7,580.3-18.4,397.7"/><path class="st0" d="M1377.9,1263.7c-136.9-57-242.2-233.7-436-311.2C746.7,874.3,536.5,975.1,324,895
		C134,823.3-10.8,582.1-28,405.6"/><path class="st0" d="M1377.3,1267.5c-137.7-59-238.1-237.5-431.9-315.8c-195.9-79.3-409.8,28.6-627.6-52.2
		C123,827.3-21,583.8-37.6,413.4"/><path class="st0" d="M1376.7,1271.2c-138.5-61-234-241.3-427.9-320.4c-196.5-80.4-414.2,34.5-637.4-46.8
		C112,831.4-31.1,585.5-47.1,421.2"/><path class="st0" d="M1376.2,1275c-139.2-63-229.9-245.2-423.8-325c-197.2-81.5-418.6,40.4-647.2-41.4
		C100.9,835.5-41.3,587.2-56.7,429"/><path class="st0" d="M1375.6,1278.8c-140-65-225.8-249-419.8-329.6c-197.9-82.6-423,46.4-656.9-36.1
		C89.9,839.5-51.4,588.9-66.2,436.8"/><path class="st0" d="M1375,1282.6c-140.7-67-221.7-252.8-415.7-334.2c-198.6-83.7-427.4,52.3-666.7-30.7
		C78.9,843.6-61.6,590.7-75.8,444.6"/><path class="st0" d="M1374.5,1286.4c-141.5-69-217.6-256.7-411.6-338.8c-199.3-84.9-431.8,58.2-676.5-25.3
		C67.9,847.7-71.7,592.4-85.4,452.4"/><path class="st0" d="M1373.9,1290.2c-142.3-71-213.6-260.5-407.6-343.4c-199.9-86-436.3,64.1-686.3-19.9
		c-223.2-75.1-362-332.7-375-466.6"/><path class="st0" d="M1373.3,1293.9c-143-73-209.5-264.3-403.5-348c-200.6-87.1-440.7,70.1-696-14.6
		C45.9,855.8-92.1,595.8-104.5,468"/><path class="st0" d="M1372.8,1297.7c-143.8-75-205.4-268.1-399.4-352.6c-201.3-88.2-445.1,76-705.8-9.2
		C34.9,859.9-102.2,597.6-114,475.8"/><path class="st0" d="M1372.2,1301.5c-144.6-77-201.3-272-395.4-357.2c-202-89.3-449.5,81.9-715.6-3.8
		C23.9,863.9-112.4,599.3-123.6,483.6"/><path class="st0" d="M1371.6,1305.3c-145.3-79-197.2-275.8-391.3-361.8c-202.7-90.4-453.9,87.9-725.3,1.5
		C12.9,868-122.5,601-133.2,491.4"/><path class="st0" d="M1371.1,1309.1c-146.1-81-193.1-279.6-387.2-366.4c-203.3-91.5-458.3,93.8-735.1,6.9
		C1.8,872-132.7,602.7-142.7,499.3"/><path class="st0" d="M1370.5,1312.9c-146.8-83-189-283.4-383.2-371c-204-92.7-462.7,99.7-744.9,12.3
		c-251.6-78-385.3-349.7-394.7-447.1"/><path class="st0" d="M1369.9,1316.7c-147.6-84.9-185-287.3-379.1-375.6c-204.7-93.8-467.2,105.6-754.7,17.6
		c-256.3-78.5-389.1-352.5-398-443.8"/><path class="st0" d="M1369.4,1320.4c-148.4-86.9-180.9-291.1-375-380.2c-205.4-94.9-471.6,111.6-764.4,23
		c-261.1-79-393-355.3-401.3-440.6"/><path class="st0" d="M1368.8,1324.2c-149.1-88.9-176.8-294.9-371-384.8c-206.1-96-476,117.5-774.2,28.4
		C-42.2,888.3-173.3,609.6-181,530.5"/><path class="st0" d="M1368.2,1328c-149.9-90.9-172.7-298.8-366.9-389.4c-206.8-97.1-480.4,123.4-784,33.8
		c-270.6-80-400.8-361-407.9-434"/><path class="st0" d="M1367.7,1331.8c-150.6-92.9-168.6-302.6-362.8-394c-207.4-98.2-484.8,129.4-793.7,39.1
		c-275.3-80.4-404.6-363.8-411.2-430.8"/><path class="st0" d="M1367.1,1335.6c-151.4-94.9-164.5-306.4-358.8-398.6c-208.1-99.3-489.2,135.3-803.5,44.5
		c-280-80.9-408.5-366.7-414.4-427.5"/><path class="st0" d="M1366.5,1339.4c-152.2-96.9-160.4-310.2-354.7-403.2C803,835.7,518.2,1077.3,198.5,986
		c-284.8-81.4-412.4-369.5-417.7-424.3"/><path class="st0" d="M1366,1343.1c-152.9-98.9-156.4-314.1-350.6-407.8c-209.5-101.6-498.1,147.1-823.1,55.2
		c-289.5-81.9-416.3-372.3-421-421"/><path class="st0" d="M1365.4,1346.9c-153.7-100.9-152.3-317.9-346.6-412.4C808.7,831.8,516.3,1087.6,186,995.1
		c-294.2-82.4-420.2-375.1-424.3-417.8"/><path class="st0" d="M1364.8,1350.7c-154.5-102.9-148.2-321.7-342.5-417c-210.8-103.8-506.9,159-842.6,66
		c-299-82.9-424-378-427.6-414.5"/><path class="st0" d="M1364.3,1354.5c-155.2-104.9-144.1-325.5-338.5-421.6c-211.5-104.9-511.3,164.9-852.4,71.3
		C-130.3,920.8-254.5,623.4-257.4,593"/><path class="st0" d="M1363.7,1358.3c-156-106.9-140-329.4-334.4-426.2c-212.2-106-515.7,170.9-862.1,76.7
		c-308.5-83.8-431.8-383.6-434.2-408"/><path class="st0" d="M1363.1,1362.1c-156.7-108.9-135.9-333.2-330.3-430.8c-212.9-107.1-520.1,176.8-871.9,82.1
		C-152.3,929-274.8,626.8-276.6,608.6"/><path class="st0" d="M1362.6,1365.8c-157.5-110.9-131.8-337-326.3-435.4c-213.6-108.3-524.5,182.7-881.7,87.4
		C-163.3,933-284.9,628.6-286.1,616.4"/><path class="st0" d="M1362,1369.6c-158.3-112.9-127.8-340.8-322.2-440c-214.2-109.4-529,188.6-891.5,92.8
		c-322.7-85.3-443.4-392.1-444-398.2"/><path class="st0" d="M1361.4,1373.4c-159-114.8-123.7-344.7-318.1-444.6c-214.9-110.5-533.4,194.6-901.2,98.2
		c-327.4-85.8-447.3-395-447.3-395"/></g></svg>