<?xml version="1.0" encoding="utf-8"?>
<!-- Generator: Adobe Illustrator 21.0.0, SVG Export Plug-In . SVG Version: 6.00 Build 0)  -->
<svg version="1.1" id="Layer_1" xmlns="http://www.w3.org/2000/svg" xmlns:xlink="http://www.w3.org/1999/xlink" x="0px" y="0px"
	 viewBox="0 0 1920 1080" style="enable-background:new 0 0 1920 1080;" xml:space="preserve">
<style type="text/css">
	.st0{opacity:0.5;}
	.st1{fill:none;stroke:#643C9E;stroke-width:2;stroke-miterlimit:10;}
</style>
<g>
	<g>
		<g>
			<g class="st0">
				<path class="st1" d="M1154.1,1080c131.6-169,265.2-341.1,420.3-445.9c114.7-77.4,232.6-132.2,345.6-170.7"/>
				<path class="st1" d="M1143.3,1080c132.3-171.8,266.5-347.7,423.2-454.8c117.2-80.1,237.9-136.4,353.5-175.7"/>
				<path class="st1" d="M1132.4,1080c133.1-174.6,267.8-354.4,426.1-463.9c119.7-82.8,243.4-140.6,361.5-180.8"/>
				<path class="st1" d="M1121.9,1080c133.8-177.3,268.9-361,428.7-472.9c122.2-85.5,248.8-144.8,369.4-185.8"/>
				<path class="st1" d="M1111.4,1080c134.4-180,269.9-367.8,431.4-482c124.6-88.2,254.1-149.1,377.2-190.9"/>
				<path class="st1" d="M1101.1,1080c135.1-182.7,270.9-374.3,433.8-491c127.1-91,259.6-153.4,385.1-196"/>
				<path class="st1" d="M1091.1,1080c135.6-185.4,271.5-381,435.9-500.1c129.6-93.8,265-157.8,393-201.2"/>
				<path class="st1" d="M1081,1080c136.2-188,272.3-387.6,438.1-509.1c132-96.7,270.4-162.3,400.9-206.5"/>
				<path class="st1" d="M1071.1,1080c136.7-190.6,273-394.3,440.2-518.1c134.4-99.7,275.8-166.8,408.7-211.9"/>
				<path class="st1" d="M1061.1,1080c137.2-193.2,273.6-400.9,442.3-527.2c136.9-102.6,281.3-171.3,416.6-217.2"/>
				<path class="st1" d="M1051.3,1080c137.6-195.8,274.2-407.4,444.2-536.2c139.3-105.6,286.8-175.9,424.5-222.7"/>
				<path class="st1" d="M1041.6,1080c138.1-198.3,274.5-413.9,446-545.2c141.8-108.6,292.2-180.6,432.4-228.2"/>
				<path class="st1" d="M1032.2,1080c138.5-200.7,274.8-420.4,447.5-554.2C1623.8,414,1777.4,340.4,1920,292"/>
				<path class="st1" d="M1022.6,1080c138.9-203.3,275.2-427,449.1-563.3C1618.3,401.8,1775,326.5,1920,277.2"/>
				<path class="st1" d="M1013.2,1080c139.3-205.7,275.3-433.4,450.6-572.3c149-118.1,308.9-195.1,456.2-245.1"/>
				<path class="st1" d="M1004,1080c139.7-208.1,275.4-439.9,451.9-581.3c151.4-121.4,314.4-200,464.1-251"/>
				<path class="st1" d="M994.9,1080c140.1-210.5,275.5-446.4,453.2-590.5C1601.8,364.9,1768,284.6,1920,232.8"/>
				<path class="st1" d="M985.8,1080c140.4-212.9,275.4-452.7,454.4-599.5c156-127.9,325.5-210,479.8-262.5"/>
				<path class="st1" d="M976.8,1080c140.7-215.3,275.3-459.3,455.6-608.6c158.4-131.3,331.1-215.1,487.7-268.5"/>
				<path class="st1" d="M968,1080c141-217.6,275.2-465.5,456.4-617.5C1585.1,327.8,1761.2,242.3,1920,188"/>
				<path class="st1" d="M959.2,1080c141.3-219.9,274.9-471.9,457.3-626.6c163-138.2,342.4-225.4,503.5-280.5"/>
				<path class="st1" d="M950.5,1080C1092,857.8,1225,601.7,1408.6,444.4c165.3-141.7,348.1-230.7,511.4-286.7"/>
				<path class="st1" d="M941.7,1080c141.8-224.5,274.3-484.7,459-644.7C1568.3,290,1754.5,199.2,1920,142.5"/>
				<path class="st1" d="M933.2,1080c142-226.7,273.8-491,459.6-653.7c169.9-148.9,359.6-241.5,527.2-299.1"/>
				<path class="st1" d="M924.9,1080c142.2-228.9,273.2-497.2,459.9-662.7c172.2-152.6,365.4-247.1,535.2-305.5"/>
				<path class="st1" d="M916.5,1080c142.5-231.2,272.6-503.5,460.4-671.8c174.5-156.3,371.2-252.6,543.1-311.8"/>
				<path class="st1" d="M908.3,1080C1051,846.7,1180.2,570.3,1369,399.3c176.8-160.1,377.1-258.2,551-318.3"/>
				<path class="st1" d="M899.8,1080c142.9-235.6,271.5-516,461.3-689.8c179-163.9,383-263.9,558.9-324.8"/>
				<path class="st1" d="M891.9,1080c143.1-237.7,270.6-522.2,461.4-698.8c181.2-167.8,388.8-269.7,566.7-331.4"/>
				<path class="st1" d="M883.8,1080c143.2-239.9,269.7-528.5,461.6-708C1528.9,200.4,1740.1,96.6,1920,34.1"/>
				<path class="st1" d="M876.1,1080c143.5-242,268.7-534.5,461.4-716.9C1523.2,187.4,1738.2,81.7,1920,18.4"/>
				<path class="st1" d="M868.4,1080C1012,835.9,1136,539.2,1329.6,354C1517.5,174.3,1736.4,66.6,1920,2.6"/>
			</g>
		</g>
	</g>
</g>
</svg>
