<?xml version="1.0" encoding="utf-8"?><!--Generator: Adobe Illustrator 20.1.0, SVG Export Plug-In . SVG Version: 6.00 Build 0)--><svg version="1.1" id="Layer_1" xmlns="http://www.w3.org/2000/svg" xmlns:xlink="http://www.w3.org/1999/xlink" x="0px" y="0px" viewBox="0 0 1920 1080" style="enable-background:new 0 0 1920 1080;" xml:space="preserve"><style type="text/css">.st0{fill:none;stroke:#6E6D68;stroke-miterlimit:10;}</style><g><g><path class="st0" d="M707.1,1179.6c206.1-93.8,364.1,22.6,582.3-76.7c190.8-86.8,370.4-342.4,573.5-434.7
			C2182.8,522.6,2497,620,2497,620"/><path class="st0" d="M706.6,1179.4c205.5-94.9,365.5,20.1,582-80.1c189.9-88.1,367.9-343.9,570.3-437.3
			c319-147.2,634.2-52,634.2-52"/><path class="st0" d="M706.2,1179.2c204.9-95.9,367,17.6,581.8-83.5c189.1-89.4,365.3-345.4,567.2-439.9
			c318.1-148.9,634.3-55.8,634.3-55.8"/><path class="st0" d="M705.7,1178.9c204.3-97,368.4,15.2,581.6-86.9c188.2-90.7,362.8-346.9,564-442.5
			c317.1-150.5,634.3-59.6,634.3-59.6"/><path class="st0" d="M705.3,1178.7c203.7-98,369.9,12.7,581.4-90.4c187.3-92,360.3-348.5,560.9-445
			c316.1-152.2,634.4-63.4,634.4-63.4"/><path class="st0" d="M704.8,1178.5c203-99.1,371.3,10.2,581.1-93.8c186.5-93.3,357.7-350,557.7-447.6
			c315.2-153.8,634.4-67.2,634.4-67.2"/><path class="st0" d="M704.4,1178.2c202.4-100.2,373,8.2,580.9-97.2c185.8-94.2,355.2-351.5,554.6-450.2
			c314.2-155.5,634.5-71,634.5-71"/><path class="st0" d="M703.9,1178c201.8-101.2,374.5,5.8,580.7-100.6c185-95.5,352.7-353,551.4-452.8
			c313.2-157.1,634.5-74.8,634.5-74.8"/><path class="st0" d="M703.5,1177.8c201.2-102.3,376,3.4,580.5-104c184.2-96.7,350.1-354.6,548.3-455.3
			c312.3-158.8,634.5-78.6,634.5-78.6"/><path class="st0" d="M703,1177.5c200.5-103.3,377.5,0.9,580.2-107.4c183.4-98,347.6-356.1,545.1-457.9
			c311.3-160.4,634.6-82.4,634.6-82.4"/><path class="st0" d="M702.6,1177.3c199.9-104.4,378.9-1.5,580-110.8c182.5-99.2,345-357.6,542-460.5
			c310.3-162.1,634.6-86.2,634.6-86.2"/><path class="st0" d="M702.1,1177.1c199.3-105.5,380.4-3.9,579.8-114.3c181.7-100.5,342.5-359.1,538.8-463.1
			c309.4-163.7,634.7-90,634.7-90"/><path class="st0" d="M701.7,1176.8c198.7-106.5,381.9-6.4,579.6-117.7c180.9-101.8,340-360.7,535.7-465.6
			c308.4-165.4,634.7-93.8,634.7-93.8"/><path class="st0" d="M701.2,1176.6c198.1-107.6,383.4-8.9,579.4-121.1c180-103.1,337.4-362.2,532.5-468.2
			c307.4-167,634.8-97.6,634.8-97.6"/><path class="st0" d="M700.8,1176.4c197.4-108.7,384.8-11.3,579.1-124.5c179.2-104.4,334.9-363.7,529.4-470.8
			c306.5-168.7,634.8-101.4,634.8-101.4"/><path class="st0" d="M700.3,1176.1c196.8-109.7,386.3-13.8,578.9-127.9c178.3-105.7,332.4-365.3,526.2-473.3
			c305.5-170.3,634.9-105.1,634.9-105.1"/><path class="st0" d="M699.9,1175.9c196.2-110.8,387.8-16.3,578.7-131.3c177.5-107,329.8-366.8,523.1-475.9
			c304.5-172,634.9-108.9,634.9-108.9"/><path class="st0" d="M699.4,1175.7c195.6-111.8,389.2-18.7,578.5-134.7c176.6-108.3,327.3-368.3,519.9-478.5
			c303.6-173.6,634.9-112.7,634.9-112.7"/><path class="st0" d="M699,1175.4c194.9-112.9,390.7-21.2,578.2-138.2C1453,927.7,1602,667.4,1794,556.2
			c302.6-175.3,635-116.5,635-116.5"/><path class="st0" d="M698.5,1175.2c194.3-114,392.1-23.7,578-141.6c174.9-110.9,322.2-371.4,513.6-483.6
			c301.6-176.9,635-120.3,635-120.3"/><path class="st0" d="M698.1,1175c193.7-115,393.6-26.2,577.8-145c174.1-112.2,319.7-372.9,510.5-486.2
			c300.7-178.6,635.1-124.1,635.1-124.1"/><path class="st0" d="M697.6,1174.7c193.1-116.1,395-28.7,577.6-148.4c173.2-113.6,317.1-374.4,507.3-488.8
			c299.7-180.2,635.1-127.9,635.1-127.9"/><path class="st0" d="M697.2,1174.5c192.4-117.2,396.4-31.2,577.3-151.8c172.3-114.9,314.6-375.9,504.2-491.4
			c298.7-181.9,635.2-131.7,635.2-131.7"/><path class="st0" d="M696.7,1174.2c191.8-118.2,397.9-33.7,577.1-155.2c171.4-116.2,312.1-377.5,501-493.9
			c297.8-183.5,635.2-135.5,635.2-135.5"/><path class="st0" d="M696.3,1174c191.2-119.3,399.3-36.2,576.9-158.6c170.6-117.6,309.5-379,497.9-496.5
			c296.8-185.2,635.3-139.3,635.3-139.3"/><path class="st0" d="M695.8,1173.8c190.6-120.3,400.7-38.8,576.7-162.1c169.7-118.9,307-380.5,494.7-499.1
			c295.8-186.8,635.3-143.1,635.3-143.1"/><path class="st0" d="M695.4,1173.5c190-121.4,402.2-41.3,576.4-165.5c168.8-120.3,304.5-382,491.6-501.6
			c294.9-188.5,635.4-146.9,635.4-146.9"/><path class="st0" d="M695,1173.3c189.3-122.5,403.4-44.1,576.2-168.9c167.7-121.9,301.9-383.6,488.4-504.2
			C2053.5,310.1,2395,349.5,2395,349.5"/><path class="st0" d="M694.5,1173.1c188.7-123.5,404.8-46.6,576-172.3c166.8-123.2,299.4-385.1,485.3-506.8
			c292.9-191.8,635.4-154.5,635.4-154.5"/><path class="st0" d="M694.1,1172.8c188.1-124.6,406.3-49,575.8-175.7c166-124.5,296.8-386.6,482.1-509.4
			c292-193.4,635.5-158.3,635.5-158.3"/><path class="st0" d="M693.6,1172.6c187.5-125.7,407.7-51.5,575.6-179.1c165.1-125.8,294.3-388.1,479-511.9
			c291-195.1,635.5-162.1,635.5-162.1"/><path class="st0" d="M693.2,1172.4c186.8-126.7,409.2-54,575.3-182.5c164.3-127.1,291.8-389.7,475.8-514.5
			c290-196.7,635.6-165.9,635.6-165.9"/></g></g></svg>