<?xml version="1.0" encoding="utf-8"?>
<!-- Generator: Adobe Illustrator 20.1.0, SVG Export Plug-In . SVG Version: 6.00 Build 0)  -->
<svg version="1.1" id="Layer_1" xmlns="http://www.w3.org/2000/svg" xmlns:xlink="http://www.w3.org/1999/xlink" x="0px" y="0px"
	 viewBox="0 0 1920 1080" style="enable-background:new 0 0 1920 1080;" xml:space="preserve">
<style type="text/css">
	.st0{fill:none;stroke:#666666;stroke-miterlimit:10;}
</style>
<g>
	<path class="st0" d="M-6.3,697.3c18.4-188.7,164.9-425.2,345.5-495.9c201.8-79.1,404.5,7.6,598.3-68.3
		c193.8-76,308.7-248.9,444.1-302"/>
	<path class="st0" d="M-15.8,689.5C1.9,506.9,147.6,268,332.8,196.8C540,117.2,746.4,211,940.9,133.9
		c193.9-76.7,303.9-251.6,440.1-306.6"/>
	<path class="st0" d="M-25.4,681.6c17.2-176.5,162-417.7,352-489.4c212.5-80.1,422.7,20.7,617.9-57.5
		c193.8-77.5,299.1-254.2,436-311.2"/>
	<path class="st0" d="M-35,673.8c16.6-170.4,160.6-413.9,355.4-486.1c217.8-80.8,431.7,27.1,627.6-52.2
		c193.8-78.3,294.2-256.8,431.9-315.8"/>
	<path class="st0" d="M-44.5,666c16-164.3,159.1-410.2,358.5-482.8c223.2-81.3,440.9,33.6,637.4-46.8
		C1145.3,57.3,1240.8-123,1379.3-184"/>
	<path class="st0" d="M-54.1,658.2C-38.7,500,103.5,251.7,307.8,178.6c228.6-81.8,450,40.1,647.2-41.4
		c193.9-79.8,284.6-262,423.8-325"/>
	<path class="st0" d="M-63.6,650.4c14.8-152.1,156.1-402.7,365.1-476.3c233.9-82.5,459,46.5,656.9-36.1
		c194-80.6,279.8-264.6,419.8-329.6"/>
	<path class="st0" d="M-73.2,642.6c14.2-146.1,154.7-399,368.4-473.1c239.3-83,468.1,53,666.7-30.7c194-81.4,275-267.2,415.7-334.2"
		/>
	<path class="st0" d="M-82.8,634.8c13.7-140,153.3-395.3,371.8-469.9c244.7-83.5,477.2,59.6,676.5-25.3
		c194-82.1,270.1-269.8,411.6-338.8"/>
	<path class="st0" d="M-92.4,626.9c13-133.9,151.8-391.5,375-466.6c250-84,486.4,66.1,686.3-19.9c194-82.9,265.3-272.4,407.6-343.4"
		/>
	<path class="st0" d="M-101.9,619.2c12.4-127.8,150.4-387.8,378.3-463.3c255.3-84.7,495.4,72.5,696-14.6
		c194-83.7,260.5-275,403.5-348"/>
	<path class="st0" d="M-111.4,611.4c11.8-121.8,148.9-384.1,381.6-460.1c260.7-85.2,504.5,79,705.8-9.2
		c194-84.5,255.6-277.6,399.4-352.6"/>
	<path class="st0" d="M-121,603.6c11.2-115.7,147.5-380.3,384.8-456.9c266.1-85.7,513.6,85.5,715.6-3.8
		c194.1-85.2,250.8-280.2,395.4-357.2"/>
	<path class="st0" d="M-130.6,595.8c10.7-109.6,146.1-376.6,388.2-453.6c271.4-86.4,522.6,91.9,725.3,1.5
		c194.1-86,246-282.8,391.3-361.8"/>
	<path class="st0" d="M-140.1,587.9c10-103.4,144.5-372.7,391.5-450.3c276.8-86.9,531.8,98.4,735.1,6.9
		c194.1-86.8,241.1-285.4,387.2-366.4"/>
	<path class="st0" d="M-149.7,580.1C-140.3,482.7-6.6,211,245,133c282.2-87.4,540.9,105,744.9,12.3c194.2-87.6,236.4-288,383.2-371"
		/>
	<path class="st0" d="M-159.3,572.3c8.9-91.3,141.7-365.3,398-443.8c287.5-88,550,111.4,754.7,17.6
		c194.1-88.3,231.5-290.7,379.1-375.6"/>
	<path class="st0" d="M-168.7,564.6C-160.4,479.3-28.5,203,232.6,124c292.8-88.6,559,117.9,764.4,23
		c194.1-89.1,226.6-293.3,375-380.2"/>
	<path class="st0" d="M-178.4,556.7c7.7-79.1,138.8-357.8,404.6-437.3c298.2-89.1,568.1,124.4,774.2,28.4
		c194.2-89.9,221.9-295.9,371-384.8"/>
	<path class="st0" d="M-188,548.8c7.1-73,137.3-354,407.9-434c303.6-89.6,577.2,130.9,784,33.8c194.2-90.6,217-298.5,366.9-389.4"/>
	<path class="st0" d="M-197.4,541.1c6.6-67,135.9-350.4,411.2-430.8c308.9-90.3,586.3,137.3,793.7,39.1
		c194.2-91.4,212.2-301.1,362.8-394"/>
	<path class="st0" d="M-207,533.2c5.9-60.8,134.4-346.6,414.4-427.5c314.3-90.8,595.4,143.8,803.5,44.5
		c194.3-92.2,207.4-303.7,358.8-398.6"/>
	<path class="st0" d="M-216.6,525.5c5.3-54.8,132.9-342.9,417.7-424.3C520.8,9.9,805.6,251.5,1014.4,151
		c194.3-93,202.5-306.3,354.7-403.2"/>
	<path class="st0" d="M-226.1,517.7c4.7-48.7,131.5-339.1,421-421c325-91.9,613.6,156.8,823.1,55.2
		c194.2-93.7,197.7-308.9,350.6-407.8"/>
	<path class="st0" d="M-235.7,509.9c4.1-42.7,130.1-335.4,424.3-417.8c330.3-92.5,622.7,163.3,832.8,60.6
		c194.3-94.5,192.9-311.5,346.6-412.4"/>
	<path class="st0" d="M-245.3,502c3.6-36.5,128.6-331.6,427.6-414.5c335.7-93,631.8,169.8,842.6,66c194.3-95.3,188-314.1,342.5-417"
		/>
	<path class="st0" d="M-254.8,494.2C-251.9,463.8-127.7,166.4,176,83c341.1-93.6,640.9,176.2,852.4,71.3
		c194.4-96.1,183.3-316.7,338.5-421.6"/>
	<path class="st0" d="M-264.4,486.4c2.4-24.4,125.7-324.2,434.2-408c346.4-94.2,649.9,182.7,862.1,76.7
		c194.4-96.8,178.4-319.3,334.4-426.2"/>
	<path class="st0" d="M-274,478.6c1.8-18.2,124.3-320.4,437.5-404.8c351.8-94.7,659,189.2,871.9,82.1
		C1229.8,58.3,1209-166,1365.7-274.9"/>
	<path class="st0" d="M-283.5,470.8c1.2-12.2,122.8-316.6,440.7-401.4c357.2-95.3,668.1,195.7,881.7,87.4
		c194.5-98.4,168.8-324.5,326.3-435.4"/>
	<path class="st0" d="M-293.1,463c0.6-6.1,121.3-312.9,444-398.2C513.4-31,828.2,267,1042.4,157.6c194.4-99.2,163.9-327.1,322.2-440
		"/>
	<path class="st0" d="M-302.6,455.2c0,0,119.9-309.2,447.3-395c367.8-96.4,686.3,208.7,901.2,98.2
		C1240.3,58.5,1205-171.4,1364-286.2"/>
</g>
</svg>
