<svg xmlns="http://www.w3.org/2000/svg" viewBox="0 0 750.33 387.46"><defs><style>.a{fill:#fff;}</style></defs><title>Artboard 1</title><path class="a" d="M145.84,297.68h-3.68l26.93-130.14c.76-3.3,1.49-6.62,2.18-9.92a42.2,42.2,0,0,0,.93-8.51c0-1.51-.06-3.87-.2-7.22a19.24,19.24,0,0,0-2.6-8.57c-1.56-2.79-4.3-5.26-8.14-7.36s-9.75-3.2-17.41-3.2a46.45,46.45,0,0,0-22.56,5.38,79.9,79.9,0,0,0-18.16,13.57A70.33,70.33,0,0,0,90,160.54a104.19,104.19,0,0,0-8.29,23.71L67.91,251a58.78,58.78,0,0,1-57.33,46.67H6.9L57.17,55.13A58.79,58.79,0,0,1,114.51,8.46h3.69L97.38,108.83a91.57,91.57,0,0,1,24.07-17.92,83.8,83.8,0,0,1,39.07-9.86c21.35,0,37.35,5.24,47.55,15.57s15.34,24.38,15.34,41.77c0,3.72-.13,7.93-.4,12.86a86.43,86.43,0,0,1-1.65,13.16L203.26,251A58.9,58.9,0,0,1,145.84,297.68Zm-2-180.93c8.79,0,15.42,1.29,20.28,3.94s8.37,5.9,10.5,9.69A25.18,25.18,0,0,1,178,141.64c.14,3.43.2,5.87.2,7.46a48.21,48.21,0,0,1-1.05,9.73c-.7,3.35-1.44,6.71-2.2,10L149.56,291.55a52.9,52.9,0,0,0,47.83-41.75l18.11-86.64A80.5,80.5,0,0,0,217,150.92c.26-4.82.39-8.92.39-12.53,0-15.76-4.58-28.4-13.61-37.56s-23.59-13.78-43.28-13.78a77.86,77.86,0,0,0-36.29,9.18A83.32,83.32,0,0,0,95.5,120.35l-.9,1.21h-6l22.19-107A52.79,52.79,0,0,0,63,56.35L14.3,291.55A52.78,52.78,0,0,0,62,249.79L75.87,183a110.24,110.24,0,0,1,8.77-25.11A76.28,76.28,0,0,1,98.9,137.46a85.88,85.88,0,0,1,19.52-14.59A52.37,52.37,0,0,1,143.86,116.75Z"/><path class="a" d="M391.77,303.23c-8.43,0-15.53-2.68-21.11-8a29.15,29.15,0,0,1-8.42-15.1,86.15,86.15,0,0,1-28.6,16.55,116.38,116.38,0,0,1-38.27,6.51,84.53,84.53,0,0,1-25.08-3.7,69.21,69.21,0,0,1-21.35-10.79,51,51,0,0,1-15-18.11,55.78,55.78,0,0,1-5.47-25.14c0-13.15,2.53-24.38,7.52-33.38A65.79,65.79,0,0,1,256,189.88a86.72,86.72,0,0,1,28.34-12.74,185.81,185.81,0,0,1,33.06-5.24c15.19-1,30.38-2.24,45.16-3.56,7.45-.48,12.64-2.77,16-7s5.11-10,5.11-17c0-8.6-2.82-14.14-8.61-16.93-6.44-3.09-14.14-4.66-22.89-4.66-12.18,0-22.76,2.1-31.43,6.25a26.4,26.4,0,0,0-6.37,4.27c-15.34,13.93-34.21,21.6-53.15,21.6h-6.67l.67-3.55c2.44-13,6.74-24.16,12.76-33.06A77,77,0,0,1,290.19,96.4,88.72,88.72,0,0,1,320,84.49a170.93,170.93,0,0,1,34.93-3.44c18.75,0,33.69,1.86,44.4,5.52s19,8.29,24.18,13.64,8.55,11.21,9.72,17.19a76.38,76.38,0,0,1,1.64,14.26,145.51,145.51,0,0,1-4,31.6l-15.07,72.55c-.79,3.7-1.67,7.36-2.62,10.86a33.89,33.89,0,0,0-1.29,8.74,7.47,7.47,0,0,0,1.29,4.82c.33.4,1.49,1.31,5.24,1.31a29.63,29.63,0,0,0,7.2-.9,59.73,59.73,0,0,1,8.36-1.46l4.12-.42-4.27,19.45a30.21,30.21,0,0,1-23.37,23.15l-.17,0A92.28,92.28,0,0,1,391.77,303.23ZM409,295.51l.78,2.9-.6-2.94a24.2,24.2,0,0,0,18.71-18.56l2.46-11.18c-1.12.21-2.24.45-3.35.72a35.61,35.61,0,0,1-8.66,1.08c-4.68,0-7.9-1.13-9.84-3.46-1.77-2.12-2.68-5-2.68-8.66a39.89,39.89,0,0,1,1.49-10.3c.91-3.4,1.77-6.95,2.54-10.55L424.93,162a139.81,139.81,0,0,0,3.9-30.33,71.52,71.52,0,0,0-1.53-13.11c-.94-4.81-3.68-9.57-8.13-14.15s-11.89-8.75-21.83-12.14S373,87.05,354.88,87.05a164.92,164.92,0,0,0-33.7,3.31,82.75,82.75,0,0,0-27.76,11.09,71,71,0,0,0-20.55,20.18c-5,7.4-8.74,16.56-11.1,27.25,17.24-.17,34.44-7.27,48.5-20a32.4,32.4,0,0,1,7.81-5.25c9.49-4.54,20.93-6.84,34-6.84,9.66,0,18.23,1.77,25.49,5.25,8,3.84,12,11.36,12,22.34,0,8.32-2.15,15.28-6.39,20.69-4.37,5.57-11.17,8.69-20.22,9.28-14.75,1.32-30,2.52-45.21,3.57a179.83,179.83,0,0,0-32,5.07,80.75,80.75,0,0,0-26.39,11.85A59.84,59.84,0,0,0,241.28,215c-4.49,8.1-6.77,18.36-6.77,30.48A49.86,49.86,0,0,0,239.36,268a45,45,0,0,0,13.21,16,63.24,63.24,0,0,0,19.51,9.84,78.54,78.54,0,0,0,23.31,3.43,110.39,110.39,0,0,0,36.3-6.18,80.06,80.06,0,0,0,30.59-19.12l4.68-4.68.44,6.6c.48,7.22,2.9,12.8,7.4,17.06s10,6.32,17,6.32A86.21,86.21,0,0,0,409,295.51Zm-96.18-28a62.21,62.21,0,0,1-13.34-1.46,43,43,0,0,1-12.36-4.7,28.76,28.76,0,0,1-9.51-8.85c-2.58-3.79-3.89-8.56-3.89-14.18,0-9.31,2.94-16.67,8.73-21.87a52.51,52.51,0,0,1,19.76-10.95,104.46,104.46,0,0,1,24.1-4.29c8.34-.53,15.73-1.06,22-1.58a109,109,0,0,0,15-2.7,23.81,23.81,0,0,0,11.3-6l2.12-2.12,4,4-.25,1.52a190.74,190.74,0,0,1-6.65,28,76.6,76.6,0,0,1-12,23.32,55.46,55.46,0,0,1-19.7,15.94C334.21,265.56,324.36,267.53,312.83,267.53Zm60.65-68.21a33.64,33.64,0,0,1-8.76,3.46,115,115,0,0,1-15.89,2.85c-6.33.53-13.75,1.07-22.14,1.6a98.47,98.47,0,0,0-22.71,4A46.56,46.56,0,0,0,286.48,221c-4.53,4.07-6.74,9.76-6.74,17.4,0,4.39,1,8,2.85,10.81a22.83,22.83,0,0,0,7.55,7,37,37,0,0,0,10.64,4,56.21,56.21,0,0,0,12.05,1.32c10.6,0,19.56-1.76,26.64-5.25a49.49,49.49,0,0,0,17.59-14.21,70.61,70.61,0,0,0,11-21.5A179.44,179.44,0,0,0,373.49,199.32Z"/><path class="a" d="M419.93,379a123.3,123.3,0,0,1-25.62-2.45l-2.95-.63L401,332.06l3.79,3.15a8.65,8.65,0,0,0,4.73,1.7c2.57.25,5.54.38,8.82.38,3.76,0,6.61-.92,8.7-2.8a23.16,23.16,0,0,0,5.61-7.91,49.26,49.26,0,0,0,3.36-11.4c.78-4.44,1.59-8.73,2.39-12.76l34.9-169.13a58.73,58.73,0,0,1,57.3-46.68h3.69l-44,211.86c-1.61,7.48-3.21,14.58-4.78,21.11a109.55,109.55,0,0,1-6.89,19.9c-5.5,14.24-13,24.5-22.15,30.5S435,379,419.93,379Zm-21.4-7.73a122.38,122.38,0,0,0,21.4,1.73c13.88,0,25.08-2.71,33.27-8s14.82-14.63,19.86-27.72l.07-.17a103.61,103.61,0,0,0,6.55-18.89c1.56-6.49,3.15-13.54,4.75-21L526.89,92.74a52.72,52.72,0,0,0-47.71,41.76L444.29,303.62c-.79,4-1.59,8.21-2.36,12.61a55.21,55.21,0,0,1-3.78,12.8,29.12,29.12,0,0,1-7.08,9.94c-3.2,2.88-7.47,4.34-12.72,4.34-3.47,0-6.64-.14-9.42-.41a17.53,17.53,0,0,1-4-.85Zm141.66-314H489.25l.73-3.6A56.71,56.71,0,0,1,545.36,8.46h4.77Zm-43.46-6h38.56l7.49-36.77A50.73,50.73,0,0,0,496.73,51.3Z"/><path class="a" d="M629,303.23A105.27,105.27,0,0,1,592,296.89a82.89,82.89,0,0,1-29.42-18.52,86.45,86.45,0,0,1-19.32-29.16c-4.62-11.27-7-24.26-7-38.62A149.39,149.39,0,0,1,544,163.23a131.17,131.17,0,0,1,22.53-41.4,113.75,113.75,0,0,1,36.66-29.54c14.51-7.46,31.32-11.24,50-11.24s34.08,3.19,45.84,9.48,21,14.35,27.63,24A85.77,85.77,0,0,1,740,146.13a164.23,164.23,0,0,1,3.43,32.33,115.74,115.74,0,0,1-.82,14.26c-.55,4.4-1.08,8.19-1.6,11.58l-.39,2.55H587.85q-.07.49-.13.94a21.78,21.78,0,0,0-.18,2.81v6.35c0,13.47,3.56,24.42,10.58,32.55s18.75,12.05,35.21,12.05c11.53,0,21.53-2.64,29.72-7.86a37.86,37.86,0,0,0,3.83-2.79c17.86-14.83,38.55-22.67,59.85-22.67h5l-1.14,3.85c-7.32,24.66-19.88,42.9-37.34,54.22S654.29,303.23,629,303.23Zm24.2-216.18c-17.68,0-33.57,3.56-47.22,10.58a107.78,107.78,0,0,0-34.74,28,125.18,125.18,0,0,0-21.5,39.52,143.4,143.4,0,0,0-7.38,45.46c0,13.57,2.19,25.8,6.52,36.35a80.5,80.5,0,0,0,18,27.16,77,77,0,0,0,27.31,17.18,99.29,99.29,0,0,0,34.85,6c24.14,0,44.68-5.38,61-16,15.3-9.92,26.6-25.71,33.63-47-18.79.72-37,8-52.92,21.23a43.89,43.89,0,0,1-4.44,3.23c-9.17,5.84-20.26,8.8-32.94,8.8-18.28,0-31.66-4.75-39.75-14.13s-12-21.52-12-36.47v-6.35a27.61,27.61,0,0,1,.22-3.56c.14-1.12.35-2.39.63-3.78l.49-2.41H735.47c.39-2.68.78-5.61,1.2-8.88a110,110,0,0,0,.77-13.51,158.23,158.23,0,0,0-3.31-31.14,79.8,79.8,0,0,0-12.43-29.44c-6-8.8-14.62-16.22-25.52-22.06S670.82,87.05,653.17,87.05Zm44.12,90H585.73l1.08-3.82c4.61-16.28,12.21-29.86,22.57-40.36C620,122.19,634.3,116.75,652,116.75c14.25,0,25.64,4.24,33.87,12.6s12.36,19.14,12.36,32.05v9.32a20.84,20.84,0,0,1-.45,3.95Zm-103.54-6H692.2c0-.13,0-.25,0-.37V161.4c0-11.45-3.48-20.56-10.64-27.85s-17-10.8-29.59-10.8c-16,0-28.91,4.84-38.32,14.38C604.82,146.08,598.14,157.49,593.74,171.09Z"/></svg>