<svg id="Layer_1" xmlns="http://www.w3.org/2000/svg" viewBox="0 0 729.9 364.5"><style>.st0{fill:url(#SVGID_1_)}.st1{fill:url(#SVGID_2_)}.st2{fill:url(#SVGID_3_)}.st3{fill:url(#SVGID_4_)}.st4{fill:url(#SVGID_5_)}</style><linearGradient id="SVGID_1_" gradientUnits="userSpaceOnUse" x1="-144.496" y1="129.943" x2="868.937" y2="485.167" gradientTransform="matrix(1 0 0 -1 0 364)"><stop offset="0" stop-color="#ff15f3"/><stop offset=".084" stop-color="#e82cf4"/><stop offset=".324" stop-color="#ad68f8"/><stop offset=".543" stop-color="#7d97fb"/><stop offset=".736" stop-color="#5bbafd"/><stop offset=".895" stop-color="#47ceff"/><stop offset="1" stop-color="#3fd6ff"/></linearGradient><path class="st0" d="M149.9 72.6c-13 0-25.5 3.2-37.7 9.6-12.2 6.3-22.1 15-29.8 25h-.8L103.9 0c-26 0-49.1 18.5-54.4 44.3L0 283.2c26.3 0 49.1-18.5 54.4-44.3l13.8-66.8c1.8-8.5 4.7-16.6 8.5-24.4 3.8-7.8 8.4-14.3 13.7-19.6 5.6-5.6 11.8-10.2 18.8-14.1 7-3.8 15-5.8 24-5.8 8.2 0 14.5 1.2 18.8 3.6 4.4 2.4 7.5 5.2 9.3 8.5s2.8 6.6 3 9.9c.1 3.3.2 5.8.2 7.3 0 2.9-.3 6-1 9.1-.7 3.2-1.4 6.5-2.2 9.9L135.1 283c26.3 0 49.1-18.5 54.5-44.3l18.1-86.6c.8-3.7 1.3-7.9 1.6-12.7s.4-9 .4-12.7c0-16.7-4.8-29.9-14.5-39.7-9.5-9.5-24.6-14.4-45.3-14.4z"/><linearGradient id="SVGID_2_" gradientUnits="userSpaceOnUse" x1="-106.404" y1="21.269" x2="907.029" y2="376.493" gradientTransform="matrix(1 0 0 -1 0 364)"><stop offset="0" stop-color="#ff15f3"/><stop offset=".084" stop-color="#e82cf4"/><stop offset=".324" stop-color="#ad68f8"/><stop offset=".543" stop-color="#7d97fb"/><stop offset=".736" stop-color="#5bbafd"/><stop offset=".895" stop-color="#47ceff"/><stop offset="1" stop-color="#3fd6ff"/></linearGradient><path class="st1" d="M399.2 286.9c10.5-2.2 18.7-10.4 21-20.9l3.4-15.4c-2.6.3-5.3.7-7.9 1.4s-5.3 1-7.9 1c-3.7 0-6.2-.8-7.5-2.4-1.3-1.6-2-3.8-2-6.7s.5-6.1 1.4-9.5 1.8-7 2.6-10.7l15.1-72.6c2.6-11.6 4-21.9 4-30.9 0-3.7-.5-8.3-1.6-13.7-1.1-5.4-4-10.6-8.9-15.7-4.9-5-12.6-9.3-23-12.9-10.5-3.6-24.9-5.4-43.4-5.4-12.2 0-23.6 1.1-34.3 3.4-10.7 2.3-20.3 6.1-28.8 11.5s-15.6 12.3-21.4 20.9c-5.8 8.6-9.9 19.8-12.3 31.8h3.1c19.1 0 37-7.9 51.1-20.7 2.1-1.9 4.5-3.5 7.1-4.7 9.1-4.4 20-6.5 32.7-6.5 9.3 0 17.3 1.7 24.2 5 6.9 3.3 10.3 9.9 10.3 19.6 0 7.7-1.9 14-5.8 18.8-3.8 4.9-9.9 7.6-18 8.1-14.8 1.3-29.9 2.5-45.2 3.6-11.4.8-22.2 2.5-32.5 5.2-10.3 2.6-19.4 6.7-27.4 12.3s-14.3 12.6-19 21.2c-4.8 8.6-7.1 19.2-7.1 31.9 0 9 1.7 16.9 5.2 23.8 3.4 6.9 8.1 12.6 14.1 17.1s12.8 7.9 20.4 10.3c7.7 2.4 15.7 3.6 24.2 3.6 12.7 0 25.1-2.1 37.3-6.3 12.2-4.2 22.7-10.8 31.7-19.8.5 7.9 3.3 14.3 8.3 19 5 4.8 11.4 7.1 19 7.1 6.1 0 12-.6 17.8-1.8-.1.1 0 .1 0 0zM360.4 210c-2.8 8.6-6.6 16.1-11.5 22.4-4.9 6.3-11.1 11.4-18.6 15.1-7.5 3.7-16.9 5.6-28 5.6-4.2 0-8.5-.5-12.7-1.4s-8.1-2.4-11.5-4.4-6.3-4.6-8.5-7.9c-2.3-3.3-3.4-7.5-3.4-12.5 0-8.5 2.6-15 7.7-19.6 5.2-4.6 11.4-8.1 18.6-10.3 7.3-2.2 15.1-3.6 23.4-4.2 8.3-.5 15.7-1.1 22-1.6 5-.5 10.2-1.4 15.5-2.8 5.3-1.3 9.5-3.6 12.7-6.7l.8.8c-1.6 9.8-3.8 18.9-6.5 27.5z"/><linearGradient id="SVGID_3_" gradientUnits="userSpaceOnUse" x1="-137.381" y1="109.644" x2="876.052" y2="464.868" gradientTransform="matrix(1 0 0 -1 0 364)"><stop offset="0" stop-color="#ff15f3"/><stop offset=".084" stop-color="#e82cf4"/><stop offset=".324" stop-color="#ad68f8"/><stop offset=".543" stop-color="#7d97fb"/><stop offset=".736" stop-color="#5bbafd"/><stop offset=".895" stop-color="#47ceff"/><stop offset="1" stop-color="#3fd6ff"/></linearGradient><path class="st2" d="M534.8.2c-25.4 0-47.9 18-52.9 42.9v.1h45.2l8.7-43h-1z"/><linearGradient id="SVGID_4_" gradientUnits="userSpaceOnUse" x1="-81.541" y1="-49.664" x2="931.892" y2="305.56" gradientTransform="matrix(1 0 0 -1 0 364)"><stop offset="0" stop-color="#ff15f3"/><stop offset=".084" stop-color="#e82cf4"/><stop offset=".324" stop-color="#ad68f8"/><stop offset=".543" stop-color="#7d97fb"/><stop offset=".736" stop-color="#5bbafd"/><stop offset=".895" stop-color="#47ceff"/><stop offset="1" stop-color="#3fd6ff"/></linearGradient><path class="st3" d="M465.7 122.4l-34.9 169.1c-.8 4-1.6 8.2-2.4 12.7s-2 8.5-3.6 12.1-3.7 6.5-6.3 8.9c-2.6 2.4-6.2 3.6-10.7 3.6-3.4 0-6.5-.1-9.1-.4s-4.8-1.1-6.3-2.4l-7.9 36.1c7.4 1.6 15.7 2.4 25 2.4 14.5 0 26.2-2.8 34.9-8.5s15.7-15.4 21-29.2c2.9-6.3 5.2-12.8 6.7-19.4 1.6-6.6 3.2-13.6 4.8-21L520 78.1c-26.3 0-49 18.5-54.3 44.3z"/><linearGradient id="SVGID_5_" gradientUnits="userSpaceOnUse" x1="-76.108" y1="-65.163" x2="937.325" y2="290.061" gradientTransform="matrix(1 0 0 -1 0 364)"><stop offset="0" stop-color="#ff15f3"/><stop offset=".084" stop-color="#e82cf4"/><stop offset=".324" stop-color="#ad68f8"/><stop offset=".543" stop-color="#7d97fb"/><stop offset=".736" stop-color="#5bbafd"/><stop offset=".895" stop-color="#47ceff"/><stop offset="1" stop-color="#3fd6ff"/></linearGradient><path class="st4" d="M726.5 135.3c-2.3-11.1-6.5-21.3-12.9-30.5-6.3-9.3-15.2-16.9-26.6-23-11.4-6.1-26.2-9.1-44.4-9.1s-34.4 3.6-48.6 10.9c-14.2 7.3-26.1 16.9-35.7 28.8-9.7 11.9-17 25.4-22 40.5s-7.5 30.5-7.5 46.4c0 14 2.2 26.5 6.7 37.5s10.7 20.4 18.6 28.2c7.9 7.8 17.4 13.8 28.4 17.8 11 4.1 22.9 6.1 35.9 6.1 24.9 0 45.7-5.3 62.7-16.2 16.9-11 29-28.3 36.1-52.3h-1c-21.3 0-41.5 8.1-57.9 21.8-1.3 1.1-2.7 2-4.1 2.9-8.7 5.6-19.2 8.3-31.3 8.3-17.5 0-30-4.4-37.5-13.1s-11.3-20.3-11.3-34.5v-6.3c0-1.1.1-2.2.2-3.3.1-1.1.3-1.7.6-3.7h152.7c.5-3 1.1-7.2 1.6-11.4s.8-8.8.8-13.8c-.1-10.4-1.3-20.9-3.5-32zm-41.6 21v3c0 .9-.4 1.9-.7 2.9H579.1c4.5-15 11.8-28.7 21.8-38.9s23.5-15.2 40.5-15.2c13.5 0 24.2 4 31.9 11.8s11.6 17.8 11.6 30v6.4z"/></svg>