<?xml version="1.0" encoding="utf-8"?>
<!-- Generator: Adobe Illustrator 21.0.0, SVG Export Plug-In . SVG Version: 6.00 Build 0)  -->
<svg version="1.1" id="Layer_1" xmlns="http://www.w3.org/2000/svg" xmlns:xlink="http://www.w3.org/1999/xlink" x="0px" y="0px"
	 viewBox="0 0 553.7 956" style="enable-background:new 0 0 553.7 956;" xml:space="preserve">
<style type="text/css">
	.st0{fill:#E6E6E6;}
</style>
<g>
	<g>
		<polygon class="st0" points="553.4,177.9 553.4,165.3 276.9,0 0.3,164.6 0.3,177.9 0,177.9 0,234.1 276.9,394 553.7,234.1 
			553.7,177.9 		"/>
		<polygon class="st0" points="518.8,293.6 518.8,450.8 276.9,590.5 34.9,450.8 34.9,293.6 0,273.5 0,471 276.9,630.8 553.7,471 
			553.7,273.5 		"/>
	</g>
	<g>
		<path class="st0" d="M87.3,684.8L87.3,684.8l-16.5,79.7h0.6c5.7-7.7,13.1-13.9,22.1-18.6c9-4.7,18.4-7.1,28-7.1
			c15.3,0,26.6,3.6,33.8,10.9c7.2,7.3,10.8,17.1,10.8,29.5c0,2.8-0.1,5.9-0.3,9.4c-0.2,3.5-0.6,6.7-1.2,9.4l-13.5,64.5
			c-4,19.2-20.9,32.9-40.5,32.9h0l19.5-94.2c0.6-2.6,1.1-5,1.6-7.4c0.5-2.4,0.7-4.6,0.7-6.8c0-1.2-0.1-3-0.1-5.5
			c-0.1-2.5-0.8-4.9-2.2-7.4c-1.4-2.5-3.7-4.6-6.9-6.3c-3.2-1.8-7.9-2.7-14-2.7c-6.7,0-12.6,1.4-17.9,4.3c-5.2,2.9-9.9,6.3-14,10.5
			c-3.9,3.9-7.3,8.8-10.2,14.6c-2.9,5.8-5,11.9-6.3,18.2l-10.3,49.7c-4,19.2-20.9,32.9-40.5,32.9h0l36.9-177.8
			C50.8,698.6,67.7,684.8,87.3,684.8z"/>
		<path class="st0" d="M309.2,851.3c-0.6,2.8-1.2,5.4-1.9,8c-0.7,2.6-1,4.9-1,7.1c0,2.2,0.5,3.8,1.5,5c1,1.2,2.8,1.8,5.6,1.8
			c2,0,3.9-0.2,5.9-0.7c2-0.5,3.9-0.8,5.9-1l-2.5,11.5c-1.7,7.8-7.8,13.9-15.7,15.5c0,0-0.1,0-0.1,0c-4.3,0.9-8.8,1.3-13.3,1.3
			c-5.7,0-10.4-1.8-14.2-5.3c-3.7-3.5-5.8-8.3-6.2-14.2c-6.7,6.7-14.6,11.6-23.6,14.8c-9.1,3.1-18.3,4.7-27.7,4.7
			c-6.3,0-12.3-0.9-18-2.7c-5.7-1.8-10.8-4.3-15.2-7.7c-4.4-3.3-7.9-7.6-10.5-12.7c-2.6-5.1-3.8-11-3.8-17.7
			c0-9.4,1.8-17.4,5.3-23.8c3.5-6.4,8.3-11.7,14.2-15.8c5.9-4.1,12.7-7.2,20.4-9.1c7.7-2,15.7-3.2,24.2-3.8
			c11.4-0.8,22.6-1.7,33.6-2.7c6.1-0.4,10.6-2.4,13.4-6.1c2.8-3.6,4.3-8.3,4.3-14c0-7.3-2.6-12.1-7.7-14.6c-5.1-2.5-11.1-3.7-18-3.7
			c-9.4,0-17.6,1.6-24.3,4.9c-1.9,0.9-3.7,2.1-5.3,3.5c-10.5,9.6-23.8,15.5-38,15.5h-2.3c1.8-9.4,4.8-17.4,9.1-23.8
			c4.3-6.4,9.6-11.6,15.9-15.6c6.3-4,13.4-6.9,21.4-8.6c8-1.7,16.5-2.5,25.5-2.5c13.8,0,24.5,1.3,32.3,4c7.8,2.7,13.5,5.9,17.1,9.6
			c3.6,3.7,5.9,7.6,6.6,11.7c0.8,4,1.2,7.4,1.2,10.2c0,6.7-1,14.4-3,23L309.2,851.3z M208,853.6c0,3.7,0.8,6.8,2.5,9.3
			c1.7,2.5,3.8,4.4,6.3,5.9c2.6,1.5,5.4,2.6,8.6,3.2c3.1,0.7,6.3,1,9.4,1c8.3,0,15.2-1.4,20.8-4.1c5.6-2.8,10.2-6.5,13.9-11.2
			c3.6-4.7,6.5-10.3,8.6-16.7c2.1-6.4,3.7-13.2,4.9-20.5l-0.6-0.6c-2.4,2.4-5.5,4-9.4,5c-3.9,1-7.8,1.7-11.5,2.1
			c-4.7,0.4-10.2,0.8-16.4,1.2c-6.2,0.4-12,1.4-17.4,3.1c-5.4,1.7-10,4.2-13.9,7.7C209.9,842.5,208,847.3,208,853.6z"/>
		<path class="st0" d="M396.9,742.9L396.9,742.9l-32.2,154.9c-1.2,5.5-2.4,10.7-3.5,15.6c-1.2,4.9-2.9,9.7-5,14.5
			c-3.9,10.2-9.2,17.5-15.6,21.7c-6.5,4.2-15.1,6.3-26,6.3c-6.9,0-13.1-0.6-18.6-1.8l5.9-26.9c1.2,1,2.8,1.6,4.7,1.8
			c2,0.2,4.2,0.3,6.8,0.3c3.3,0,6-0.9,8-2.7c2-1.8,3.5-4,4.7-6.6c1.2-2.7,2.1-5.7,2.7-9c0.6-3.3,1.2-6.5,1.8-9.4l26-125.8
			C360.4,756.7,377.3,742.9,396.9,742.9z M407.9,684.8h0.8l-6.5,31.9h-33.4v0C372.6,698.1,388.9,684.8,407.9,684.8z"/>
		<path class="st0" d="M543.6,848.3c-5.3,17.9-14.3,30.9-26.9,39.1c-12.6,8.2-28.1,12.2-46.6,12.2c-9.6,0-18.5-1.5-26.7-4.6
			c-8.2-3-15.2-7.5-21.1-13.3c-5.9-5.8-10.5-12.8-13.9-21c-3.3-8.2-5-17.5-5-27.9c0-11.8,1.9-23.3,5.6-34.5
			c3.7-11.2,9.2-21.3,16.4-30.1c7.2-8.9,16-16,26.6-21.4c10.5-5.4,22.6-8.1,36.2-8.1c13.6,0,24.6,2.3,33.1,6.8
			c8.5,4.5,15.1,10.2,19.8,17.1c4.7,6.9,7.9,14.5,9.6,22.7c1.7,8.3,2.5,16.1,2.5,23.6c0,3.7-0.2,7.2-0.6,10.3
			c-0.4,3.1-0.8,6-1.2,8.6H437.6c-0.2,1-0.3,1.9-0.4,2.7c-0.1,0.8-0.1,1.6-0.1,2.4v4.7c0,10.6,2.8,19.2,8.4,25.7
			c5.6,6.5,14.9,9.7,27.9,9.7c9,0,16.8-2.1,23.3-6.2c1.1-0.7,2.1-1.4,3.1-2.2c12.2-10.1,27.2-16.4,43.1-16.4H543.6z M519.1,805.8
			c0.2-1,0.3-1.8,0.3-2.5c0-0.7,0-1.4,0-2.2v-4.7c0-9-2.9-16.5-8.6-22.3c-5.7-5.8-13.6-8.7-23.6-8.7c-12.6,0-22.6,3.8-30.1,11.4
			c-7.5,7.6-12.9,17.3-16.2,29.1H519.1z"/>
	</g>
</g>
</svg>
