<?xml version="1.0" encoding="utf-8"?>
<!-- Generator: Adobe Illustrator 21.0.0, SVG Export Plug-In . SVG Version: 6.00 Build 0)  -->
<svg version="1.1" id="Layer_1" xmlns="http://www.w3.org/2000/svg" xmlns:xlink="http://www.w3.org/1999/xlink" x="0px" y="0px"
	 viewBox="0 0 391.5 1073.3" style="enable-background:new 0 0 391.5 1073.3;" xml:space="preserve">
<style type="text/css">
	.st0{fill:#E7E7E7;}
	.st1{fill:none;stroke:#808080;stroke-miterlimit:10;}
	.st2{fill:#FFFFFF;}
	.st3{fill:none;stroke:#B3B3B3;stroke-miterlimit:10;}
</style>
<path class="st0" d="M391.5,447.1c0.1-2-6.3-4.8-6.3-4.8l-2.4-1.1l-0.1-17.8l1.1-3.6l2.4-9.9c0,0,0.8-15.6,1.1-21.4
	c0.3-5.8-1.2-21.7-1.2-21.7l-13.1-44.5l-6.5-27.7l-4.2-15.1c0,0-3.7-25-3.9-28.3c-0.2-3.3-10.5-18.6-10.5-18.6
	c-1.7-7.2-7.2-17.1-7.2-17.1l-3.2-1.1c-6.8-6.7-42.1-23.2-42.1-23.2l-24.7-9.5l-9.3-4.8l-4.1-0.4L248,173l-3.7-6.5l-1.4-3.9
	l-1.1-1.8l-0.9-2.3v-19.2l4.4-12.5l2.8-9c9.2,3.5,9.7-8.8,9.7-8.8l2.6-5.8c5.6-11.1,6.3-21.4,6.3-21.4c-1.1-9.9-11.6-3.1-11.6-3.1
	s8.8-34-8.5-56.9C229.5-1,197.4,0,197.4,0c-21.5,3.7-40.5,26.1-40.5,26.1C144.3,46,147,69.6,147,69.6l2.4,12.3
	c-12.2-5.8-15.2,4.9-13.9,9.8s10.2,19,10.2,19s1.1,3,1.6,7.4c0.5,4.4,7.4,2.5,7.4,2.5c1.3,16.2,13.2,31.2,13.2,31.2
	s0.7,16.5,0.3,17.3s-2.1,4.4-2.1,4.4s-17.4,11.5-19.2,12c-1.7,0.5-11.2,3.6-12,4c-0.8,0.4-15.5,8.3-17.6,8.5s-10.7,4-10.7,4
	l-26.7,17.3c-14.1,11.2-26,64.9-26,64.9l-5,26.8l-6.1,30.8c0,0-4.8,34.3-5.2,34.7c-0.4,0.4-2.1,21.4-2.1,21.4
	c-0.9,2.4-0.8,13.6-0.5,16.2c0.3,2.6,6.5,5.9,6.5,5.9c-2.1,4-1.8,26.6-1.8,26.6l-5.5,8.9l0.8,11.2c0.1,7.5,1.7,35.3,1.7,35.3
	l-1.7,20.9l1.2,4.2v15.9l5.8,4.9l-2.6,35.2c0,0,4.3,4.9,4.9,11.5c0.6,6.6,8,18.9,8,18.9l9.7,7.7l5.3,3.3l3.3,0.7l2.6,1.1l2.7,1
	c2.2-1.1,3.6-5.3,2.5-9.5c-1.1-4.2-8.4-6.2-8.4-6.2c-3.3-5.7-6-9.3-6-9.3c0.2-2.7-2-7.2-2.5-9.3s0-9.3,0-9.3s3.8-2.6,5.8-2.5
	c2,0.2,0.9-1.7,3.1,10.3c2.2,12,8.2,18.1,13.7,15.5c5.5-2.6,0.2-13.7,0.2-13.7s-3.3-9.9-3.2-12.9c0.2-3.1,0.2-20.4,0.2-20.4
	l-3.7-10.3v-1.5l1.1-16.2l1.1-0.9v-13.3c1.7-2.6,2.4-17.3,2.4-19.3c0-2,4.5-9.8,4.5-9.8s5.9-16.8,5.9-18.2c-0.1-1.5,2-12.5,2-12.5
	l2.6-11.9c1.7-7.3,0.5-20.5,0.5-20.5s-1.7-5.5-1.7-7.1s3.3-3.3,3.3-3.3c5.2-13.5,7-34.5,7-34.5s-5.3-14.9-5.7-16.6
	c-0.4-1.7,3.4-16.6,3.4-16.6l2.1-2.8l2.9-2c0,0,0.5,2.2-0.1,10.7c-0.7,8.5,1.3,44.1,1.3,44.1l0.4,12.9l-3.4,17l-4.4,29.1
	c0,0-2.4,30.3-2.6,31.2c-0.3,0.9-2.1,19.9-2.1,19.9l-5,37.4c-1.3,11.1,0,26,0,26v55c2,10,14.9,13.3,14.9,13.3l0.8,2.8l3.8,46.5
	c0,0,1.5,29.7,0.3,40.8s5.5,20.5,5.5,20.5c-2.8,4.6-2.9,19-2.9,19c-3,3.7-3,8.7-3,8.7l2.9,5.2c0,0,0,5.7-3,7.1
	c-3,1.5-4.1,10.2-4,10.8s1.7,80.4,1.7,80.4l1.6,44.6l0.3,16.6l2.6,8.9c-2.8,1.2-4.6,9.5-4.6,9.5s3.8,17,3.8,17.4s2.1,3.3,2.1,3.3
	l2.6,2.2l3.2,0.1c-2.5,5.2-14.9,48.9-14.9,48.9l-0.4,11.1c0,0-5.8-0.1-3.2,12.3s35.3,13.6,35.3,13.6c30.9,2.9,32.9-10.2,32.9-10.2
	c2-7.5-2.9-10-2.9-10c1.5-10.2-1.7-39.2-1.7-39.2l1.1-4l0.1-2.5l-1.2-14.9c0,0-1.8-2,1.1-2.4s5.8-6.2,5.8-6.2
	c6.9-12.2,2.7-19,2.7-19l-6.9-7l-4.1-3.3l-0.7-2.1c4.2-3,9.9-17.3,9.9-17.3l0.7-8.1l3.3-42.1l0.7-40.5l0.4-15
	c1.6-7.4-1.6-14.1-1.6-14.1l-0.7-2.3l0.5-2.3c6.3-7.4,0.7-13,0.7-13l-1.2-2.6l1.4-4.1l0.7-2.5l2.8-2.6l1.1-9.7
	c8.5-19,11.6-74.8,11.6-74.8c7.3-9.2,11.2-43.2,11.2-43.2l3.4-6.7h2.5c0,0,3,37.6,3,39.1c0,1.5,5,9.6,5,9.6c0,4.1,7.1,68,7.1,68
	l2,2.8l2.1,4.5l0.4,15.9c0,0,5.5,6.6,5,7.5c-0.5,0.9-2.2,4.2-1.6,5.2s2.5,4.4,1.3,6.2c-1.2,1.8-1.6,8.7-1.6,8.7l0.3,4.4
	c0,0,0.1,25.8-0.8,51.7s8.3,67.1,8.3,67.1l1.2,16.2c0,0-4.9,5.8-5.7,7.4c-0.8,1.6,0.7,15.6,0.7,15.6s1.8,3.7,1.8,4.1
	s6.2,6.9,6.2,6.9l4.1,0.4l-2.9,3.7l-0.9,16.1c0,0-0.1,3.2-0.1,3.6s-1.1,17.6-0.9,18.5c0.1,0.9,3.3,3.7,3.3,3.7l0.4,11.5
	c-9.4,14.9,0.5,21.3,0.5,21.3c13.2,9.5,54.6,5,54.6,5c13.1-1.3,9.1-17.3,9.1-17.3c-0.1-3.8-3.4-5-3.4-5c0.1-2.1-2.8-16.8-2.8-16.8
	c-0.8-5-11.4-31.8-11.4-31.8l-2.8-15.6h4.6h2l3.3-7.4c2.2-4.2-2.4-8.7-2.4-8.7l-4.9-0.8l-0.9-1.3c0,0,1.7-2,2.8-3.2
	s0.5-10.8,0.5-10.8l-4.2-3.2l-1.7-2.8l-0.9-3.4c0,0,7.5-14.5,8.5-16.1c0.9-1.6-0.7-19-0.7-19v-2.1c1.5-3.8,2.6-20.5,2.6-20.5
	l5.3-48.7l-1.1-21.3l-1.6-5.5c2-9.9-2.9-16.6-2.9-16.6c-1.1-0.9-2-3.6-2-3.6l1.1-3.2c1.6-10.4-2.6-15.1-2.6-15.1l-1.8-1.1v-2
	c2.4-2.4,3.6-7.5,4.2-10c0.7-2.5-4.9-10.7-4.9-10.7c-0.8-3.7,3.2-23.6,3.2-23.6s2.6-3.7,7-23.8s3.8-66.8,3.8-66.8
	c4.9-3.6,10.4-14.8,10.4-14.8c7.3,0.1,11.1-5.2,11.1-5.2c1.1,0.5,3.7-0.8,3.7-0.8l3.6-2.1c1.8,0,5.4-1.3,5.4-1.3l18.5-13.6l9.6-15.7
	l0.8-4.8c0.9-1.5,3.2-9.6,3.2-9.6l-1.2-19.3l2.5-1.1l1.2-18.2l-0.1-1.6l0.7-1.3c0,0,5.3-7,5.9-8.6c0.7-1.6,6.2-42.4,6.2-42.4
	S391.4,449.1,391.5,447.1z M337.3,522.9l-1.7,16.6c0,0,1.2,0.6,0,1.7c-1.2,1.1-3.6,10.5-3.6,10.5l-6.7-27.2c0,0-4.9-21.1-4.4-24.2
	c0.5-3.1-2-40.1-2-40.1l-9.5-53.2l1.8-50.1c0,0,1.2-4.1,1.3-1.1s4.1,8.2,7,11.2c3,3,4.8,6.6,4.8,6.6c-1.6,3.7-2.6,15.3-2.6,15.3
	s3.5,10.8,3.8,13.7c0.3,2.9-0.5,7.5-0.5,7.5c-1.1,1.3,0.9,8.3,0.9,8.3l6.2,5.6c-3.6,11.2,2.7,25.5,2.5,26.5c-0.3,1-1.8,28-1.4,31.1
	c0.4,3.1,1.8,24.1,1.9,27.3c0.2,3.2,3,12.8,3,12.8L337.3,522.9z M349.8,580.2c-2.5,2-4.2,12.1-4.2,12.1l-5.7,7l-0.8-12.5
	c2.2-2.8,2.6-14.8,2.6-14.8l1.4-3.3c0,0,6.7,2.5,6.7,3.6C349.8,573.4,349.8,580.2,349.8,580.2z"/>
<line class="st1" x1="108.6" y1="342.5" x2="312.6" y2="342.5"/>
<line class="st1" x1="14.1" y1="175" x2="14.1" y2="632"/>
<rect y="353.5" class="st2" width="27.2" height="82"/>
<line class="st1" x1="337.6" y1="522.5" x2="378.6" y2="527.5"/>
<g>
	<path d="M20.5,412.5v1h-7v8.3h7v1H6.3v-1h6.3v-8.3H6.3v-1H20.5z"/>
	<path d="M20.7,404.4c0,1.5-0.5,2.7-1.4,3.6s-2.3,1.3-4,1.3c-1.7,0-3-0.4-4.1-1.2s-1.5-2-1.5-3.4c0-1.2,0.4-2.2,1.3-3
		s2.1-1.1,3.6-1.1h0.8v7.6c1.5,0,2.6-0.4,3.3-1s1.2-1.6,1.2-2.9c0-0.6,0-1.1-0.1-1.6s-0.3-1-0.5-1.7h0.9c0.3,0.6,0.4,1.2,0.5,1.7
		S20.7,403.8,20.7,404.4z M10.6,404.7c0,1,0.3,1.8,1,2.5s1.6,1,2.9,1.1v-6.6c-1.2,0-2.2,0.3-2.9,0.8S10.6,403.7,10.6,404.7z"/>
	<path d="M7,397.8c-0.6,0-0.9-0.2-0.9-0.6c0-0.2,0.1-0.4,0.2-0.5s0.4-0.2,0.7-0.2c0.3,0,0.5,0.1,0.7,0.2s0.3,0.3,0.3,0.5
		C7.9,397.6,7.6,397.8,7,397.8z M20.5,396.7v1H9.9v-1H20.5z"/>
	<path d="M9.9,384.9h0.7l0.1,2.2c0.7-0.6,1.5-0.9,2.4-0.9c1,0,1.9,0.3,2.5,1c0.6,0.7,1,1.6,1,2.7c0,0.5,0,0.8-0.1,1
		c0.2,0.4,0.4,0.7,0.7,0.9s0.6,0.3,0.9,0.3c0.3,0,0.6-0.1,0.7-0.4s0.2-0.7,0.2-1.3v-1.9c0-1.2,0.2-2,0.7-2.6s1.2-0.9,2.1-0.9
		c1.1,0,2,0.5,2.6,1.4s0.9,2.2,0.9,3.9c0,1.3-0.3,2.4-0.8,3.1s-1.2,1.1-2.1,1.1c-0.7,0-1.3-0.2-1.8-0.7s-0.8-1.1-1-1.8
		c-0.1,0.3-0.3,0.6-0.6,0.8s-0.5,0.3-0.9,0.3c-0.7,0-1.3-0.5-1.9-1.4c-0.3,0.6-0.7,1.1-1.2,1.4s-1.2,0.5-1.9,0.5
		c-1.1,0-1.9-0.3-2.6-1s-1-1.6-1-2.7c0-0.7,0.1-1.2,0.2-1.6V384.9z M13.2,392.7c0.8,0,1.5-0.2,1.9-0.7s0.7-1.2,0.7-2
		c0-0.9-0.2-1.6-0.7-2s-1.1-0.7-2-0.7c-0.9,0-1.6,0.2-2,0.7s-0.7,1.2-0.7,2c0,0.8,0.2,1.5,0.7,2S12.4,392.7,13.2,392.7z M22.3,393.5
		c1.5,0,2.2-1.1,2.2-3.3c0-2.8-0.9-4.2-2.7-4.2c-0.6,0-1.1,0.2-1.4,0.7s-0.4,1.1-0.4,2.1v1.7C20,392.5,20.8,393.5,22.3,393.5z"/>
	<path d="M20.5,375.3h-6.9c-1.1,0-1.8,0.2-2.3,0.7s-0.7,1.1-0.7,2.1c0,1.3,0.3,2.2,1,2.8s1.7,0.9,3.1,0.9h5.9v1H5.4v-1h4.8l1.4,0
		v-0.1c-0.6-0.4-1.1-0.9-1.4-1.5s-0.4-1.4-0.4-2.3c0-2.4,1.3-3.6,3.9-3.6h6.9V375.3z"/>
	<path d="M19.9,368.1c0-0.6-0.1-1.1-0.2-1.6h0.8c0.2,0.5,0.2,1,0.2,1.6c0,0.9-0.3,1.6-0.8,2.1s-1.3,0.7-2.4,0.7h-6.9v1.6h-0.6
		l-0.4-1.6l-2.4-0.5v-0.5h2.6v-3.1h0.8v3.1h6.7c0.8,0,1.4-0.1,1.8-0.4S19.9,368.7,19.9,368.1z"/>
</g>
<line class="st1" x1="69.1" y1="236.5" x2="69.1" y2="549.5"/>
<rect x="54.1" y="336" class="st0" width="29" height="111"/>
<g>
	<path d="M70.9,424.9c1.2,0,2.1,0.4,2.8,1.3s1,2,1,3.5c0,1.7-0.2,3.1-0.6,4h-1c0.4-1,0.7-2.3,0.7-3.9c0-1.2-0.3-2.1-0.8-2.8
		s-1.2-1-2.1-1c-0.5,0-1,0.1-1.3,0.3s-0.7,0.6-1,1.1s-0.6,1.3-0.9,2.3c-0.5,1.5-1,2.5-1.6,3s-1.4,0.8-2.3,0.8
		c-1.1,0-1.9-0.4-2.6-1.3s-1-1.9-1-3.2c0-1.3,0.3-2.6,0.8-3.8l0.9,0.4c-0.5,1.2-0.7,2.3-0.7,3.4c0,1.1,0.2,1.9,0.7,2.5
		s1.2,0.9,2,0.9c0.5,0,1-0.1,1.3-0.3s0.6-0.5,0.9-0.9s0.6-1.2,1-2.2c0.4-1.1,0.8-1.9,1.1-2.5s0.8-1,1.2-1.2S70.2,424.9,70.9,424.9z"
		/>
	<path d="M74.5,421.2v1H59.4v-1H74.5z"/>
	<path d="M74.7,413.4c0,1.5-0.5,2.7-1.4,3.6s-2.3,1.3-4,1.3c-1.7,0-3-0.4-4.1-1.2s-1.5-2-1.5-3.4c0-1.2,0.4-2.2,1.3-3
		s2.1-1.1,3.6-1.1h0.8v7.6c1.5,0,2.6-0.4,3.3-1s1.2-1.6,1.2-2.9c0-0.6,0-1.1-0.1-1.6s-0.3-1-0.5-1.7h0.9c0.3,0.6,0.4,1.2,0.5,1.7
		S74.7,412.8,74.7,413.4z M64.6,413.6c0,1,0.3,1.8,1,2.5s1.6,1,2.9,1.1v-6.6c-1.2,0-2.2,0.3-2.9,0.8S64.6,412.7,64.6,413.6z"/>
	<path d="M74.7,402.4c0,1.5-0.5,2.7-1.4,3.6s-2.3,1.3-4,1.3c-1.7,0-3-0.4-4.1-1.2s-1.5-2-1.5-3.4c0-1.2,0.4-2.2,1.3-3
		s2.1-1.1,3.6-1.1h0.8v7.6c1.5,0,2.6-0.4,3.3-1s1.2-1.6,1.2-2.9c0-0.6,0-1.1-0.1-1.6s-0.3-1-0.5-1.7h0.9c0.3,0.6,0.4,1.2,0.5,1.7
		S74.7,401.8,74.7,402.4z M64.6,402.7c0,1,0.3,1.8,1,2.5s1.6,1,2.9,1.1v-6.6c-1.2,0-2.2,0.3-2.9,0.8S64.6,401.7,64.6,402.7z"/>
	<path d="M74.5,393.4l-10.6,4.1v-1l7.2-2.7c0.9-0.4,1.7-0.6,2.4-0.8v-0.1c-0.9-0.3-1.7-0.5-2.4-0.8l-7.2-2.7v-1l10.6,4.1V393.4z"/>
	<path d="M74.7,382.2c0,1.5-0.5,2.7-1.4,3.6s-2.3,1.3-4,1.3c-1.7,0-3-0.4-4.1-1.2s-1.5-2-1.5-3.4c0-1.2,0.4-2.2,1.3-3
		s2.1-1.1,3.6-1.1h0.8v7.6c1.5,0,2.6-0.4,3.3-1s1.2-1.6,1.2-2.9c0-0.6,0-1.1-0.1-1.6s-0.3-1-0.5-1.7h0.9c0.3,0.6,0.4,1.2,0.5,1.7
		S74.7,381.6,74.7,382.2z M64.6,382.5c0,1,0.3,1.8,1,2.5s1.6,1,2.9,1.1v-6.6c-1.2,0-2.2,0.3-2.9,0.8S64.6,381.6,64.6,382.5z"/>
	<path d="M74.5,359.8v1h-7v8.3h7v1H60.3v-1h6.3v-8.3h-6.3v-1H74.5z"/>
	<path d="M73.9,353.2c0-0.6-0.1-1.1-0.2-1.6h0.8c0.2,0.5,0.2,1,0.2,1.6c0,0.9-0.3,1.6-0.8,2.1s-1.3,0.7-2.4,0.7h-6.9v1.6h-0.6
		l-0.4-1.6l-2.4-0.5v-0.5h2.6v-3.1h0.8v3.1h6.7c0.8,0,1.4-0.1,1.8-0.4S73.9,353.8,73.9,353.2z"/>
	<path d="M73.8,349.5c-0.6,0-1-0.3-1-0.8c0-0.5,0.3-0.8,1-0.8s1,0.3,1,0.8C74.7,349.2,74.4,349.5,73.8,349.5z"/>
</g>
<rect x="194.6" y="308" transform="matrix(-1.836970e-16 1 -1 -1.836970e-16 553.0856 131.9144)" class="st0" width="32" height="69"/>
<g>
	<path d="M193.4,334.9c-1.8,0-3.2,0.6-4.2,1.7s-1.5,2.7-1.5,4.7c0,2,0.5,3.6,1.5,4.7s2.4,1.7,4.2,1.7c1.2,0,2.3-0.2,3.3-0.5v0.9
		c-0.9,0.3-2.1,0.5-3.5,0.5c-2,0-3.6-0.6-4.7-1.9s-1.7-3.1-1.7-5.4c0-1.5,0.3-2.7,0.8-3.8s1.3-2,2.4-2.6s2.2-0.9,3.6-0.9
		c1.4,0,2.6,0.3,3.7,0.8l-0.4,0.9C195.6,335.1,194.5,334.9,193.4,334.9z"/>
	<path d="M206.8,348.5v-6.9c0-1.1-0.2-1.8-0.7-2.3s-1.1-0.7-2.1-0.7c-1.3,0-2.2,0.3-2.8,1s-0.9,1.7-0.9,3.1v5.9h-1v-15.2h1v4.8
		l0,1.4h0.1c0.4-0.6,0.9-1.1,1.5-1.4s1.4-0.4,2.3-0.4c2.4,0,3.6,1.3,3.6,3.9v6.9H206.8z"/>
	<path d="M215.5,348.7c-1.5,0-2.7-0.5-3.6-1.4s-1.3-2.3-1.3-4c0-1.7,0.4-3,1.2-4.1s2-1.5,3.4-1.5c1.2,0,2.2,0.4,3,1.3
		s1.1,2.1,1.1,3.6v0.8h-7.6c0,1.5,0.4,2.6,1,3.3s1.6,1.2,2.9,1.2c0.6,0,1.1,0,1.6-0.1s1-0.3,1.7-0.5v0.9c-0.6,0.3-1.2,0.4-1.7,0.5
		S216.1,348.7,215.5,348.7z M215.2,338.5c-1,0-1.8,0.3-2.5,1s-1,1.6-1.1,2.9h6.6c0-1.2-0.3-2.2-0.8-2.9
		C216.9,338.8,216.2,338.5,215.2,338.5z"/>
	<path d="M228.8,345.7c0,1-0.4,1.7-1.1,2.2s-1.7,0.8-3.1,0.8c-1.4,0-2.5-0.2-3.4-0.7v-1c1.1,0.5,2.2,0.8,3.4,0.8
		c1,0,1.8-0.2,2.4-0.5c0.5-0.3,0.8-0.8,0.8-1.4c0-0.5-0.2-1-0.6-1.3c-0.4-0.4-1.1-0.7-2.1-1.1c-1.1-0.4-1.8-0.7-2.2-1
		s-0.8-0.6-1-0.9c-0.2-0.3-0.3-0.8-0.3-1.3c0-0.8,0.3-1.4,1-1.9c0.7-0.5,1.6-0.7,2.8-0.7c1.1,0,2.2,0.2,3.3,0.6l-0.4,0.9
		c-1-0.4-2-0.6-2.9-0.6c-0.9,0-1.6,0.1-2.1,0.4s-0.8,0.7-0.8,1.2c0,0.6,0.2,1,0.6,1.3c0.4,0.3,1.2,0.7,2.3,1.1
		c1,0.3,1.7,0.7,2.1,0.9c0.4,0.3,0.8,0.6,1,0.9C228.7,344.8,228.8,345.2,228.8,345.7z"/>
	<path d="M234.3,347.8c0.6,0,1.1-0.1,1.6-0.2v0.8c-0.5,0.2-1,0.2-1.6,0.2c-0.9,0-1.6-0.3-2.1-0.8c-0.4-0.5-0.7-1.3-0.7-2.4v-6.9H230
		v-0.6l1.6-0.4l0.5-2.4h0.5v2.6h3.1v0.8h-3.1v6.7c0,0.8,0.1,1.4,0.4,1.8C233.3,347.6,233.7,347.8,234.3,347.8z"/>
</g>
<line class="st1" x1="74.6" y1="223.5" x2="340.6" y2="223.5"/>
<rect x="184.6" y="169.1" transform="matrix(-1.836970e-16 1 -1 -1.836970e-16 432.5856 13.4144)" class="st0" width="50" height="107.8"/>
<line class="st3" x1="358.1" y1="638.5" x2="358.1" y2="525"/>
<g>
	<path d="M348.4,645.9c-1.8,0-3.2,0.6-4.2,1.7c-1,1.1-1.5,2.7-1.5,4.7c0,2,0.5,3.6,1.5,4.7c1,1.1,2.4,1.7,4.2,1.7
		c1.2,0,2.3-0.2,3.3-0.5v0.9c-0.9,0.3-2.1,0.5-3.5,0.5c-2,0-3.6-0.6-4.7-1.9c-1.2-1.3-1.7-3.1-1.7-5.4c0-1.5,0.3-2.7,0.8-3.8
		c0.5-1.1,1.3-2,2.4-2.6c1-0.6,2.2-0.9,3.6-0.9c1.4,0,2.6,0.3,3.7,0.8l-0.4,0.9C350.6,646.1,349.5,645.9,348.4,645.9z"/>
	<path d="M355.3,648.8v6.9c0,1.1,0.2,1.8,0.7,2.3c0.4,0.5,1.1,0.7,2.1,0.7c1.3,0,2.2-0.3,2.8-1c0.6-0.6,0.9-1.7,0.9-3.1v-5.9h1v10.6
		h-0.8l-0.2-1.5h-0.1c-0.7,1.1-1.9,1.7-3.7,1.7c-2.4,0-3.6-1.3-3.6-3.9v-6.9H355.3z"/>
	<path d="M370.2,649.7h-2.5v9.8h-1v-9.8h-2v-0.6l2-0.4v-0.8c0-1.3,0.2-2.3,0.7-2.9c0.5-0.6,1.3-0.9,2.3-0.9c0.6,0,1.2,0.1,1.8,0.3
		l-0.2,0.8c-0.5-0.2-1-0.2-1.6-0.2c-0.8,0-1.3,0.2-1.6,0.7c-0.3,0.4-0.5,1.2-0.5,2.2v1h2.5V649.7z M376.2,649.7h-2.5v9.8h-1v-9.8h-2
		v-0.6l2-0.4v-0.8c0-1.3,0.2-2.3,0.7-2.9c0.5-0.6,1.3-0.9,2.3-0.9c0.6,0,1.2,0.1,1.8,0.3l-0.2,0.8c-0.5-0.2-1-0.2-1.6-0.2
		c-0.8,0-1.3,0.2-1.6,0.7c-0.3,0.4-0.5,1.2-0.5,2.2v1h2.5V649.7z"/>
</g>
<g>
	<path d="M179.9,225.8c0,1.2-0.4,2.1-1.3,2.8s-2,1-3.5,1c-1.7,0-3.1-0.2-4-0.6v-1c1,0.4,2.3,0.7,3.9,0.7c1.2,0,2.1-0.3,2.8-0.8
		s1-1.2,1-2.1c0-0.5-0.1-1-0.3-1.3s-0.6-0.7-1.1-1s-1.3-0.6-2.3-0.9c-1.5-0.5-2.5-1-3-1.6s-0.8-1.4-0.8-2.3c0-1.1,0.4-1.9,1.3-2.6
		s1.9-1,3.2-1c1.3,0,2.6,0.3,3.8,0.8l-0.4,0.9c-1.2-0.5-2.3-0.7-3.4-0.7c-1.1,0-1.9,0.2-2.5,0.7s-0.9,1.2-0.9,2c0,0.5,0.1,1,0.3,1.3
		s0.5,0.6,0.9,0.9s1.2,0.6,2.2,1c1.1,0.4,1.9,0.8,2.5,1.1s1,0.8,1.2,1.2S179.9,225.1,179.9,225.8z"/>
	<path d="M190.1,229.5v-6.9c0-1.1-0.2-1.8-0.7-2.3s-1.1-0.7-2.1-0.7c-1.3,0-2.2,0.3-2.8,1s-0.9,1.7-0.9,3.1v5.9h-1v-15.2h1v4.8
		l0,1.4h0.1c0.4-0.6,0.9-1.1,1.5-1.4s1.4-0.4,2.3-0.4c2.4,0,3.6,1.3,3.6,3.9v6.9H190.1z"/>
	<path d="M203.3,224.1c0,1.7-0.4,3.1-1.3,4.1s-2,1.5-3.5,1.5c-0.9,0-1.8-0.2-2.5-0.7s-1.3-1.1-1.6-1.9s-0.6-1.8-0.6-2.9
		c0-1.7,0.4-3.1,1.3-4s2-1.5,3.5-1.5c1.5,0,2.6,0.5,3.4,1.5S203.3,222.4,203.3,224.1z M194.9,224.1c0,1.5,0.3,2.6,1,3.4
		s1.5,1.2,2.7,1.2s2.1-0.4,2.7-1.2s1-2,1-3.4c0-1.5-0.3-2.6-1-3.4s-1.6-1.2-2.7-1.2s-2.1,0.4-2.7,1.2S194.9,222.7,194.9,224.1z"/>
	<path d="M207.1,218.8v6.9c0,1.1,0.2,1.8,0.7,2.3s1.1,0.7,2.1,0.7c1.3,0,2.2-0.3,2.8-1s0.9-1.7,0.9-3.1v-5.9h1v10.6h-0.8l-0.2-1.5
		h-0.1c-0.7,1.1-1.9,1.7-3.7,1.7c-2.4,0-3.6-1.3-3.6-3.9v-6.9H207.1z"/>
	<path d="M219,229.5h-1v-15.2h1V229.5z"/>
	<path d="M226.4,218.6c0.8,0,1.4,0.1,2,0.4c0.6,0.3,1.1,0.8,1.5,1.4h0.1c0-0.8-0.1-1.6-0.1-2.4v-3.8h1v15.2h-0.6l-0.2-1.6h-0.1
		c-0.8,1.2-2,1.8-3.5,1.8c-1.5,0-2.6-0.5-3.4-1.4c-0.8-0.9-1.2-2.2-1.2-4c0-1.8,0.4-3.2,1.2-4.2C223.8,219.1,225,218.6,226.4,218.6z
		 M226.4,219.5c-1.2,0-2,0.4-2.6,1.2c-0.6,0.8-0.9,2-0.9,3.5c0,3,1.2,4.5,3.5,4.5c1.2,0,2.1-0.3,2.6-1c0.6-0.7,0.8-1.8,0.8-3.4v-0.2
		c0-1.6-0.3-2.8-0.8-3.5C228.5,219.9,227.7,219.5,226.4,219.5z"/>
	<path d="M238.7,229.7c-1.5,0-2.7-0.5-3.6-1.4c-0.9-1-1.3-2.3-1.3-4c0-1.7,0.4-3,1.2-4.1c0.8-1,2-1.5,3.4-1.5c1.2,0,2.2,0.4,3,1.3
		s1.1,2.1,1.1,3.6v0.8h-7.6c0,1.5,0.4,2.6,1,3.3c0.7,0.8,1.6,1.2,2.9,1.2c0.6,0,1.1,0,1.6-0.1s1-0.3,1.7-0.5v0.9
		c-0.6,0.3-1.2,0.4-1.7,0.5S239.3,229.7,238.7,229.7z M238.4,219.5c-1,0-1.8,0.3-2.5,1c-0.6,0.7-1,1.6-1.1,2.9h6.6
		c0-1.2-0.3-2.2-0.8-2.9C240.1,219.8,239.4,219.5,238.4,219.5z"/>
	<path d="M249.6,218.6c0.4,0,0.9,0,1.4,0.1l-0.2,0.9c-0.4-0.1-0.9-0.2-1.4-0.2c-0.9,0-1.6,0.4-2.2,1.2c-0.6,0.8-0.9,1.7-0.9,2.9v5.9
		h-1v-10.6h0.8l0.1,1.9h0.1c0.4-0.8,0.9-1.3,1.4-1.6C248.3,218.8,248.9,218.6,249.6,218.6z"/>
</g>
</svg>
