<?xml version="1.0" encoding="utf-8"?>
<!-- Generator: Adobe Illustrator 21.0.0, SVG Export Plug-In . SVG Version: 6.00 Build 0)  -->
<svg version="1.1" id="Layer_1" xmlns="http://www.w3.org/2000/svg" xmlns:xlink="http://www.w3.org/1999/xlink" x="0px" y="0px"
	 viewBox="0 0 434 1200" style="enable-background:new 0 0 434 1200;" xml:space="preserve">
<style type="text/css">
	.st0{fill:#E6E6E6;}
	.st1{fill:#999999;stroke:#999999;stroke-miterlimit:10;}
	.st2{fill:#666666;}
</style>
<g id="_x31_lH2Hz.tif">
	<g>
		<path class="st0" d="M273,98.2c1.6-0.3,2.6-0.5,3.7-0.7c3.5-0.8,5.8,0.8,7.1,3.9c2.1,4.8,1.8,9.6-0.4,14.2
			c-2,4.3-4.2,8.5-6.4,12.8c-1.4,2.8-2.5,5.5-2.8,8.8c-0.3,4.4-3.2,6.6-7.9,6.2c-1.9-0.2-3.1,0.1-3.4,2c-1.2,8.1-5.2,15.6-6,23.9
			c-1,9.1,0.3,18,1.8,27c0.4,2.7,2.7,3.3,4.8,4.4c20.4,10.2,42.1,16.7,63.4,24.5c10.7,3.9,20.5,10.1,31,14.7
			c7.7,3.4,12,8.9,15.9,15.9c15.5,27.8,24.9,57.6,30,88.9c2.5,15,7.2,29.3,10.5,44.1c1.5,6.9,3.7,13.5,6.1,20.1
			c1.3,3.5,1.9,7.1,1.4,10.9c-0.2,1.5-0.7,3.1-0.5,4.6c1.4,11.2-4.3,20.2-9.3,29.4c-1.7,3.2-2.9,6.7-5.6,9.5
			c-3.4,3.6-7.2,6.2-12.4,6c-5.4-0.2-9.8,1.9-13.8,5.5c-8.3,7.5-17.8,13.4-27.5,18.8c-3.4,1.9-6.9,3.7-10.5,5.2
			c-2.2,1-2.7,2.4-2.4,4.5c2.5,19.1,4.8,38.2,7.3,57.4c2.2,16.9,5.9,33.7,8.4,50.6c1.7,11.8,3.8,23.5,6,35.2
			c1.2,6.4,0.5,12.8-2.2,18.9c-3.6,8.2-6.8,16.5-11.4,24.2c-1.6,2.7-2.7,5.5-3.7,8.5c-1.2,3.7-2.9,7.1-5.5,9.9
			c-1.5,1.6-2.1,3.3-2.1,5.4c0,9.5,0,19.1-0.1,28.6c-0.1,16.9-1,33.8-6.5,50.1c-1,2.8-1.3,5.8-1.2,8.8c0,1.1,0.2,2.2-0.1,3.2
			c-2.9,10.4-1.9,20.5,1.8,30.6c1.3,3.6-0.2,6.9-2.9,9.7c-3.3,3.4-3,5,0.9,7.5c4,2.6,4.6,5.9,3.5,12.4c-1,5.9-2,12,3.1,17.1
			c2.4,2.4,2.8,5.6,2.5,9c-0.1,1.2-0.1,2.4,0.2,3.5c6.7,20.5,4.5,41.6,3.9,62.6c-0.2,5.8-0.3,11.7-0.6,17.5
			c-0.3,7.4-0.9,14.7-2.9,21.8c-0.4,1.5,0.2,3,0.5,4.6c2.2,10.7,3.7,21.4-3,31.3c-3.8,5.6-3.7,11.2,0.7,16.8
			c3.8,4.8,4.5,10.1,1.1,15.6c-0.9,1.4-0.6,2.5,0.9,3.2c1,0.5,1.9,0.9,2.9,1.4c4.4,2.4,6.4,6.9,4.5,11.5c-1.7,4-2.8,8.4-6.7,11.1
			c-1.3,0.9-0.7,2.1-0.3,3.2c3.3,10.1,6.8,20,11,29.8c1.9,4.6,5.2,8.5,7.4,13c3.7,7.4,7.6,14.6,8.2,23c0.1,1.2,0.7,2.2,1.4,3.2
			c3.7,5.3,3.2,11.2,2.7,17.2c-0.3,3.7-2.7,5.6-6.1,6.6c-3,0.9-6.1,1.1-9.2,1.2c-13.7,0.3-27.4,1.5-40.9-1.8
			c-5.1-1.3-9.9-2.9-13.9-6.7c-5.3-5.1-6.4-10.9-4.2-17.5c0.5-1.6,1.3-3.1,1.7-4.7c0.9-3.1-0.5-5.6-3.5-6.7
			c-6.4-2.2-11-9.5-10.5-16.2c0.3-3.3-0.6-6.9,0.3-10c2.8-9.2-0.5-19,3.3-28c0.4-1,0.3-1.9-0.8-2.4c-4-1.6-6.2-5.4-8.4-8.5
			c-2.3-3.3-2.8-8-3.4-12.1c-0.8-5.6-0.8-11.2,2.8-16.1c1.4-1.9,1.5-4,1.1-6.2c-1.4-7.5-2.1-15.1-4.5-22.4c-1.8-5.5-1.8-11.3-2.2-17
			c-0.4-5.9-1.8-11.5-2.6-17.3c-2.3-17.3-4.6-34.6-5.6-52.1c-0.8-14.2-0.9-28.6-3.2-42.7c-0.5-2.9-0.1-5.6,1.8-8.1
			c2.2-2.7,1.9-5.5-0.4-8.1c-1.1-1.2-1.6-2.5-1.2-4.2c0.9-3.6-0.2-6.6-3.2-8.8c-2.9-2.1-3.8-4.9-3.7-8.4c0.3-6.9-1-13.4-3.5-19.9
			c-2.3-6-2.1-12.7-2.7-19c-1.2-13.3-2.3-26.5-4.7-39.7c-0.7-3.8-1.1-7.8-1.1-11.7c0-4.3-1.8-7.7-3.7-11.3c-4.6-9-6.6-18.8-8.7-28.6
			c-0.4-1.8,0.1-4.4-1.9-5c-3-1-6.4-0.7-9.5,0c-1.4,0.3-1.1,1.9-1.3,3.1c-1.4,8.4-2,17-3.9,25.4c-1,4.6-2.7,8.9-6.3,12.2
			c-0.9,0.8-1,1.8-1.1,2.9c-0.9,14.6-2.1,29.2-2.8,43.8c-0.5,10.9-3,21.4-5.3,32c-0.4,1.7-1.4,3.3-2.3,4.8c-1.1,1.8-2.3,3.6-2.1,5.6
			c0.7,5.5-2.1,9.5-5,13.5c-2.3,3.1-2,5.6,0.5,8.6c3,3.5,2.7,9-0.7,12c-2.7,2.4-2.8,4.9-1.4,7.7c1.7,3.3,2,6.5,1.2,10
			c-1.7,7.8-0.4,15.7-0.9,23.5c-1,16-2.6,32-3.1,48c-0.6,15.9-3.6,31.4-5.3,47.1c-0.7,6.1-2.7,11.9-6.7,16.7c-2.4,3-2.6,5.5-0.1,8.5
			c3,3.6,5.7,7.4,7.7,11.5c2.3,4.5,1.9,8.8,0.5,13.7c-1.8,6.4-5.9,11.1-9.4,16.4c-0.5,0.8-0.4,1.5-0.4,2.3
			c0.1,5.8,0.2,11.7,0.2,17.5c0,0.1,0,0.2,0,0.4c-2.6,7.6-0.2,15.4-0.5,23.1c-0.2,5.1-1.7,8.6-5.6,11.5c-2.5,1.9-3.2,7.4-1.4,10
			c6.3,8.6,4,19.9-7.8,24c-6,2.1-12.2,2.4-18.3,2.4c-10.7,0-21.4-0.1-32-1.8c-3.2-0.5-6.1-1.7-8.8-3.5c-7.2-4.9-6.5-15.5-3-20.8
			c1.5-2.3,2.5-4.5,2.4-7.2c-0.2-4.4,1.1-8.4,2.9-12.4c6.9-14.7,13.7-29.5,18.5-45.1c0.7-2.2,0.8-3.6-1.4-5.4
			c-4-3.2-5.3-8.2-5.7-13.1c-0.3-3.5-0.7-6.8-1.5-10.2c-1.1-4.6-0.3-9,2.6-12.9c1.1-1.5,1.8-3.1,1-5c-3.7-10.1-2.6-20.5-2-30.8
			c0.8-13.5-0.5-26.9-0.7-40.3c-0.1-5.7-0.7-11.4-0.9-17.1c-0.7-19.1-1.7-38.3-1.7-57.5c0-8.9,2.3-17.4,2.5-26.3
			c0-2.1,1.2-4.1,3.5-5c3.8-1.4,6.2-7.1,3.8-10.2c-2.8-3.8-2-7.1,0.4-10.4c1.3-1.7,1.5-3.4,1.4-5.6c-0.1-5.7-0.5-11.3,0.8-17
			c1-4.2-0.6-8.7-2.5-12.7c-0.9-2.1-2.3-4.1-2-6.4c1.1-7.5-1.2-14.6-1.7-22c-0.5-7.8-1.3-15.7-1.2-23.5c0.1-15.2-0.8-30.5-1.5-45.7
			c-0.1-2.3-1.1-3.8-2.6-5.3c-8.6-8.3-12.1-18.6-14.2-30.3c-1.7-9.1-2.4-18-2.4-27.2c0-12.9,2.4-25.6,3.8-38.3c1.6-15,3.6-30,5.4-45
			c2.6-21.4,3.9-42.8,7.1-64.1c0.5-3.5-0.4-5.3-3.9-6.8c-10.1-4.2-19.7-9.6-28.7-15.8c-5.6-3.8-11.6-6.1-18.2-6.9
			c-7.2-0.9-13-4.4-17.5-9.5c-8.9-10.3-16.5-21.5-22.6-33.7c-2.1-4.2-1.6-8.3,1.9-11c6.6-5.1,8.3-12,10-19.6
			c6.1-26.7,12.4-53.3,19.3-79.8c3.2-12.2,6.5-24.4,11.9-35.9c4.8-10,9.9-19.8,16.2-28.9c1.2-1.7,2.7-2.8,4.5-3.9
			c5.2-3.1,10.3-6.5,15.4-9.8c7.5-4.8,15-9.6,22.6-14.4c0.8-0.5,1.7-1.1,2.6-1.1c7-0.4,12.9-3.8,19.2-6.4c7.8-3.2,15.5-7,23.5-9.6
			c15.9-5.1,17.7-21.6,14.1-33.3c-1.1-3.7-3-7-5.1-10.2c-3.9-6.2-6.6-12.9-8-20.1c-0.5-2.4-1.2-3.9-4.2-3.4c-3.2,0.5-5.6-1.3-6-4.3
			c-1.1-8.4-5.7-15-10.4-21.6c-3.2-4.4-3.2-9.4-1.3-14.3c1.7-4.6,4.7-6,9.6-4.7c1,0.3,2.2,1,3.1,0.2c1.1-1,0.2-2.2-0.1-3.3
			c-4.1-18.9-2.1-37.2,7.2-54.3c1.8-3.3,5.2-5.8,7.9-8.7c5.2-5.5,11-10.3,17.4-14.1c6.2-3.7,12.7-6.7,20.4-7.5
			c6.2-0.7,12.1,0.8,18.1,0.7c1.9,0,2.8,1.7,4.8,1.9c7.5,0.5,13.3,4.9,19.1,9c2,1.4,4.5,2.1,6.6,3.3c5.4,2.9,7.6,8.1,10.1,12.9
			c3.7,7.1,5.5,14.8,6.9,22.7c1.2,6.9,1.8,13.7,1.8,20.6C274.6,89.6,274.3,93.7,273,98.2z M104.6,372.6c-2.7,3.2-2.5,6.3-2.8,9.3
			c-0.3,3.1-0.5,6.4-3.1,8.5c-3.2,2.7-2.7,5.3-1.7,9c2.8,10.2,4.2,20.5-2.2,30.1c-0.9,1.3-0.7,2.1,0.4,3c1.4,1.1,2.9,1.9,4.8,2.1
			c3,0.2,5.9,0.6,8.8,1.2c2.6,0.6,3.5-0.2,3.2-2.8c-0.9-8-1.7-16-2.6-24.1c-1-9.4-4-18.6-4.3-28.1
			C105.1,378.2,104.9,375.8,104.6,372.6z M337.9,381.8c-1.2,0.7-0.9,1.8-1.1,2.8c-3.1,15.7-2.5,31.7-3.4,47.6
			c-0.1,1.4-0.7,3.4,1.2,4.1c2,0.8,3.3-0.7,4.5-2.1c2.7-3,5.3-6.1,8.2-9c4-4.1,3.6-9.6-1.2-13c-2-1.4-4.6-2.4-5.5-4.9
			c-2.6-7.1-4.6-14.3-2.5-21.9C338.3,384.3,339.2,383,337.9,381.8z"/>
	</g>
</g>
<g>
	<line class="st1" x1="108" y1="373.5" x2="339" y2="373.5"/>
	<rect x="198" y="361" class="st0" width="50" height="23"/>
	<g>
		<path class="st2" d="M205.5,364.8h3.7c1.7,0,3,0.3,3.8,0.8c0.8,0.5,1.2,1.3,1.2,2.5c0,0.8-0.2,1.4-0.7,1.9c-0.4,0.5-1.1,0.8-1.9,1
			v0.1c2,0.3,3,1.4,3,3.2c0,1.2-0.4,2.1-1.2,2.8c-0.8,0.7-1.9,1-3.3,1h-4.6V364.8z M207,370.5h2.5c1.1,0,1.9-0.2,2.3-0.5
			c0.5-0.3,0.7-0.9,0.7-1.7c0-0.7-0.3-1.3-0.8-1.6s-1.4-0.5-2.5-0.5H207V370.5z M207,371.8v4.9h2.8c1.1,0,1.9-0.2,2.4-0.6
			c0.5-0.4,0.8-1.1,0.8-1.9c0-0.8-0.3-1.4-0.8-1.8c-0.6-0.4-1.4-0.6-2.5-0.6H207z"/>
		<path class="st2" d="M218.6,368.1v6.4c0,0.8,0.2,1.4,0.6,1.8c0.4,0.4,0.9,0.6,1.7,0.6c1,0,1.8-0.3,2.3-0.8
			c0.5-0.6,0.7-1.5,0.7-2.8v-5.2h1.5v9.9h-1.2l-0.2-1.3h-0.1c-0.3,0.5-0.7,0.9-1.3,1.1c-0.5,0.3-1.2,0.4-1.9,0.4
			c-1.2,0-2.1-0.3-2.7-0.9c-0.6-0.6-0.9-1.5-0.9-2.7v-6.5H218.6z"/>
		<path class="st2" d="M234.9,375.3c0,0.9-0.3,1.6-1,2.1s-1.6,0.7-2.9,0.7c-1.3,0-2.3-0.2-3.1-0.6v-1.4c0.5,0.2,1,0.4,1.5,0.6
			c0.5,0.1,1.1,0.2,1.6,0.2c0.8,0,1.4-0.1,1.8-0.4s0.6-0.6,0.6-1.1c0-0.4-0.2-0.7-0.5-1c-0.3-0.3-1-0.6-2-1c-0.9-0.3-1.6-0.6-2-0.9
			c-0.4-0.3-0.7-0.5-0.9-0.9c-0.2-0.3-0.3-0.7-0.3-1.2c0-0.8,0.3-1.4,1-1.9c0.7-0.5,1.6-0.7,2.7-0.7c1.1,0,2.1,0.2,3.1,0.6l-0.5,1.2
			c-1-0.4-1.9-0.6-2.7-0.6c-0.7,0-1.2,0.1-1.6,0.3c-0.4,0.2-0.5,0.5-0.5,0.9c0,0.3,0.1,0.5,0.2,0.7c0.1,0.2,0.4,0.4,0.7,0.5
			s0.9,0.4,1.7,0.7c1.2,0.4,2,0.9,2.4,1.3C234.7,374.1,234.9,374.6,234.9,375.3z"/>
		<path class="st2" d="M240.6,376.9c0.3,0,0.5,0,0.8-0.1s0.4-0.1,0.6-0.1v1.1c-0.2,0.1-0.4,0.1-0.7,0.2c-0.3,0.1-0.6,0.1-0.9,0.1
			c-1.9,0-2.9-1-2.9-3v-5.9h-1.4v-0.7l1.4-0.6l0.6-2.1h0.9v2.3h2.9v1.2H239v5.8c0,0.6,0.1,1.1,0.4,1.4
			C239.7,376.8,240.1,376.9,240.6,376.9z"/>
	</g>
</g>
<g>
	<line class="st1" x1="97" y1="612.5" x2="350" y2="612.5"/>
	<rect x="194" y="600" class="st0" width="58" height="23"/>
	<g>
		<path class="st2" d="M212.6,617h-1.5l-2.7-8.8c-0.1-0.4-0.3-0.9-0.4-1.5c-0.2-0.6-0.2-1-0.2-1.1c-0.1,0.8-0.3,1.7-0.6,2.6
			l-2.6,8.8h-1.5l-3.5-13.2h1.6l2.1,8.1c0.3,1.1,0.5,2.2,0.6,3.1c0.2-1.1,0.4-2.2,0.7-3.2l2.4-8h1.6l2.5,8.1c0.3,0.9,0.5,2,0.7,3.2
			c0.1-0.9,0.3-1.9,0.6-3.1l2.1-8.1h1.6L212.6,617z"/>
		<path class="st2" d="M224.1,617l-0.3-1.4h-0.1c-0.5,0.6-1,1-1.5,1.3c-0.5,0.2-1.1,0.3-1.8,0.3c-1,0-1.7-0.3-2.3-0.8
			c-0.6-0.5-0.8-1.2-0.8-2.2c0-2,1.6-3,4.8-3.1l1.7-0.1v-0.6c0-0.8-0.2-1.3-0.5-1.7c-0.3-0.4-0.9-0.6-1.6-0.6
			c-0.8,0-1.8,0.3-2.8,0.8l-0.5-1.1c0.5-0.3,1-0.5,1.6-0.6s1.2-0.2,1.7-0.2c1.2,0,2.1,0.3,2.6,0.8c0.6,0.5,0.9,1.4,0.9,2.5v6.7
			H224.1z M220.7,615.9c0.9,0,1.7-0.3,2.2-0.8c0.5-0.5,0.8-1.2,0.8-2.1v-0.9l-1.5,0.1c-1.2,0-2,0.2-2.6,0.6s-0.8,0.8-0.8,1.5
			c0,0.5,0.2,1,0.5,1.2C219.6,615.8,220.1,615.9,220.7,615.9z"/>
		<path class="st2" d="M228.1,604.4c0-0.3,0.1-0.6,0.3-0.8s0.4-0.2,0.6-0.2c0.2,0,0.4,0.1,0.6,0.2s0.3,0.4,0.3,0.7s-0.1,0.6-0.3,0.8
			s-0.4,0.2-0.6,0.2c-0.3,0-0.5-0.1-0.6-0.2S228.1,604.8,228.1,604.4z M229.8,617h-1.5v-9.9h1.5V617z"/>
		<path class="st2" d="M239.3,614.3c0,0.9-0.3,1.6-1,2.1s-1.6,0.7-2.9,0.7c-1.3,0-2.3-0.2-3.1-0.6v-1.4c0.5,0.2,1,0.4,1.5,0.6
			c0.5,0.1,1.1,0.2,1.6,0.2c0.8,0,1.4-0.1,1.8-0.4c0.4-0.2,0.6-0.6,0.6-1.1c0-0.4-0.2-0.7-0.5-1c-0.3-0.3-1-0.6-2-1
			c-0.9-0.3-1.6-0.6-2-0.9c-0.4-0.3-0.7-0.5-0.9-0.9s-0.3-0.7-0.3-1.2c0-0.8,0.3-1.4,1-1.9c0.7-0.5,1.6-0.7,2.7-0.7
			c1.1,0,2.1,0.2,3.1,0.7l-0.5,1.2c-1-0.4-1.9-0.6-2.7-0.6c-0.7,0-1.2,0.1-1.6,0.3c-0.4,0.2-0.5,0.5-0.5,0.9c0,0.3,0.1,0.5,0.2,0.7
			c0.1,0.2,0.4,0.4,0.7,0.5s0.9,0.4,1.7,0.7c1.2,0.4,2,0.9,2.4,1.3C239.1,613.1,239.3,613.6,239.3,614.3z"/>
		<path class="st2" d="M244.9,615.9c0.3,0,0.5,0,0.8-0.1c0.2,0,0.4-0.1,0.6-0.1v1.1c-0.2,0.1-0.4,0.1-0.7,0.2
			c-0.3,0.1-0.6,0.1-0.9,0.1c-1.9,0-2.9-1-2.9-3v-5.9h-1.4v-0.7l1.4-0.6l0.6-2.1h0.9v2.3h2.9v1.2h-2.9v5.8c0,0.6,0.1,1.1,0.4,1.4
			S244.5,615.9,244.9,615.9z"/>
	</g>
</g>
<g>
	<line class="st1" x1="368" y1="253.5" x2="83" y2="253.5"/>
	<rect x="181" y="241" class="st0" width="88" height="23"/>
	<g>
		<path class="st2" d="M195.3,254.5c0,1.2-0.4,2.1-1.3,2.7s-2,1-3.4,1c-1.6,0-2.8-0.2-3.6-0.6v-1.5c0.5,0.2,1.1,0.4,1.8,0.5
			c0.6,0.1,1.3,0.2,1.9,0.2c1,0,1.8-0.2,2.3-0.6c0.5-0.4,0.8-0.9,0.8-1.6c0-0.5-0.1-0.8-0.3-1.1c-0.2-0.3-0.5-0.6-0.9-0.8
			s-1.1-0.5-2-0.8c-1.2-0.4-2.1-1-2.6-1.6c-0.5-0.6-0.8-1.4-0.8-2.4c0-1,0.4-1.8,1.1-2.4c0.8-0.6,1.8-0.9,3-0.9
			c1.3,0,2.5,0.2,3.6,0.7l-0.5,1.3c-1.1-0.5-2.1-0.7-3.2-0.7c-0.8,0-1.4,0.2-1.9,0.5c-0.5,0.3-0.7,0.8-0.7,1.5
			c0,0.5,0.1,0.8,0.3,1.1c0.2,0.3,0.5,0.6,0.9,0.8s1,0.5,1.8,0.8c1.4,0.5,2.3,1,2.9,1.6S195.3,253.6,195.3,254.5z"/>
		<path class="st2" d="M204.6,258v-6.4c0-0.8-0.2-1.4-0.6-1.8s-0.9-0.6-1.7-0.6c-1,0-1.8,0.3-2.3,0.8s-0.7,1.5-0.7,2.8v5.2h-1.5v-14
			h1.5v4.2c0,0.5,0,0.9-0.1,1.3h0.1c0.3-0.5,0.7-0.8,1.3-1.1c0.5-0.3,1.2-0.4,1.9-0.4c1.2,0,2.1,0.3,2.7,0.9
			c0.6,0.6,0.9,1.5,0.9,2.7v6.4H204.6z"/>
		<path class="st2" d="M217.7,253c0,1.6-0.4,2.9-1.2,3.8c-0.8,0.9-1.9,1.4-3.4,1.4c-0.9,0-1.7-0.2-2.4-0.6c-0.7-0.4-1.2-1-1.6-1.8
			c-0.4-0.8-0.6-1.7-0.6-2.7c0-1.6,0.4-2.9,1.2-3.8c0.8-0.9,1.9-1.3,3.4-1.3c1.4,0,2.5,0.5,3.3,1.4
			C217.3,250.2,217.7,251.5,217.7,253z M210.1,253c0,1.3,0.3,2.2,0.8,2.9c0.5,0.7,1.2,1,2.2,1s1.7-0.3,2.2-1
			c0.5-0.7,0.8-1.6,0.8-2.9c0-1.3-0.3-2.2-0.8-2.9c-0.5-0.7-1.3-1-2.2-1c-1,0-1.7,0.3-2.2,1C210.4,250.8,210.1,251.8,210.1,253z"/>
		<path class="st2" d="M221.7,248.1v6.4c0,0.8,0.2,1.4,0.5,1.8c0.4,0.4,0.9,0.6,1.7,0.6c1,0,1.8-0.3,2.3-0.8
			c0.5-0.6,0.7-1.5,0.7-2.8v-5.2h1.5v9.9h-1.2l-0.2-1.3h-0.1c-0.3,0.5-0.7,0.9-1.3,1.1c-0.5,0.3-1.2,0.4-1.9,0.4
			c-1.2,0-2.1-0.3-2.7-0.9s-0.9-1.5-0.9-2.7v-6.5H221.7z"/>
		<path class="st2" d="M233.1,258h-1.5v-14h1.5V258z"/>
		<path class="st2" d="M243,256.7L243,256.7c-0.8,1-1.8,1.5-3.2,1.5c-1.3,0-2.3-0.4-3-1.3c-0.7-0.9-1.1-2.1-1.1-3.8
			c0-1.6,0.4-2.9,1.1-3.8c0.7-0.9,1.7-1.4,3-1.4c1.3,0,2.4,0.5,3.1,1.5h0.1l-0.1-0.7l0-0.7v-4h1.5v14h-1.2L243,256.7z M240,256.9
			c1,0,1.8-0.3,2.2-0.8s0.7-1.5,0.7-2.7v-0.3c0-1.4-0.2-2.4-0.7-3s-1.2-0.9-2.2-0.9c-0.9,0-1.6,0.3-2,1c-0.5,0.7-0.7,1.6-0.7,2.9
			c0,1.3,0.2,2.2,0.7,2.9C238.5,256.6,239.1,256.9,240,256.9z"/>
		<path class="st2" d="M251.8,258.2c-1.5,0-2.6-0.4-3.5-1.3c-0.8-0.9-1.3-2.1-1.3-3.7c0-1.6,0.4-2.9,1.2-3.8
			c0.8-0.9,1.8-1.4,3.2-1.4c1.2,0,2.2,0.4,2.9,1.2c0.7,0.8,1.1,1.9,1.1,3.2v0.9h-6.8c0,1.2,0.3,2,0.9,2.6s1.3,0.9,2.3,0.9
			c1.1,0,2.1-0.2,3.2-0.7v1.3c-0.5,0.2-1,0.4-1.5,0.5C253,258.1,252.5,258.2,251.8,258.2z M251.4,249.2c-0.8,0-1.4,0.3-1.9,0.8
			c-0.5,0.5-0.8,1.2-0.8,2.1h5.2c0-0.9-0.2-1.7-0.6-2.2S252.2,249.2,251.4,249.2z"/>
		<path class="st2" d="M262.5,247.9c0.4,0,0.8,0,1.2,0.1l-0.2,1.4c-0.4-0.1-0.8-0.1-1.1-0.1c-0.8,0-1.5,0.3-2.1,1
			c-0.6,0.6-0.9,1.5-0.9,2.4v5.3H258v-9.9h1.2l0.2,1.8h0.1c0.4-0.6,0.8-1.1,1.3-1.5C261.3,248.1,261.9,247.9,262.5,247.9z"/>
	</g>
</g>
</svg>
