<?xml version="1.0" encoding="utf-8"?>
<!-- Generator: Adobe Illustrator 20.1.0, SVG Export Plug-In . SVG Version: 6.00 Build 0)  -->
<svg version="1.1" id="Layer_1" xmlns="http://www.w3.org/2000/svg" xmlns:xlink="http://www.w3.org/1999/xlink" x="0px" y="0px"
	 viewBox="0 0 1920 1080" style="enable-background:new 0 0 1920 1080;" xml:space="preserve">
<style type="text/css">
	.st0{fill:none;stroke:#ccc;stroke-miterlimit:10;}
</style>
<g>
	<path class="st0" d="M2326.7,9.6c-89.9,114.3-288.6,174.5-417.3,338.1c-128.6,163.7-104.1,382.8-238,553.2
		c-119.8,152.5-388.6,224.5-574.5,187.7"/>
	<path class="st0" d="M2330.2,11.2c-92,114.5-291.1,169.4-420.5,332.9c-129.9,164-99.7,388.7-235.7,564.1
		c-121.7,156.9-392.4,227.4-572.3,191.7"/>
	<path class="st0" d="M2333.7,12.8c-94.1,114.7-293.6,164.4-423.8,327.7c-131.2,164.3-95.3,394.7-233.3,575
		c-123.5,161.2-396.2,230.3-570.2,195.8"/>
	<path class="st0" d="M2337.1,14.5c-96.3,114.8-296.1,159.4-427,322.5c-132.4,164.7-90.9,400.6-231,585.9
		c-125.3,165.6-400,233.2-568,199.9"/>
	<path class="st0" d="M2340.6,16.1c-98.4,115-298.6,154.4-430.2,317.3c-133.7,165-86.5,406.5-228.7,596.8
		c-127.1,170-403.9,236.1-565.8,204"/>
	<path class="st0" d="M2344,17.7c-100.5,115.1-301.1,149.4-433.4,312c-135,165.3-82.1,412.5-226.4,607.7
		c-129,174.4-407.7,239-563.6,208.1"/>
	<path class="st0" d="M2347.5,19.4c-102.6,115.3-303.6,144.4-436.7,306.8c-136.2,165.6-77.7,418.4-224.1,618.6
		c-130.8,178.8-411.5,241.9-561.5,212.2"/>
	<path class="st0" d="M2351,21c-104.8,115.4-306,139.4-439.9,301.6c-137.5,166-73.3,424.3-221.7,629.5
		c-132.6,183.2-415.3,244.8-559.3,216.3"/>
	<path class="st0" d="M2354.4,22.6C2247.5,138.2,2045.9,157,1911.3,319c-138.7,166.3-68.9,430.3-219.4,640.4
		c-134.5,187.6-419.2,247.7-557.1,220.3"/>
	<path class="st0" d="M2357.9,24.3c-109,115.7-311,129.3-446.4,291.2c-140,166.6-64.4,436.2-217.1,651.3
		c-136.3,192-423,250.6-555,224.4"/>
	<path class="st0" d="M2361.3,25.9c-111.2,115.9-313.5,124.3-449.6,285.9c-141.3,167-60,442.2-214.8,662.2
		c-138.1,196.4-426.8,253.5-552.8,228.5"/>
	<path class="st0" d="M2364.8,27.5c-113.3,116-316,119.3-452.8,280.7c-142.5,167.3-55.6,448.1-212.4,673.1
		c-140,200.8-430.7,256.4-550.6,232.6"/>
	<path class="st0" d="M2368.3,29.2c-115.4,116.2-318.5,114.3-456.1,275.5c-143.8,167.6-51.2,454-210.1,684
		c-141.8,205.2-434.5,259.3-548.5,236.7"/>
	<path class="st0" d="M2371.7,30.8c-117.5,116.3-321,109.3-459.3,270.3c-145.1,168-46.8,460-207.8,694.9
		c-143.6,209.6-438.3,262.2-546.3,240.8"/>
	<path class="st0" d="M2375.2,32.5c-119.7,116.5-323.4,104.2-462.5,265.1c-146.3,168.3-42.4,465.9-205.5,705.8
		c-145.5,214-442.1,265.1-544.1,244.9"/>
	<path class="st0" d="M2378.6,34.1c-121.8,116.7-325.9,99.2-465.8,259.8c-147.6,168.6-38,471.8-203.2,716.8
		c-147.3,218.4-446,268-541.9,248.9"/>
	<path class="st0" d="M2382.1,35.7c-123.9,116.8-328.4,94.2-469,254.6c-148.8,169-33.6,477.8-200.8,727.7
		c-149.1,222.8-449.8,270.9-539.8,253"/>
	<path class="st0" d="M2385.5,37.4c-126,117-330.9,89.2-472.2,249.4c-150.1,169.3-29.2,483.7-198.5,738.6
		c-151,227.2-453.6,273.8-537.6,257.1"/>
	<path class="st0" d="M2389,39c-128.2,117.1-333.4,84.2-475.5,244.2c-151.4,169.6-24.8,489.6-196.2,749.5
		c-152.8,231.6-457.5,276.7-535.4,261.2"/>
	<path class="st0" d="M2392.5,40.6c-130.3,117.3-335.9,79.2-478.7,239c-152.6,169.9-20.4,495.6-193.9,760.4
		c-154.6,236-461.3,279.6-533.3,265.3"/>
	<path class="st0" d="M2395.9,42.3C2263.5,159.7,2057.6,116.4,1914,276c-153.9,170.3-16,501.5-191.6,771.3
		c-156.5,240.4-465.1,282.5-531.1,269.4"/>
	<path class="st0" d="M2399.4,43.9c-134.6,117.6-340.8,69.1-485.2,228.5C1759,443,1902.6,779.9,1725,1054.6
		c-158.3,244.8-468.9,285.4-528.9,273.5"/>
	<path class="st0" d="M2402.8,45.5c-136.7,117.7-343.3,64.1-488.4,223.3c-156.4,170.9-7.2,513.4-186.9,793.1
		c-160.1,249.2-472.8,288.3-526.7,277.6"/>
	<path class="st0" d="M2406.3,47.2c-138.8,117.9-345.8,59.1-491.6,218.1c-157.7,171.3-2.8,519.3-184.6,804
		c-161.9,253.6-476.6,291.2-524.6,281.6"/>
	<path class="st0" d="M2409.8,48.8c-140.9,118-348.3,54.1-494.9,212.9c-158.9,171.6,1.6,525.3-182.3,814.9
		c-163.8,258-480.4,294-522.4,285.7"/>
	<path class="st0" d="M2413.2,50.4c-143.1,118.2-350.8,49.1-498.1,207.6c-160.2,171.9,6,531.2-179.9,825.8
		c-165.6,262.4-484.2,296.9-520.2,289.8"/>
	<path class="st0" d="M2416.7,52.1c-145.2,118.4-353.3,44-501.3,202.4c-161.5,172.3,10.4,537.1-177.6,836.7
		c-167.4,266.8-488.1,299.8-518.1,293.9"/>
	<path class="st0" d="M2420.1,53.7c-147.3,118.5-355.8,39-504.6,197.2c-162.7,172.6,14.8,543.1-175.3,847.6
		c-169.3,271.2-491.9,302.7-515.9,298"/>
	<path class="st0" d="M2423.6,55.3c-149.5,118.7-358.2,34-507.8,192c-164,172.9,19.2,549-173,858.5
		c-171.1,275.5-495.7,305.6-513.7,302.1"/>
	<path class="st0" d="M2427.1,57c-151.6,118.8-360.7,29-511,186.8c-165.3,173.2,23.6,555-170.7,869.4
		c-172.9,279.9-499.6,308.5-511.6,306.2"/>
	<path class="st0" d="M2430.5,58.6c-153.7,119-363.2,24-514.3,181.5c-166.5,173.6,28,560.9-168.3,880.3
		c-174.8,284.3-503.4,311.4-509.4,310.2"/>
	<path class="st0" d="M2434,60.2c-155.8,119.1-365.7,19-517.5,176.3c-167.8,173.9,32.4,566.8-166,891.2
		c-176.6,288.7-507.2,314.3-507.2,314.3"/>
</g>
</svg>
