<?xml version="1.0" encoding="utf-8"?>
<!-- Generator: Adobe Illustrator 20.1.0, SVG Export Plug-In . SVG Version: 6.00 Build 0)  -->
<svg version="1.1" id="Layer_1" xmlns="http://www.w3.org/2000/svg" xmlns:xlink="http://www.w3.org/1999/xlink" x="0px" y="0px"
	 viewBox="0 0 1920 1080" style="enable-background:new 0 0 1920 1080;" xml:space="preserve">
<style type="text/css">
	.st0{fill:none;stroke:#643C9E;stroke-width:2;stroke-miterlimit:10;}
</style>
<g>
	<path class="st0" d="M-158.7,1779.1c308.4-208.4,596.2-63,922.6-283.6c285.4-192.8,506.6-656.1,810.5-861.4
		C2053.2,310.7,2589,382.6,2589,382.6"/>
	<path class="st0" d="M-159.5,1778.9c307.1-209.9,597.8-67.4,921.3-289c283.7-194.7,502.1-657.9,804.7-864.7
		c476.7-325.9,1013.6-257.7,1013.6-257.7"/>
	<path class="st0" d="M-160.3,1778.6c305.8-211.5,599.5-71.8,920-294.5c281.9-196.6,497.6-659.7,798.8-868
		c474.7-328.3,1012.6-263.9,1012.6-263.9"/>
	<path class="st0" d="M-161.1,1778.4c304.5-213,601.2-76.2,918.7-300c280.2-198.5,493.1-661.5,793-871.3
		C2023.4,276.4,2562.4,337,2562.4,337"/>
	<path class="st0" d="M-161.8,1778.1c303.2-214.6,602.9-80.6,917.4-305.4c278.4-200.3,488.5-663.3,787.2-874.7
		c470.7-333.1,1010.7-276.2,1010.7-276.2"/>
	<path class="st0" d="M-162.6,1777.9c301.9-216.1,604.6-85,916.1-310.9c276.7-202.2,484-665,781.4-878
		c468.7-335.5,1009.7-282.4,1009.7-282.4"/>
	<path class="st0" d="M-163.4,1777.6c300.6-217.7,606.7-88.7,914.8-316.4c275.4-203.5,479.5-666.8,775.6-881.3
		C1993.7,242,2535.8,291.4,2535.8,291.4"/>
	<path class="st0" d="M-164.2,1777.4c299.3-219.2,608.5-93.1,913.5-321.9c273.7-205.3,474.9-668.6,769.8-884.6
		c464.6-340.3,1007.8-294.7,1007.8-294.7"/>
	<path class="st0" d="M-165,1777.1c298-220.8,610.2-97.4,912.3-327.3c272-207.1,470.4-670.4,764-887.9
		C1973.8,219.1,2518.1,261,2518.1,261"/>
	<path class="st0" d="M-165.8,1776.8c296.7-222.3,612-101.7,911-332.8c270.3-208.9,465.9-672.2,758.2-891.2
		c460.6-345.1,1005.9-307.1,1005.9-307.1"/>
	<path class="st0" d="M-166.6,1776.6c295.4-223.9,613.7-106.1,909.7-338.3c268.6-210.8,461.4-673.9,752.4-894.5
		C1954,196.3,2500.4,230.6,2500.4,230.6"/>
	<path class="st0" d="M-167.4,1776.3C126.7,1550.9,448,1665.9,741,1432.6c266.9-212.6,456.8-675.7,746.6-897.8
		c456.6-349.9,1004-319.4,1004-319.4"/>
	<path class="st0" d="M-168.2,1776.1c292.8-227,617.1-114.8,907.1-349.2c265.2-214.4,452.3-677.5,740.8-901.1
		c454.5-352.4,1003-325.6,1003-325.6"/>
	<path class="st0" d="M-169,1775.8c291.5-228.5,618.9-119.2,905.8-354.7c263.5-216.3,447.8-679.3,734.9-904.4
		c452.5-354.8,1002-331.7,1002-331.7"/>
	<path class="st0" d="M-169.8,1775.6c290.2-230.1,620.6-123.6,904.5-360.2c261.8-218.2,443.2-681.1,729.1-907.7
		c450.5-357.2,1001.1-337.9,1001.1-337.9"/>
	<path class="st0" d="M-170.6,1775.3c288.9-231.7,622.3-128,903.2-365.6c260.1-220,438.7-682.8,723.3-911
		C1904.5,139,2456,154.5,2456,154.5"/>
	<path class="st0" d="M-171.3,1775c287.6-233.2,624-132.4,901.9-371.1c258.4-221.9,434.2-684.6,717.5-914.4
		c446.5-362,999.1-350.2,999.1-350.2"/>
	<path class="st0" d="M-172.1,1774.8C114.2,1540,453.5,1638,728.5,1398.2c256.6-223.8,429.7-686.4,711.7-917.7
		c444.5-364.4,998.2-356.4,998.2-356.4"/>
	<path class="st0" d="M-172.9,1774.5c285-236.3,627.3-141.2,899.3-382.1c254.9-225.7,425.1-688.2,705.9-921
		c442.4-366.8,997.2-362.6,997.2-362.6"/>
	<path class="st0" d="M-173.7,1774.3c283.7-237.9,629-145.7,898-387.5c253.1-227.6,420.6-690,700.1-924.3
		c440.4-369.2,996.2-368.7,996.2-368.7"/>
	<path class="st0" d="M-174.5,1774c282.4-239.4,630.6-150.1,896.7-393c251.4-229.5,416.1-691.7,694.3-927.6
		c438.4-371.6,995.3-374.9,995.3-374.9"/>
	<path class="st0" d="M-175.3,1773.8c281.1-241,632.3-154.6,895.4-398.5c249.6-231.4,411.5-693.5,688.5-930.9
		c436.4-374,994.3-381.1,994.3-381.1"/>
	<path class="st0" d="M-176.1,1773.5c279.8-242.5,633.9-159,894.1-404c247.8-233.3,407-695.3,682.7-934.2
		C1835.1,58.9,2394,48.1,2394,48.1"/>
	<path class="st0" d="M-176.9,1773.2c278.5-244.1,635.6-163.5,892.8-409.4c246-235.3,402.5-697.1,676.9-937.5
		c432.4-378.8,992.4-393.4,992.4-393.4"/>
	<path class="st0" d="M-177.7,1773c277.2-245.6,637.2-167.9,891.5-414.9c244.3-237.2,397.9-698.9,671-940.8
		C1815.2,36,2376.3,17.7,2376.3,17.7"/>
	<path class="st0" d="M-178.5,1772.7c275.9-247.2,638.8-172.4,890.2-420.4c242.5-239.1,393.4-700.6,665.2-944.1
		C1805.3,24.6,2367.4,2.5,2367.4,2.5"/>
	<path class="st0" d="M-179.3,1772.5c274.6-248.7,640.4-176.9,888.9-425.8c240.6-241.1,388.9-702.4,659.4-947.4
		c426.3-386.1,989.5-411.9,989.5-411.9"/>
	<path class="st0" d="M-180.1,1772.2c273.3-250.3,641.6-181.8,887.6-431.3c238.4-243.5,384.4-704.2,653.6-950.7
		C1785.5,1.7,2349.7-27.9,2349.7-27.9"/>
	<path class="st0" d="M-180.8,1772c272-251.8,643.3-186.2,886.3-436.8c236.7-245.3,379.8-706,647.8-954
		C1775.6-9.8,2340.8-43.1,2340.8-43.1"/>
	<path class="st0" d="M-181.6,1771.7c270.7-253.4,645-190.6,885-442.3c234.9-247.2,375.3-707.8,642-957.4
		C1765.7-21.2,2332-58.3,2332-58.3"/>
	<path class="st0" d="M-182.4,1771.5c269.4-254.9,646.7-195,883.7-447.7c233.2-249.1,370.8-709.5,636.2-960.7
		c418.2-395.7,985.6-436.5,985.6-436.5"/>
	<path class="st0" d="M-183.2,1771.2c268.1-256.5,648.4-199.4,882.4-453.2c231.5-250.9,366.2-711.3,630.4-964
		c416.2-398.1,984.6-442.7,984.6-442.7"/>
</g>
</svg>
