<!--?xml version="1.0" encoding="utf-8"?-->
<!-- Generator: Adobe Illustrator 21.0.0, SVG Export Plug-In . SVG Version: 6.00 Build 0)  -->
<svg version="1.1" id="Layer_1" xmlns="http://www.w3.org/2000/svg" xmlns:xlink="http://www.w3.org/1999/xlink" x="0px" y="0px" viewBox="0 0 1920 1080" xml:space="preserve">
<style type="text/css">
	.st0{opacity:0.5;}
	.st1{fill:none;stroke:#643C9E;stroke-width:2;stroke-miterlimit:10;}
</style>
<g>
	<g>
		<g>
			<g class="st0">
				<path class="st1 ouwnfRwv_0" d="M1154.1,1080c131.6-169,265.2-341.1,420.3-445.9c114.7-77.4,232.6-132.2,345.6-170.7"></path>
				<path class="st1 ouwnfRwv_1" d="M1143.3,1080c132.3-171.8,266.5-347.7,423.2-454.8c117.2-80.1,237.9-136.4,353.5-175.7"></path>
				<path class="st1 ouwnfRwv_2" d="M1132.4,1080c133.1-174.6,267.8-354.4,426.1-463.9c119.7-82.8,243.4-140.6,361.5-180.8"></path>
				<path class="st1 ouwnfRwv_3" d="M1121.9,1080c133.8-177.3,268.9-361,428.7-472.9c122.2-85.5,248.8-144.8,369.4-185.8"></path>
				<path class="st1 ouwnfRwv_4" d="M1111.4,1080c134.4-180,269.9-367.8,431.4-482c124.6-88.2,254.1-149.1,377.2-190.9"></path>
				<path class="st1 ouwnfRwv_5" d="M1101.1,1080c135.1-182.7,270.9-374.3,433.8-491c127.1-91,259.6-153.4,385.1-196"></path>
				<path class="st1 ouwnfRwv_6" d="M1091.1,1080c135.6-185.4,271.5-381,435.9-500.1c129.6-93.8,265-157.8,393-201.2"></path>
				<path class="st1 ouwnfRwv_7" d="M1081,1080c136.2-188,272.3-387.6,438.1-509.1c132-96.7,270.4-162.3,400.9-206.5"></path>
				<path class="st1 ouwnfRwv_8" d="M1071.1,1080c136.7-190.6,273-394.3,440.2-518.1c134.4-99.7,275.8-166.8,408.7-211.9"></path>
				<path class="st1 ouwnfRwv_9" d="M1061.1,1080c137.2-193.2,273.6-400.9,442.3-527.2c136.9-102.6,281.3-171.3,416.6-217.2"></path>
				<path class="st1 ouwnfRwv_10" d="M1051.3,1080c137.6-195.8,274.2-407.4,444.2-536.2c139.3-105.6,286.8-175.9,424.5-222.7"></path>
				<path class="st1 ouwnfRwv_11" d="M1041.6,1080c138.1-198.3,274.5-413.9,446-545.2c141.8-108.6,292.2-180.6,432.4-228.2"></path>
				<path class="st1 ouwnfRwv_12" d="M1032.2,1080c138.5-200.7,274.8-420.4,447.5-554.2C1623.8,414,1777.4,340.4,1920,292"></path>
				<path class="st1 ouwnfRwv_13" d="M1022.6,1080c138.9-203.3,275.2-427,449.1-563.3C1618.3,401.8,1775,326.5,1920,277.2"></path>
				<path class="st1 ouwnfRwv_14" d="M1013.2,1080c139.3-205.7,275.3-433.4,450.6-572.3c149-118.1,308.9-195.1,456.2-245.1"></path>
				<path class="st1 ouwnfRwv_15" d="M1004,1080c139.7-208.1,275.4-439.9,451.9-581.3c151.4-121.4,314.4-200,464.1-251"></path>
				<path class="st1 ouwnfRwv_16" d="M994.9,1080c140.1-210.5,275.5-446.4,453.2-590.5C1601.8,364.9,1768,284.6,1920,232.8"></path>
				<path class="st1 ouwnfRwv_17" d="M985.8,1080c140.4-212.9,275.4-452.7,454.4-599.5c156-127.9,325.5-210,479.8-262.5"></path>
				<path class="st1 ouwnfRwv_18" d="M976.8,1080c140.7-215.3,275.3-459.3,455.6-608.6c158.4-131.3,331.1-215.1,487.7-268.5"></path>
				<path class="st1 ouwnfRwv_19" d="M968,1080c141-217.6,275.2-465.5,456.4-617.5C1585.1,327.8,1761.2,242.3,1920,188"></path>
				<path class="st1 ouwnfRwv_20" d="M959.2,1080c141.3-219.9,274.9-471.9,457.3-626.6c163-138.2,342.4-225.4,503.5-280.5"></path>
				<path class="st1 ouwnfRwv_21" d="M950.5,1080C1092,857.8,1225,601.7,1408.6,444.4c165.3-141.7,348.1-230.7,511.4-286.7"></path>
				<path class="st1 ouwnfRwv_22" d="M941.7,1080c141.8-224.5,274.3-484.7,459-644.7C1568.3,290,1754.5,199.2,1920,142.5"></path>
				<path class="st1 ouwnfRwv_23" d="M933.2,1080c142-226.7,273.8-491,459.6-653.7c169.9-148.9,359.6-241.5,527.2-299.1"></path>
				<path class="st1 ouwnfRwv_24" d="M924.9,1080c142.2-228.9,273.2-497.2,459.9-662.7c172.2-152.6,365.4-247.1,535.2-305.5"></path>
				<path class="st1 ouwnfRwv_25" d="M916.5,1080c142.5-231.2,272.6-503.5,460.4-671.8c174.5-156.3,371.2-252.6,543.1-311.8"></path>
				<path class="st1 ouwnfRwv_26" d="M908.3,1080C1051,846.7,1180.2,570.3,1369,399.3c176.8-160.1,377.1-258.2,551-318.3"></path>
				<path class="st1 ouwnfRwv_27" d="M899.8,1080c142.9-235.6,271.5-516,461.3-689.8c179-163.9,383-263.9,558.9-324.8"></path>
				<path class="st1 ouwnfRwv_28" d="M891.9,1080c143.1-237.7,270.6-522.2,461.4-698.8c181.2-167.8,388.8-269.7,566.7-331.4"></path>
				<path class="st1 ouwnfRwv_29" d="M883.8,1080c143.2-239.9,269.7-528.5,461.6-708C1528.9,200.4,1740.1,96.6,1920,34.1"></path>
				<path class="st1 ouwnfRwv_30" d="M876.1,1080c143.5-242,268.7-534.5,461.4-716.9C1523.2,187.4,1738.2,81.7,1920,18.4"></path>
				<path class="st1 ouwnfRwv_31" d="M868.4,1080C1012,835.9,1136,539.2,1329.6,354C1517.5,174.3,1736.4,66.6,1920,2.6"></path>
			</g>
		</g>
	</g>
</g>
<style>.ouwnfRwv_0{stroke-dasharray:1002 1004;stroke-dashoffset:1003;animation:ouwnfRwv_draw 6666ms ease-in-out 0ms forwards;}.ouwnfRwv_1{stroke-dasharray:1020 1022;stroke-dashoffset:1021;animation:ouwnfRwv_draw 6666ms ease-in-out 107ms forwards;}.ouwnfRwv_2{stroke-dasharray:1038 1040;stroke-dashoffset:1039;animation:ouwnfRwv_draw 6666ms ease-in-out 215ms forwards;}.ouwnfRwv_3{stroke-dasharray:1056 1058;stroke-dashoffset:1057;animation:ouwnfRwv_draw 6666ms ease-in-out 322ms forwards;}.ouwnfRwv_4{stroke-dasharray:1074 1076;stroke-dashoffset:1075;animation:ouwnfRwv_draw 6666ms ease-in-out 430ms forwards;}.ouwnfRwv_5{stroke-dasharray:1092 1094;stroke-dashoffset:1093;animation:ouwnfRwv_draw 6666ms ease-in-out 537ms forwards;}.ouwnfRwv_6{stroke-dasharray:1110 1112;stroke-dashoffset:1111;animation:ouwnfRwv_draw 6666ms ease-in-out 645ms forwards;}.ouwnfRwv_7{stroke-dasharray:1128 1130;stroke-dashoffset:1129;animation:ouwnfRwv_draw 6666ms ease-in-out 752ms forwards;}.ouwnfRwv_8{stroke-dasharray:1145 1147;stroke-dashoffset:1146;animation:ouwnfRwv_draw 6666ms ease-in-out 860ms forwards;}.ouwnfRwv_9{stroke-dasharray:1163 1165;stroke-dashoffset:1164;animation:ouwnfRwv_draw 6666ms ease-in-out 967ms forwards;}.ouwnfRwv_10{stroke-dasharray:1181 1183;stroke-dashoffset:1182;animation:ouwnfRwv_draw 6666ms ease-in-out 1075ms forwards;}.ouwnfRwv_11{stroke-dasharray:1199 1201;stroke-dashoffset:1200;animation:ouwnfRwv_draw 6666ms ease-in-out 1182ms forwards;}.ouwnfRwv_12{stroke-dasharray:1217 1219;stroke-dashoffset:1218;animation:ouwnfRwv_draw 6666ms ease-in-out 1290ms forwards;}.ouwnfRwv_13{stroke-dasharray:1235 1237;stroke-dashoffset:1236;animation:ouwnfRwv_draw 6666ms ease-in-out 1397ms forwards;}.ouwnfRwv_14{stroke-dasharray:1252 1254;stroke-dashoffset:1253;animation:ouwnfRwv_draw 6666ms ease-in-out 1505ms forwards;}.ouwnfRwv_15{stroke-dasharray:1270 1272;stroke-dashoffset:1271;animation:ouwnfRwv_draw 6666ms ease-in-out 1612ms forwards;}.ouwnfRwv_16{stroke-dasharray:1288 1290;stroke-dashoffset:1289;animation:ouwnfRwv_draw 6666ms ease-in-out 1720ms forwards;}.ouwnfRwv_17{stroke-dasharray:1306 1308;stroke-dashoffset:1307;animation:ouwnfRwv_draw 6666ms ease-in-out 1827ms forwards;}.ouwnfRwv_18{stroke-dasharray:1324 1326;stroke-dashoffset:1325;animation:ouwnfRwv_draw 6666ms ease-in-out 1935ms forwards;}.ouwnfRwv_19{stroke-dasharray:1341 1343;stroke-dashoffset:1342;animation:ouwnfRwv_draw 6666ms ease-in-out 2043ms forwards;}.ouwnfRwv_20{stroke-dasharray:1359 1361;stroke-dashoffset:1360;animation:ouwnfRwv_draw 6666ms ease-in-out 2150ms forwards;}.ouwnfRwv_21{stroke-dasharray:1377 1379;stroke-dashoffset:1378;animation:ouwnfRwv_draw 6666ms ease-in-out 2258ms forwards;}.ouwnfRwv_22{stroke-dasharray:1395 1397;stroke-dashoffset:1396;animation:ouwnfRwv_draw 6666ms ease-in-out 2365ms forwards;}.ouwnfRwv_23{stroke-dasharray:1413 1415;stroke-dashoffset:1414;animation:ouwnfRwv_draw 6666ms ease-in-out 2473ms forwards;}.ouwnfRwv_24{stroke-dasharray:1431 1433;stroke-dashoffset:1432;animation:ouwnfRwv_draw 6666ms ease-in-out 2580ms forwards;}.ouwnfRwv_25{stroke-dasharray:1448 1450;stroke-dashoffset:1449;animation:ouwnfRwv_draw 6666ms ease-in-out 2688ms forwards;}.ouwnfRwv_26{stroke-dasharray:1466 1468;stroke-dashoffset:1467;animation:ouwnfRwv_draw 6666ms ease-in-out 2795ms forwards;}.ouwnfRwv_27{stroke-dasharray:1484 1486;stroke-dashoffset:1485;animation:ouwnfRwv_draw 6666ms ease-in-out 2903ms forwards;}.ouwnfRwv_28{stroke-dasharray:1502 1504;stroke-dashoffset:1503;animation:ouwnfRwv_draw 6666ms ease-in-out 3010ms forwards;}.ouwnfRwv_29{stroke-dasharray:1520 1522;stroke-dashoffset:1521;animation:ouwnfRwv_draw 6666ms ease-in-out 3118ms forwards;}.ouwnfRwv_30{stroke-dasharray:1538 1540;stroke-dashoffset:1539;animation:ouwnfRwv_draw 6666ms ease-in-out 3225ms forwards;}.ouwnfRwv_31{stroke-dasharray:1556 1558;stroke-dashoffset:1557;animation:ouwnfRwv_draw 6666ms ease-in-out 3333ms forwards;}@keyframes ouwnfRwv_draw{100%{stroke-dashoffset:0;}}@keyframes ouwnfRwv_fade{0%{stroke-opacity:1;}97.1830985915493%{stroke-opacity:1;}100%{stroke-opacity:0;}}</style></svg>
