<?xml version="1.0" encoding="utf-8"?>
<!-- Generator: Adobe Illustrator 20.1.0, SVG Export Plug-In . SVG Version: 6.00 Build 0)  -->
<svg version="1.1" id="Layer_1" xmlns="http://www.w3.org/2000/svg" xmlns:xlink="http://www.w3.org/1999/xlink" x="0px" y="0px"
	 viewBox="0 0 1920 1080" style="enable-background:new 0 0 1920 1080;" xml:space="preserve">
<style type="text/css">
	.st0{fill:url(#SVGID_1_);}
	.st1{fill:url(#SVGID_2_);}
	.st2{fill:url(#SVGID_3_);}
	.st3{fill:url(#SVGID_4_);}
	.st4{fill:url(#SVGID_5_);}
	.st5{fill:url(#SVGID_6_);}
	.st6{fill:url(#SVGID_7_);}
	.st7{fill:url(#SVGID_8_);}
	.st8{fill:url(#SVGID_9_);}
	.st9{fill:url(#SVGID_10_);}
	.st10{fill:url(#SVGID_11_);}
</style>
<g>
	<linearGradient id="SVGID_1_" gradientUnits="userSpaceOnUse" x1="-12.3557" y1="925.577" x2="2011.1195" y2="925.577">
		<stop  offset="0" style="stop-color:#929497"/>
		<stop  offset="0.2546" style="stop-color:#E5E6E7"/>
		<stop  offset="0.6296" style="stop-color:#6D6E71"/>
		<stop  offset="0.9907" style="stop-color:#BBBDBF"/>
	</linearGradient>
	<path class="st0" d="M983.2,1462.3c-14,14-28.5,27.4-43.6,40.1c-55.8,46.9-126.1,78.6-203.3,91.6c-94.5,16-193.9,13.2-303.8-8.6
		c-79.9-15.8-127.5-32.6-197.9-90.2c-38.7-31.6-92-80.4-108.6-138.3c-38.9-136,27.6-258.2,91.9-376.4
		c34.1-62.6,69.3-127.3,87.3-192.3c20.2-72.8,16.3-138.8-11.8-201.7c-30.5-68.4-72.7-130.8-128.9-191
		C117.5,345.1,59.9,296-11.4,245.3l-1,1.4c154.2,109.6,248,214.7,304.2,340.5c62.3,139.4-4.6,262.4-75.5,392.5
		c-64.5,118.5-131.2,241-92,377.7c16.7,58.4,70.3,107.4,109.2,139.2c70.7,57.8,118.4,74.6,198.6,90.5
		c63.4,12.6,123.3,18.8,180.8,18.8c42.4,0,83.5-3.4,123.6-10.2c77.5-13.1,148.1-44.9,204.1-92c15.2-12.7,29.7-26.2,43.7-40.2
		C984,1463.1,983.6,1462.7,983.2,1462.3z"/>
</g>
<linearGradient id="SVGID_2_" gradientUnits="userSpaceOnUse" x1="-35.4705" y1="938.827" x2="2016.3179" y2="938.827">
	<stop  offset="0" style="stop-color:#929497"/>
	<stop  offset="0.2546" style="stop-color:#E5E6E7"/>
	<stop  offset="0.6296" style="stop-color:#6D6E71"/>
	<stop  offset="0.9907" style="stop-color:#BBBDBF"/>
</linearGradient>
<path class="st1" d="M994.3,1472.7c-18.2,19.8-37.1,36.7-57.6,51.4c-64.9,46.8-143.8,58.8-205.3,64.1
	c-91.4,7.8-184.7-0.8-285.1-26.4c-72.6-18.5-118.9-37.5-185.5-95.1c-35.2-30.4-59.9-56.9-77.8-83.3c-12-17.7-20.8-35.4-26-52.6
	c-20.7-68.2-17.9-137.5,8.9-218.3c15.7-47.9,37.6-95.1,58.7-140.7c16.9-36.5,34.4-74.2,48.2-111.3c28.4-76.9,50.7-168.9,0-267.9
	c-75-146.8-203.7-241.3-307.4-307.3l-0.9,1.4c103.5,65.9,232,160.2,306.8,306.6c50.3,98.5,28.2,190-0.1,266.6
	c-13.8,37.1-31.3,74.8-48.2,111.2c-21.2,45.7-43.1,92.9-58.8,140.9c-26.9,81.1-29.7,150.8-8.9,219.3c5.3,17.3,14.1,35.2,26.2,53
	c18,26.5,42.8,53.1,78.1,83.7c66.9,57.9,113.3,76.9,186.2,95.5c76.8,19.6,149.4,29.2,220.2,29.2c22,0,43.7-0.9,65.4-2.8
	c61.7-5.3,140.8-17.4,206.1-64.4c20.5-14.8,39.6-31.7,57.8-51.6C995.1,1473.4,994.7,1473.1,994.3,1472.7z"/>
<linearGradient id="SVGID_3_" gradientUnits="userSpaceOnUse" x1="-58.5815" y1="955.1971" x2="2021.5345" y2="955.1971">
	<stop  offset="0" style="stop-color:#929497"/>
	<stop  offset="0.2546" style="stop-color:#E5E6E7"/>
	<stop  offset="0.6296" style="stop-color:#6D6E71"/>
	<stop  offset="0.9907" style="stop-color:#BBBDBF"/>
</linearGradient>
<path class="st2" d="M1004.4,1482.2c-21.5,26.9-44.6,47.7-70.6,63.5c-64.7,39.5-141.1,40.6-207.2,36.5
	c-78.8-4.9-172.1-14-266.4-44.2c-74.8-24-116.9-48.3-173.2-100.1c-32.9-30.3-56.2-56.5-73.5-82.5c-11.5-17.3-20.1-34.5-25.4-51
	c-21.2-65.9-21.4-132.8-0.4-210.6c11.8-43.7,28-86.6,43.7-128.1c14.4-38.1,29.3-77.5,40.2-116.2c20.5-73.2,34.2-160.3-19.2-251.2
	C174.6,466.2,45.8,382.8-57.8,324.9l-0.8,1.5c103.4,57.8,232,141,309.4,272.8c53.1,90.3,39.4,177,19,249.9
	c-10.8,38.6-25.7,78-40.1,116c-15.7,41.5-32,84.5-43.8,128.3c-21,78.1-20.9,145.3,0.4,211.5c5.4,16.7,14,34,25.6,51.4
	c17.3,26.1,40.8,52.4,73.8,82.8c56.6,52.1,98.8,76.5,173.8,100.5c94.5,30.3,187.9,39.4,266.8,44.3c15.1,0.9,30.8,1.6,46.7,1.6
	c54,0,111.1-7.7,161.4-38.4c26.2-15.9,49.4-36.8,71-63.8C1005.3,1483,1004.9,1482.6,1004.4,1482.2z"/>
<linearGradient id="SVGID_4_" gradientUnits="userSpaceOnUse" x1="-81.6864" y1="979.4878" x2="2026.9656" y2="979.4878">
	<stop  offset="0" style="stop-color:#929497"/>
	<stop  offset="0.2546" style="stop-color:#E5E6E7"/>
	<stop  offset="0.6296" style="stop-color:#6D6E71"/>
	<stop  offset="0.9907" style="stop-color:#BBBDBF"/>
</linearGradient>
<path class="st3" d="M1013.5,1490.7c-2.8,3.9-5.6,7.7-8.4,11.5c-22,29.7-46.3,51.1-74.2,65.1c-56,28.5-121.6,20-179.5,12.6
	c-10.3-1.3-20-2.6-29.7-3.6c-84.9-9.3-166-29.6-247.7-62c-67.6-26.8-108.2-53.3-160.9-105.2c-30.6-30.1-52.6-56-69.2-81.6
	c-11.1-17.1-19.3-33.3-24.9-49.4c-21.9-64-25-128.5-9.7-202.8c8.1-39.1,19.1-77.4,29.8-114.4c12.1-42,23.6-81.6,31-122.2
	c12.7-69.5,18-151.7-38.4-234.5c-77-113.1-194.5-182-301.5-234.1v1.9c106.6,52,223.5,120.7,300.1,233.1
	c56.1,82.3,50.7,164.1,38.1,233.2c-7.4,40.5-18.8,80.1-30.9,122.1c-10.7,37-21.8,75.3-29.8,114.5c-15.4,74.7-12.3,139.4,9.8,203.7
	c5.6,16.3,13.8,32.5,25,49.8c16.7,25.7,38.8,51.7,69.4,81.9c52.9,52,93.7,78.6,161.5,105.5c81.9,32.5,163,52.8,248.1,62.2
	c9.7,1.1,19.4,2.3,29.7,3.6c27.3,3.5,56.3,7.2,85.2,7.2c32.7,0,65.3-4.8,95.3-20c28.2-14.2,52.6-35.7,74.8-65.7
	c2.8-3.7,5.5-7.5,8.2-11.4C1014.3,1491.4,1013.9,1491.1,1013.5,1490.7z"/>
<linearGradient id="SVGID_5_" gradientUnits="userSpaceOnUse" x1="-104.7849" y1="1010.2192" x2="2032.4435" y2="1010.2192">
	<stop  offset="0" style="stop-color:#929497"/>
	<stop  offset="0.2546" style="stop-color:#E5E6E7"/>
	<stop  offset="0.6296" style="stop-color:#6D6E71"/>
	<stop  offset="0.9907" style="stop-color:#BBBDBF"/>
</linearGradient>
<path class="st4" d="M1021.5,1498.2c-5.5,8.7-11.1,17.1-16.8,25.3c-22.2,32-47.3,53.5-76.7,65.5c-54.8,22.7-117.3,6-172.4-8.8
	c-13.6-3.6-26.4-7-38.7-9.8c-81.2-18.2-156.1-44.3-228.9-79.9c-60.5-29.5-99.4-58.3-148.6-110.2c-28.3-29.8-48.9-55.5-64.9-80.7
	c-10.7-16.9-18.7-32.6-24.3-47.9c-22.5-61.2-28.7-125-19-195.1c4.6-33.4,11-66.1,17.2-97.7c8.8-45.1,17.2-87.8,20.5-131.2
	c7.2-92.9-10.1-158-57.6-217.7c-73.6-92.4-180.4-149.2-281-191.5v1.8c100.1,42.2,206.4,98.8,279.6,190.7
	c47.3,59.4,64.4,124.1,57.3,216.5c-3.3,43.3-11.7,85.9-20.5,131c-6.2,31.6-12.6,64.3-17.2,97.8c-9.8,70.3-3.5,134.4,19.1,195.9
	c5.7,15.4,13.7,31.2,24.5,48.2c16.1,25.3,36.7,51.1,65.1,81c49.3,52,88.4,80.9,149.1,110.5c73,35.6,148,61.7,229.3,80
	c12.3,2.8,25.1,6.2,38.7,9.8c35.8,9.6,74.6,19.9,112.5,19.9c20.8,0,41.4-3.1,61-11.3c29.7-12.2,55-33.8,77.4-66.1
	c5.6-8.1,11.2-16.4,16.7-25C1022.3,1499,1021.9,1498.6,1021.5,1498.2z"/>
<linearGradient id="SVGID_6_" gradientUnits="userSpaceOnUse" x1="-127.8767" y1="1040.9917" x2="2037.8983" y2="1040.9917">
	<stop  offset="0" style="stop-color:#929497"/>
	<stop  offset="0.2546" style="stop-color:#E5E6E7"/>
	<stop  offset="0.6296" style="stop-color:#6D6E71"/>
	<stop  offset="0.9907" style="stop-color:#BBBDBF"/>
</linearGradient>
<path class="st5" d="M1028.6,1505c-7.9,13.9-16,27.2-24.3,39.8c-22.5,34.4-48.4,55.9-79.2,65.9c-55.8,18.2-117.8-7.4-172.5-30.1
	c-14.3-5.9-27.9-11.5-40.6-16c-76.7-27.1-145.4-59.1-210.2-97.7c-53.6-32-90.6-63.2-136.3-115.2c-25.6-29.2-45.5-55.3-60.6-79.9
	c-10.2-16.6-18-31.7-23.7-46.3c-23.5-59.9-32.8-121.2-28.3-187.4c1.8-26.1,4.3-51.6,6.7-76.3c4.9-50,9.6-97.2,7.9-144.9
	c-3.1-87-26.1-147.1-76.8-201C120.5,541.5,26.5,497.2-69.7,463.4v1.8c95.8,33.7,189.4,77.9,259.2,151.9
	c50.4,53.5,73.3,113.3,76.4,199.9c1.7,47.6-3,94.7-7.9,144.7c-2.4,24.7-5,50.3-6.7,76.4c-4.5,66.4,4.8,128,28.4,188.1
	c5.8,14.7,13.6,29.9,23.9,46.6c15.2,24.7,35.1,50.8,60.8,80.1c45.8,52.2,82.9,83.5,136.7,115.5c64.9,38.6,133.7,70.7,210.5,97.8
	c12.7,4.5,26.2,10.1,40.5,16c41.9,17.3,88,36.4,132.5,36.4c13.9,0,27.7-1.9,41.2-6.3c31.2-10,57.4-31.8,80.1-66.6
	c8.2-12.6,16.3-25.8,24.1-39.6C1029.5,1505.8,1029,1505.4,1028.6,1505z"/>
<linearGradient id="SVGID_7_" gradientUnits="userSpaceOnUse" x1="-150.9622" y1="1070.7434" x2="2043.3521" y2="1070.7434">
	<stop  offset="0" style="stop-color:#929497"/>
	<stop  offset="0.2546" style="stop-color:#E5E6E7"/>
	<stop  offset="0.6296" style="stop-color:#6D6E71"/>
	<stop  offset="0.9907" style="stop-color:#BBBDBF"/>
</linearGradient>
<path class="st6" d="M1034.8,1510.8c-9.9,19.7-20.1,38-30.8,55.3c-22.8,36.8-49.5,58.5-81.7,66.2c-58.3,14.3-124.1-23-177.1-52.9
	c-13.5-7.6-26.3-14.8-38-20.7c-71.1-35.6-133.7-73.4-191.5-115.5c-46.9-34.2-81.7-67.9-124-120.2c-23.3-28.9-41.8-54.7-56.3-79
	c-9.8-16.3-17.4-30.9-23.2-44.7c-24.8-59.1-37.1-117.8-37.6-179.6c-0.1-15.8-0.1-31.4-0.1-46.5c0.1-57.9,0.2-112.6-8.4-167
	c-12.7-80-42.3-136.8-96.1-184.2c-68.6-60.5-155.2-94.1-239.8-117.6v1.8C14.5,529.5,100.7,563,169,623.1
	c53.4,47.1,82.9,103.6,95.5,183.2c8.6,54.3,8.5,108.9,8.4,166.8c0,15.1-0.1,30.7,0.1,46.5c0.5,62,12.8,121,37.7,180.3
	c5.8,13.9,13.4,28.6,23.3,45c14.6,24.3,33.1,50.2,56.5,79.2c42.4,52.4,77.2,86.2,124.3,120.5c57.9,42.1,120.6,80,191.7,115.7
	c11.7,5.9,24.4,13.1,37.9,20.7c45.1,25.5,99.5,56.3,150.9,56.3c9.2,0,18.4-1,27.4-3.2c32.6-7.9,59.7-29.8,82.7-67
	c10.6-17.2,20.8-35.4,30.7-55C1035.6,1511.6,1035.2,1511.2,1034.8,1510.8z"/>
<linearGradient id="SVGID_8_" gradientUnits="userSpaceOnUse" x1="-174.0425" y1="1099.2427" x2="2048.0535" y2="1099.2427">
	<stop  offset="0" style="stop-color:#929497"/>
	<stop  offset="0.2546" style="stop-color:#E5E6E7"/>
	<stop  offset="0.6296" style="stop-color:#6D6E71"/>
	<stop  offset="0.9907" style="stop-color:#BBBDBF"/>
</linearGradient>
<path class="st7" d="M1040,1515.8c-11.5,26-23.6,49.7-36.4,71.6c-23.1,39.3-50.6,61.1-84.2,66.6c-62.3,10.5-130.6-39.1-185.5-78.9
	c-11.2-8.1-21.8-15.8-31.5-22.3c-64-43-120.5-86.6-172.8-133.3c-40.4-36.1-72.7-72.4-111.7-125.2c-21-28.5-38.1-54.1-52.1-78.1
	c-9.5-16.3-16.7-30.1-22.6-43.2c-26.5-59-41.8-115.3-46.9-171.9c-6.7-75.2-12.4-140.1-31.6-205.8c-21.6-74.2-57.1-125.8-115.3-167.4
	c-64.1-45.9-142-70.6-219.3-86.4v1.7c77,15.8,154.5,40.4,218.3,86.1c57.8,41.4,93.1,92.8,114.6,166.5
	c19.1,65.6,24.9,130.4,31.5,205.5c5,56.8,20.4,113.3,47,172.5c5.9,13.2,13.1,27,22.7,43.4c14,24.1,31.1,49.7,52.2,78.3
	c39,52.9,71.4,89.3,111.9,125.5c52.3,46.8,108.9,90.5,173,133.5c9.6,6.5,20.2,14.1,31.4,22.3c50,36.3,111.2,80.6,169.1,80.6
	c5.9,0,11.8-0.5,17.7-1.5c34.1-5.6,62.1-27.7,85.4-67.4c12.8-21.8,24.8-45.4,36.3-71.2C1040.9,1516.6,1040.4,1516.2,1040,1515.8z"/>
<linearGradient id="SVGID_9_" gradientUnits="userSpaceOnUse" x1="-197.1182" y1="1125.969" x2="2054.1907" y2="1125.969">
	<stop  offset="0" style="stop-color:#929497"/>
	<stop  offset="0.2546" style="stop-color:#E5E6E7"/>
	<stop  offset="0.6296" style="stop-color:#6D6E71"/>
	<stop  offset="0.9907" style="stop-color:#BBBDBF"/>
</linearGradient>
<path class="st8" d="M1044.4,1520c-12.6,32.7-26.2,61.8-41.2,88.7c-23.3,41.8-51.7,63.7-86.7,67c-68.4,6.6-146.5-63.7-198.2-110.2
	c-7.4-6.6-14.4-12.9-20.8-18.5c-54.7-47.6-106.5-98.4-154-151.2c-33.9-37.6-63.6-76.6-99.4-130.3c-18.7-28.1-34.3-53.3-47.8-77.3
	c-6.3-11.2-14.6-26.1-22-41.6c-29.4-61-47.3-113.2-56.2-164.2c-11-63-25.3-130.6-54.7-198.1c-29.5-67.7-72.3-115.6-134.5-150.7
	C68.8,599.8,0.4,583.2-69.7,574.1v1.7c69.9,9.1,138,25.6,197.8,59.3C190,670,232.5,717.6,261.8,785c29.4,67.4,43.6,134.9,54.6,197.8
	c8.9,51.2,26.8,103.5,56.3,164.6c7.5,15.5,15.7,30.5,22.1,41.7c13.5,24,29.1,49.3,47.8,77.4c35.8,53.8,65.5,92.8,99.5,130.5
	c47.6,52.8,99.5,103.7,154.2,151.3c6.4,5.6,13.4,11.8,20.8,18.5c49.6,44.6,123.4,111.1,190.2,111.1c3.1,0,6.2-0.1,9.3-0.4
	c35.1-3.3,64.7-26.2,88-67.9c15-26.8,28.5-55.8,41.1-88.3C1045.3,1520.8,1044.8,1520.4,1044.4,1520z"/>
<linearGradient id="SVGID_10_" gradientUnits="userSpaceOnUse" x1="-220.2631" y1="1150.9717" x2="2059.6099" y2="1150.9717">
	<stop  offset="0" style="stop-color:#929497"/>
	<stop  offset="0.2546" style="stop-color:#E5E6E7"/>
	<stop  offset="0.6296" style="stop-color:#6D6E71"/>
	<stop  offset="0.9907" style="stop-color:#BBBDBF"/>
</linearGradient>
<path class="st9" d="M1047.8,1523.2c-12.1,36.3-26.8,72.7-45,106.8c-23.3,43.7-53.3,66.3-89.2,67.4c-0.9,0-1.8,0-2.7,0
	c-77.4,0-166-98.3-213.8-151.3l-4.4-4.9c-46.2-51.2-90.5-106.5-135.3-169c-27.8-38.8-53.9-79.3-87-135.3
	c-16.1-27.1-30.3-52.1-43.5-76.4l-1.4-2.5c-6.7-12.3-13.6-25-20.1-37.6c-29.5-57-51.9-105.5-65.5-156.5
	c-19.5-73.2-44.3-133.7-77.8-190.4c-37.1-62.2-87.3-106-153.7-133.9C53,616.3-7.7,606.3-69.7,602.8v1.7
	c61.8,3.5,122.3,13.4,177.4,36.6c66,27.8,116,71.4,152.9,133.2c33.5,56.6,58.1,116.9,77.7,190c13.7,51.1,36.1,99.7,65.6,156.8
	c6.5,12.6,13.5,25.3,20.1,37.6l1.4,2.5c13.2,24.3,27.4,49.3,43.5,76.5c33.2,56.1,59.3,96.6,87.1,135.4
	c44.9,62.6,89.1,117.9,135.4,169.1l4.4,4.9c48,53.3,136.9,151.9,215.1,151.9c0.9,0,1.8,0,2.7,0c36.6-1,67.1-24,90.7-68.3
	c18.1-34,32.8-70.2,44.8-106.3C1048.7,1524.1,1048.2,1523.6,1047.8,1523.2z"/>
<linearGradient id="SVGID_11_" gradientUnits="userSpaceOnUse" x1="-243.4977" y1="1174.1587" x2="2065.0039" y2="1174.1587">
	<stop  offset="0" style="stop-color:#929497"/>
	<stop  offset="0.2546" style="stop-color:#E5E6E7"/>
	<stop  offset="0.6296" style="stop-color:#6D6E71"/>
	<stop  offset="0.9907" style="stop-color:#BBBDBF"/>
</linearGradient>
<path class="st10" d="M1050.3,1525.6c-12.5,44.2-27.9,86.6-47.8,125.7c-21.5,42.3-49.3,65.1-82.5,67.6
	c-82.9,6.3-181.1-112.3-232.2-183.5c-78.5-109.5-141.5-231.1-202.4-348.7c-9.3-18-18.7-36.1-28.1-54.1c-9.9-19-20.7-38.2-31.2-56.8
	c-23.6-42-48.1-85.5-64.5-130.5c-24.4-66.7-56.5-124.8-101-182.7c-84-109.4-202.7-137.1-330.3-135.1v1.7
	c127.2-2,245.5,25.6,329,134.4c44.4,57.8,76.4,115.7,100.7,182.3c16.5,45.1,41,88.6,64.7,130.7c10.4,18.6,21.2,37.8,31.2,56.8
	c9.4,18,18.7,36,28.1,54c60.9,117.6,123.9,239.3,202.5,348.9c50,69.7,144.9,184.5,227.2,184.5c2.2,0,4.4-0.1,6.5-0.2
	c33.8-2.6,62-25.6,83.8-68.5c19.8-39,35.2-81.1,47.7-125.2C1051.2,1526.5,1050.7,1526.1,1050.3,1525.6z"/>
</svg>
